STARTFONT 2.1
COMMENT
COMMENT Converted from OpenType font "awesome-2.0.otf" by "otf2bdf 3.0".
COMMENT
FONT -FreeType-Source Sans Pro SemiBold-Medium-R-Normal--19-140-100-100-P-94-ISO10646-1
SIZE 14 100 100
FONTBOUNDINGBOX 50 26 -9 -6
STARTPROPERTIES 19
FOUNDRY "FreeType"
FAMILY_NAME "Source Sans Pro SemiBold"
WEIGHT_NAME "Medium"
SLANT "R"
SETWIDTH_NAME "Normal"
ADD_STYLE_NAME ""
PIXEL_SIZE 19
POINT_SIZE 140
RESOLUTION_X 100
RESOLUTION_Y 100
SPACING "P"
AVERAGE_WIDTH 94
CHARSET_REGISTRY "ISO10646"
CHARSET_ENCODING "1"
FONT_ASCENT 18
FONT_DESCENT 5
COPYRIGHT "Copyright 2010, 2012, 2014 Adobe Systems Incorporated (http://www.adobe.com/), with Reserved Font Name Source."
_OTF_FONTFILE "awesome-2.0.otf"
_OTF_PSNAME "SourceSansPro-SemiBold"
ENDPROPERTIES
CHARS 1296
STARTCHAR 0020
ENCODING 32
SWIDTH 205 0
DWIDTH 4 0
BBX 0 0 0 0
BITMAP
ENDCHAR
STARTCHAR 0021
ENCODING 33
SWIDTH 308 0
DWIDTH 6 0
BBX 2 13 2 0
BITMAP
C0
C0
C0
C0
C0
C0
C0
C0
C0
00
C0
C0
C0
ENDCHAR
STARTCHAR 0022
ENCODING 34
SWIDTH 462 0
DWIDTH 9 0
BBX 7 6 1 7
BITMAP
EE
6E
66
64
44
44
ENDCHAR
STARTCHAR 0023
ENCODING 35
SWIDTH 514 0
DWIDTH 10 0
BBX 8 12 1 0
BITMAP
32
22
26
FF
FF
24
64
FF
FF
44
4C
4C
ENDCHAR
STARTCHAR 0024
ENCODING 36
SWIDTH 514 0
DWIDTH 10 0
BBX 8 16 1 -2
BITMAP
18
18
3C
7E
E2
C0
60
78
1E
06
07
C7
FE
7C
18
18
ENDCHAR
STARTCHAR 0025
ENCODING 37
SWIDTH 822 0
DWIDTH 16 0
BBX 14 13 1 0
BITMAP
7060
D840
88C0
8880
8D80
8938
DB6C
7244
06C4
04C4
0C44
086C
1838
ENDCHAR
STARTCHAR 0026
ENCODING 38
SWIDTH 617 0
DWIDTH 12 0
BBX 11 12 1 0
BITMAP
3C00
3E00
6600
6600
6C00
3800
78E0
D8C0
CDC0
C780
FFC0
7CE0
ENDCHAR
STARTCHAR 0027
ENCODING 39
SWIDTH 257 0
DWIDTH 5 0
BBX 3 6 1 7
BITMAP
E0
60
60
60
40
40
ENDCHAR
STARTCHAR 0028
ENCODING 40
SWIDTH 308 0
DWIDTH 6 0
BBX 4 17 1 -3
BITMAP
10
30
20
60
60
60
40
C0
C0
C0
40
60
60
60
20
30
10
ENDCHAR
STARTCHAR 0029
ENCODING 41
SWIDTH 308 0
DWIDTH 6 0
BBX 4 17 1 -3
BITMAP
80
C0
40
60
60
20
30
30
30
30
30
20
60
60
40
C0
80
ENDCHAR
STARTCHAR 002A
ENCODING 42
SWIDTH 411 0
DWIDTH 8 0
BBX 6 6 1 8
BITMAP
30
30
FC
78
78
4C
ENDCHAR
STARTCHAR 002B
ENCODING 43
SWIDTH 514 0
DWIDTH 10 0
BBX 8 10 1 1
BITMAP
18
18
18
18
FF
FF
18
18
18
18
ENDCHAR
STARTCHAR 002C
ENCODING 44
SWIDTH 257 0
DWIDTH 5 0
BBX 3 6 1 -3
BITMAP
60
E0
60
20
60
C0
ENDCHAR
STARTCHAR 002D
ENCODING 45
SWIDTH 308 0
DWIDTH 6 0
BBX 4 2 1 4
BITMAP
F0
F0
ENDCHAR
STARTCHAR 002E
ENCODING 46
SWIDTH 257 0
DWIDTH 5 0
BBX 3 3 1 0
BITMAP
60
E0
60
ENDCHAR
STARTCHAR 002F
ENCODING 47
SWIDTH 360 0
DWIDTH 7 0
BBX 6 17 0 -3
BITMAP
04
0C
08
08
18
18
10
10
30
30
20
20
60
60
40
40
C0
ENDCHAR
STARTCHAR 0030
ENCODING 48
SWIDTH 514 0
DWIDTH 10 0
BBX 8 12 1 0
BITMAP
3C
7E
E6
C3
C3
C3
C3
C3
C3
E6
7E
3C
ENDCHAR
STARTCHAR 0031
ENCODING 49
SWIDTH 514 0
DWIDTH 10 0
BBX 8 12 1 0
BITMAP
18
38
78
78
18
18
18
18
18
18
FF
FF
ENDCHAR
STARTCHAR 0032
ENCODING 50
SWIDTH 514 0
DWIDTH 10 0
BBX 8 12 1 0
BITMAP
7C
FE
C6
06
06
06
0C
18
30
70
FF
FF
ENDCHAR
STARTCHAR 0033
ENCODING 51
SWIDTH 514 0
DWIDTH 10 0
BBX 9 12 0 0
BITMAP
3E00
7F00
6300
0300
0300
1E00
1F00
0380
0180
6380
FF00
3E00
ENDCHAR
STARTCHAR 0034
ENCODING 52
SWIDTH 514 0
DWIDTH 10 0
BBX 9 12 0 0
BITMAP
0700
0F00
1B00
1B00
3300
7300
6300
FF80
FF80
0300
0300
0300
ENDCHAR
STARTCHAR 0035
ENCODING 53
SWIDTH 514 0
DWIDTH 10 0
BBX 9 12 0 0
BITMAP
3F00
3F00
3000
3000
3E00
7F00
2380
0180
0180
6380
FF00
3E00
ENDCHAR
STARTCHAR 0036
ENCODING 54
SWIDTH 514 0
DWIDTH 10 0
BBX 8 12 1 0
BITMAP
1E
7F
62
C0
DC
FE
E3
C3
C3
E7
7E
3C
ENDCHAR
STARTCHAR 0037
ENCODING 55
SWIDTH 514 0
DWIDTH 10 0
BBX 8 12 1 0
BITMAP
FF
FF
06
04
0C
08
18
18
18
38
30
30
ENDCHAR
STARTCHAR 0038
ENCODING 56
SWIDTH 514 0
DWIDTH 10 0
BBX 8 12 1 0
BITMAP
3C
7E
C6
C3
7E
3C
7E
C7
C3
C7
FE
3C
ENDCHAR
STARTCHAR 0039
ENCODING 57
SWIDTH 514 0
DWIDTH 10 0
BBX 8 12 1 0
BITMAP
3C
FE
C6
C3
C3
C7
FF
7B
02
46
FC
78
ENDCHAR
STARTCHAR 003A
ENCODING 58
SWIDTH 257 0
DWIDTH 5 0
BBX 3 10 1 0
BITMAP
60
E0
60
00
00
00
00
60
E0
60
ENDCHAR
STARTCHAR 003B
ENCODING 59
SWIDTH 257 0
DWIDTH 5 0
BBX 3 13 1 -3
BITMAP
60
E0
60
00
00
00
00
60
E0
60
20
60
C0
ENDCHAR
STARTCHAR 003C
ENCODING 60
SWIDTH 514 0
DWIDTH 10 0
BBX 8 8 1 2
BITMAP
01
0F
3C
E0
E0
3C
0F
01
ENDCHAR
STARTCHAR 003D
ENCODING 61
SWIDTH 514 0
DWIDTH 10 0
BBX 8 6 1 3
BITMAP
FF
FF
00
00
FF
FF
ENDCHAR
STARTCHAR 003E
ENCODING 62
SWIDTH 514 0
DWIDTH 10 0
BBX 8 8 1 2
BITMAP
80
F0
3C
07
07
3C
F0
80
ENDCHAR
STARTCHAR 003F
ENCODING 63
SWIDTH 411 0
DWIDTH 8 0
BBX 7 13 1 0
BITMAP
78
FC
CE
0E
0C
1C
18
30
30
00
30
30
30
ENDCHAR
STARTCHAR 0040
ENCODING 64
SWIDTH 874 0
DWIDTH 17 0
BBX 15 16 1 -3
BITMAP
07E0
1FF8
3C18
300C
63E4
47C6
CCC6
CC46
8CC6
CCCC
CFFC
C778
6000
7040
3FE0
0F80
ENDCHAR
STARTCHAR 0041
ENCODING 65
SWIDTH 565 0
DWIDTH 11 0
BBX 11 12 0 0
BITMAP
0E00
0E00
1A00
1B00
3300
3300
3180
7F80
7F80
60C0
E0C0
C0E0
ENDCHAR
STARTCHAR 0042
ENCODING 66
SWIDTH 565 0
DWIDTH 11 0
BBX 9 12 2 0
BITMAP
FC00
FF00
C700
C300
C700
FE00
FF00
C300
C380
C380
FF00
FE00
ENDCHAR
STARTCHAR 0043
ENCODING 67
SWIDTH 565 0
DWIDTH 11 0
BBX 9 12 1 0
BITMAP
1F00
3F80
7180
E000
C000
C000
C000
C000
E000
7180
3F80
1F00
ENDCHAR
STARTCHAR 0044
ENCODING 68
SWIDTH 617 0
DWIDTH 12 0
BBX 9 12 2 0
BITMAP
FC00
FE00
C700
C380
C180
C180
C180
C180
C380
C700
FE00
FC00
ENDCHAR
STARTCHAR 0045
ENCODING 69
SWIDTH 514 0
DWIDTH 10 0
BBX 7 12 2 0
BITMAP
FE
FE
C0
C0
C0
FC
FC
C0
C0
C0
FE
FE
ENDCHAR
STARTCHAR 0046
ENCODING 70
SWIDTH 514 0
DWIDTH 10 0
BBX 7 12 2 0
BITMAP
FE
FE
C0
C0
C0
FC
FC
C0
C0
C0
C0
C0
ENDCHAR
STARTCHAR 0047
ENCODING 71
SWIDTH 617 0
DWIDTH 12 0
BBX 10 12 1 0
BITMAP
1F00
3F80
70C0
E000
C000
C7C0
C7C0
C0C0
E0C0
70C0
3FC0
1F00
ENDCHAR
STARTCHAR 0048
ENCODING 72
SWIDTH 668 0
DWIDTH 13 0
BBX 9 12 2 0
BITMAP
C180
C180
C180
C180
C180
FF80
FF80
C180
C180
C180
C180
C180
ENDCHAR
STARTCHAR 0049
ENCODING 73
SWIDTH 257 0
DWIDTH 5 0
BBX 2 12 2 0
BITMAP
C0
C0
C0
C0
C0
C0
C0
C0
C0
C0
C0
C0
ENDCHAR
STARTCHAR 004A
ENCODING 74
SWIDTH 462 0
DWIDTH 9 0
BBX 8 12 0 0
BITMAP
03
03
03
03
03
03
03
03
03
67
FE
3C
ENDCHAR
STARTCHAR 004B
ENCODING 75
SWIDTH 565 0
DWIDTH 11 0
BBX 9 12 2 0
BITMAP
C380
C600
CE00
DC00
D800
F800
EC00
EE00
C600
C700
C300
C180
ENDCHAR
STARTCHAR 004C
ENCODING 76
SWIDTH 514 0
DWIDTH 10 0
BBX 7 12 2 0
BITMAP
C0
C0
C0
C0
C0
C0
C0
C0
C0
C0
FE
FE
ENDCHAR
STARTCHAR 004D
ENCODING 77
SWIDTH 720 0
DWIDTH 14 0
BBX 11 12 2 0
BITMAP
C0E0
E0E0
E1E0
A160
B360
F360
DA60
DE60
DE60
CC60
CC60
C060
ENDCHAR
STARTCHAR 004E
ENCODING 78
SWIDTH 617 0
DWIDTH 12 0
BBX 9 12 2 0
BITMAP
C180
E180
E180
B180
F180
D980
DD80
CD80
C780
C780
C380
C380
ENDCHAR
STARTCHAR 004F
ENCODING 79
SWIDTH 668 0
DWIDTH 13 0
BBX 11 12 1 0
BITMAP
1F00
3F80
71C0
E0E0
C0E0
C060
C060
C0E0
E0C0
71C0
3F80
1F00
ENDCHAR
STARTCHAR 0050
ENCODING 80
SWIDTH 565 0
DWIDTH 11 0
BBX 8 12 2 0
BITMAP
FC
FF
C3
C3
C3
C7
FE
FC
C0
C0
C0
C0
ENDCHAR
STARTCHAR 0051
ENCODING 81
SWIDTH 668 0
DWIDTH 13 0
BBX 11 15 1 -3
BITMAP
1F00
3F80
71C0
E0E0
C0E0
C060
C060
C0E0
E0E0
71C0
7F80
1F00
0600
07E0
01E0
ENDCHAR
STARTCHAR 0052
ENCODING 82
SWIDTH 565 0
DWIDTH 11 0
BBX 9 12 2 0
BITMAP
FE00
FF00
C300
C300
C300
C700
FE00
FC00
CE00
C600
C700
C380
ENDCHAR
STARTCHAR 0053
ENCODING 83
SWIDTH 514 0
DWIDTH 10 0
BBX 9 12 1 0
BITMAP
3E00
7F00
E300
E000
7000
7C00
1F00
0380
0380
C380
FF00
3E00
ENDCHAR
STARTCHAR 0054
ENCODING 84
SWIDTH 514 0
DWIDTH 10 0
BBX 10 12 0 0
BITMAP
FFC0
FFC0
0C00
0C00
0C00
0C00
0C00
0C00
0C00
0C00
0C00
0C00
ENDCHAR
STARTCHAR 0055
ENCODING 85
SWIDTH 617 0
DWIDTH 12 0
BBX 9 12 2 0
BITMAP
C180
C180
C180
C180
C180
C180
C180
C180
C180
E300
7F00
3E00
ENDCHAR
STARTCHAR 0056
ENCODING 86
SWIDTH 514 0
DWIDTH 10 0
BBX 10 12 0 0
BITMAP
C0C0
E0C0
6180
6180
7180
3300
3300
3300
1B00
1E00
1E00
0E00
ENDCHAR
STARTCHAR 0057
ENCODING 87
SWIDTH 771 0
DWIDTH 15 0
BBX 15 12 0 0
BITMAP
E186
638E
638C
62CC
62CC
76CC
36CC
3658
3478
3C78
1C78
1C38
ENDCHAR
STARTCHAR 0058
ENCODING 88
SWIDTH 514 0
DWIDTH 10 0
BBX 10 12 0 0
BITMAP
E1C0
7180
3300
3B00
1E00
0E00
1E00
1E00
3300
3380
6180
E1C0
ENDCHAR
STARTCHAR 0059
ENCODING 89
SWIDTH 514 0
DWIDTH 10 0
BBX 10 12 0 0
BITMAP
E1C0
6180
6300
3300
3600
1E00
1C00
0C00
0C00
0C00
0C00
0C00
ENDCHAR
STARTCHAR 005A
ENCODING 90
SWIDTH 514 0
DWIDTH 10 0
BBX 9 12 1 0
BITMAP
FF80
FF00
0600
0600
0C00
1800
1800
3000
6000
6000
FF80
FF80
ENDCHAR
STARTCHAR 005B
ENCODING 91
SWIDTH 308 0
DWIDTH 6 0
BBX 3 17 2 -3
BITMAP
E0
E0
80
80
80
80
80
80
80
80
80
80
80
80
80
E0
E0
ENDCHAR
STARTCHAR 005C
ENCODING 92
SWIDTH 360 0
DWIDTH 7 0
BBX 6 17 0 -3
BITMAP
C0
40
60
60
20
20
30
30
10
10
18
18
08
08
0C
0C
04
ENDCHAR
STARTCHAR 005D
ENCODING 93
SWIDTH 308 0
DWIDTH 6 0
BBX 3 17 1 -3
BITMAP
E0
E0
20
20
20
20
20
20
20
20
20
20
20
20
20
E0
E0
ENDCHAR
STARTCHAR 005E
ENCODING 94
SWIDTH 514 0
DWIDTH 10 0
BBX 8 7 1 5
BITMAP
18
38
3C
2C
66
66
C3
ENDCHAR
STARTCHAR 005F
ENCODING 95
SWIDTH 514 0
DWIDTH 10 0
BBX 9 2 0 -3
BITMAP
FF80
FF80
ENDCHAR
STARTCHAR 0060
ENCODING 96
SWIDTH 514 0
DWIDTH 10 0
BBX 4 4 2 11
BITMAP
40
E0
70
10
ENDCHAR
STARTCHAR 0061
ENCODING 97
SWIDTH 514 0
DWIDTH 10 0
BBX 8 9 1 0
BITMAP
3C
FE
46
1F
67
C7
C7
FF
7B
ENDCHAR
STARTCHAR 0062
ENCODING 98
SWIDTH 565 0
DWIDTH 11 0
BBX 9 14 1 0
BITMAP
E000
E000
E000
E000
E000
FE00
FF00
E380
E180
E180
E380
E300
FF00
DE00
ENDCHAR
STARTCHAR 0063
ENCODING 99
SWIDTH 462 0
DWIDTH 9 0
BBX 7 9 1 0
BITMAP
3C
7E
E4
C0
C0
C0
E2
7E
3C
ENDCHAR
STARTCHAR 0064
ENCODING 100
SWIDTH 565 0
DWIDTH 11 0
BBX 8 14 1 0
BITMAP
03
03
03
03
03
3F
7F
E3
C3
C3
C3
E3
7F
3B
ENDCHAR
STARTCHAR 0065
ENCODING 101
SWIDTH 514 0
DWIDTH 10 0
BBX 8 9 1 0
BITMAP
3C
7E
E3
C3
FF
C0
E2
7E
3D
ENDCHAR
STARTCHAR 0066
ENCODING 102
SWIDTH 308 0
DWIDTH 6 0
BBX 6 14 1 0
BITMAP
3C
78
60
60
60
F8
F8
60
60
60
60
60
60
60
ENDCHAR
STARTCHAR 0067
ENCODING 103
SWIDTH 514 0
DWIDTH 10 0
BBX 9 13 1 -4
BITMAP
3F00
FF00
C600
C600
7E00
7C00
C000
C000
7F00
7F80
C380
FF00
7E00
ENDCHAR
STARTCHAR 0068
ENCODING 104
SWIDTH 565 0
DWIDTH 11 0
BBX 8 14 1 0
BITMAP
E0
E0
E0
E0
E0
EE
FF
E3
E3
E3
E3
E3
E3
E3
ENDCHAR
STARTCHAR 0069
ENCODING 105
SWIDTH 257 0
DWIDTH 5 0
BBX 3 13 1 0
BITMAP
E0
E0
00
00
E0
E0
E0
E0
E0
E0
E0
E0
E0
ENDCHAR
STARTCHAR 006A
ENCODING 106
SWIDTH 257 0
DWIDTH 5 0
BBX 5 17 -1 -4
BITMAP
38
38
00
00
38
38
38
38
38
38
38
38
38
38
38
F0
E0
ENDCHAR
STARTCHAR 006B
ENCODING 107
SWIDTH 514 0
DWIDTH 10 0
BBX 9 14 1 0
BITMAP
E000
E000
E000
E000
E000
E300
E600
EC00
F800
FC00
EC00
E600
E300
E380
ENDCHAR
STARTCHAR 006C
ENCODING 108
SWIDTH 257 0
DWIDTH 5 0
BBX 4 14 1 0
BITMAP
E0
E0
E0
E0
E0
E0
E0
E0
E0
E0
E0
E0
60
70
ENDCHAR
STARTCHAR 006D
ENCODING 109
SWIDTH 822 0
DWIDTH 16 0
BBX 14 9 1 0
BITMAP
DE78
FFF8
E39C
E30C
E30C
E30C
E30C
E30C
E30C
ENDCHAR
STARTCHAR 006E
ENCODING 110
SWIDTH 565 0
DWIDTH 11 0
BBX 8 9 1 0
BITMAP
DE
FF
E3
E3
E3
E3
E3
E3
E3
ENDCHAR
STARTCHAR 006F
ENCODING 111
SWIDTH 514 0
DWIDTH 10 0
BBX 9 9 1 0
BITMAP
3C00
7F00
E300
C380
C380
C380
E300
7F00
3C00
ENDCHAR
STARTCHAR 0070
ENCODING 112
SWIDTH 565 0
DWIDTH 11 0
BBX 9 13 1 -4
BITMAP
DE00
FF00
E380
E180
E180
E380
E380
FF00
FE00
E000
E000
E000
E000
ENDCHAR
STARTCHAR 0071
ENCODING 113
SWIDTH 565 0
DWIDTH 11 0
BBX 8 13 1 -4
BITMAP
3D
7F
E3
C3
C3
C3
E3
7F
3B
03
03
03
03
ENDCHAR
STARTCHAR 0072
ENCODING 114
SWIDTH 360 0
DWIDTH 7 0
BBX 6 9 1 0
BITMAP
DC
FC
E0
E0
E0
E0
E0
E0
E0
ENDCHAR
STARTCHAR 0073
ENCODING 115
SWIDTH 411 0
DWIDTH 8 0
BBX 8 9 0 0
BITMAP
3C
7E
62
70
3E
06
47
FE
3C
ENDCHAR
STARTCHAR 0074
ENCODING 116
SWIDTH 360 0
DWIDTH 7 0
BBX 7 12 0 0
BITMAP
30
30
30
FC
FC
30
30
30
30
30
3C
1E
ENDCHAR
STARTCHAR 0075
ENCODING 117
SWIDTH 565 0
DWIDTH 11 0
BBX 8 9 1 0
BITMAP
C3
C3
C3
C3
C3
C3
E7
7F
7B
ENDCHAR
STARTCHAR 0076
ENCODING 118
SWIDTH 462 0
DWIDTH 9 0
BBX 9 9 0 0
BITMAP
E180
6180
6300
7300
3300
3600
1600
1E00
1C00
ENDCHAR
STARTCHAR 0077
ENCODING 119
SWIDTH 720 0
DWIDTH 14 0
BBX 14 9 0 0
BITMAP
E30C
6398
6398
6798
3698
34F0
34F0
1CF0
1C70
ENDCHAR
STARTCHAR 0078
ENCODING 120
SWIDTH 462 0
DWIDTH 9 0
BBX 9 9 0 0
BITMAP
E380
7300
3600
1E00
1C00
3E00
3600
6300
E380
ENDCHAR
STARTCHAR 0079
ENCODING 121
SWIDTH 462 0
DWIDTH 9 0
BBX 9 13 0 -4
BITMAP
E180
6180
6300
3300
3300
3600
1E00
1E00
0C00
0C00
1800
7800
7000
ENDCHAR
STARTCHAR 007A
ENCODING 122
SWIDTH 411 0
DWIDTH 8 0
BBX 7 9 1 0
BITMAP
FE
FC
0C
18
30
70
60
FE
FE
ENDCHAR
STARTCHAR 007B
ENCODING 123
SWIDTH 308 0
DWIDTH 6 0
BBX 4 17 1 -3
BITMAP
30
70
60
60
60
60
60
60
E0
E0
60
60
60
60
60
70
30
ENDCHAR
STARTCHAR 007C
ENCODING 124
SWIDTH 257 0
DWIDTH 5 0
BBX 1 19 2 -5
BITMAP
80
80
80
80
80
80
80
80
80
80
80
80
80
80
80
80
80
80
80
ENDCHAR
STARTCHAR 007D
ENCODING 125
SWIDTH 308 0
DWIDTH 6 0
BBX 5 17 1 -3
BITMAP
C0
E0
60
60
60
60
60
60
38
38
60
60
60
60
60
E0
C0
ENDCHAR
STARTCHAR 007E
ENCODING 126
SWIDTH 514 0
DWIDTH 10 0
BBX 8 4 1 4
BITMAP
60
F9
9F
0E
ENDCHAR
STARTCHAR 00A0
ENCODING 160
SWIDTH 205 0
DWIDTH 4 0
BBX 0 0 0 0
BITMAP
ENDCHAR
STARTCHAR 00A1
ENCODING 161
SWIDTH 308 0
DWIDTH 6 0
BBX 2 13 2 -4
BITMAP
C0
C0
C0
00
C0
C0
C0
C0
C0
C0
C0
C0
C0
ENDCHAR
STARTCHAR 00A2
ENCODING 162
SWIDTH 514 0
DWIDTH 10 0
BBX 8 14 1 -1
BITMAP
08
08
1E
7F
6A
E8
C8
C8
E8
6A
7F
1E
08
08
ENDCHAR
STARTCHAR 00A3
ENCODING 163
SWIDTH 514 0
DWIDTH 10 0
BBX 8 12 1 0
BITMAP
1E
3F
72
60
60
FC
FC
30
30
20
7F
FF
ENDCHAR
STARTCHAR 00A4
ENCODING 164
SWIDTH 514 0
DWIDTH 10 0
BBX 9 10 0 1
BITMAP
4100
FF80
7F00
7380
6180
6180
7380
7F00
7F80
C100
ENDCHAR
STARTCHAR 00A5
ENCODING 165
SWIDTH 514 0
DWIDTH 10 0
BBX 9 12 0 0
BITMAP
E180
6180
3300
3300
1600
1E00
7F80
0C00
7F80
0C00
0C00
0C00
ENDCHAR
STARTCHAR 00A6
ENCODING 166
SWIDTH 257 0
DWIDTH 5 0
BBX 1 19 2 -5
BITMAP
80
80
80
80
80
80
80
80
80
00
80
80
80
80
80
80
80
80
80
ENDCHAR
STARTCHAR 00A7
ENCODING 167
SWIDTH 514 0
DWIDTH 10 0
BBX 8 15 1 -2
BITMAP
3C
7E
64
60
78
DE
C6
C3
F3
7F
1E
06
46
FE
3C
ENDCHAR
STARTCHAR 00A8
ENCODING 168
SWIDTH 514 0
DWIDTH 10 0
BBX 6 2 2 11
BITMAP
CC
CC
ENDCHAR
STARTCHAR 00A9
ENCODING 169
SWIDTH 720 0
DWIDTH 14 0
BBX 12 12 1 0
BITMAP
1F80
3FC0
7060
C030
8F10
9F90
9F90
8F10
C030
7060
3FC0
0F80
ENDCHAR
STARTCHAR 00AA
ENCODING 170
SWIDTH 360 0
DWIDTH 7 0
BBX 5 7 1 7
BITMAP
F0
98
18
78
D8
98
F8
ENDCHAR
STARTCHAR 00AB
ENCODING 171
SWIDTH 462 0
DWIDTH 9 0
BBX 7 7 1 1
BITMAP
24
6E
D8
90
D8
6C
26
ENDCHAR
STARTCHAR 00AC
ENCODING 172
SWIDTH 514 0
DWIDTH 10 0
BBX 8 6 1 1
BITMAP
FF
FF
03
03
03
03
ENDCHAR
STARTCHAR 00AD
ENCODING 173
SWIDTH 308 0
DWIDTH 6 0
BBX 4 2 1 4
BITMAP
F0
F0
ENDCHAR
STARTCHAR 00AE
ENCODING 174
SWIDTH 411 0
DWIDTH 8 0
BBX 7 8 1 6
BITMAP
78
C4
BA
AA
B2
AA
C4
78
ENDCHAR
STARTCHAR 00AF
ENCODING 175
SWIDTH 514 0
DWIDTH 10 0
BBX 5 1 3 11
BITMAP
F8
ENDCHAR
STARTCHAR 00B0
ENCODING 176
SWIDTH 360 0
DWIDTH 7 0
BBX 5 6 1 7
BITMAP
70
F8
88
88
F8
70
ENDCHAR
STARTCHAR 00B1
ENCODING 177
SWIDTH 514 0
DWIDTH 10 0
BBX 8 10 1 0
BITMAP
18
18
18
FF
FF
18
18
18
FF
FF
ENDCHAR
STARTCHAR 00B2
ENCODING 178
SWIDTH 360 0
DWIDTH 7 0
BBX 5 8 1 7
BITMAP
F0
98
18
18
30
70
E0
F8
ENDCHAR
STARTCHAR 00B3
ENCODING 179
SWIDTH 360 0
DWIDTH 7 0
BBX 5 8 1 7
BITMAP
70
98
18
18
30
38
88
F0
ENDCHAR
STARTCHAR 00B4
ENCODING 180
SWIDTH 514 0
DWIDTH 10 0
BBX 4 4 4 11
BITMAP
20
70
60
C0
ENDCHAR
STARTCHAR 00B5
ENCODING 181
SWIDTH 565 0
DWIDTH 11 0
BBX 10 12 1 -3
BITMAP
E300
E300
E300
E300
E300
E300
E700
FFC0
D9C0
C000
C000
E000
ENDCHAR
STARTCHAR 00B6
ENCODING 182
SWIDTH 565 0
DWIDTH 11 0
BBX 9 14 1 -2
BITMAP
3B80
7B80
FB80
FB80
FB80
FB80
FB80
7B80
0380
0380
0380
0380
0380
0380
ENDCHAR
STARTCHAR 00B7
ENCODING 183
SWIDTH 257 0
DWIDTH 5 0
BBX 3 3 1 5
BITMAP
60
E0
60
ENDCHAR
STARTCHAR 00B8
ENCODING 184
SWIDTH 514 0
DWIDTH 10 0
BBX 4 5 3 -5
BITMAP
60
60
30
30
E0
ENDCHAR
STARTCHAR 00B9
ENCODING 185
SWIDTH 360 0
DWIDTH 7 0
BBX 3 7 2 7
BITMAP
60
E0
60
60
60
60
60
ENDCHAR
STARTCHAR 00BA
ENCODING 186
SWIDTH 360 0
DWIDTH 7 0
BBX 5 7 1 7
BITMAP
70
D8
88
88
88
D8
70
ENDCHAR
STARTCHAR 00BB
ENCODING 187
SWIDTH 462 0
DWIDTH 9 0
BBX 7 7 1 1
BITMAP
88
5C
66
26
66
4C
98
ENDCHAR
STARTCHAR 00BC
ENCODING 188
SWIDTH 771 0
DWIDTH 15 0
BBX 14 13 1 0
BITMAP
0060
60C0
E080
2180
2100
2300
2238
2638
0458
0CD8
08FC
1818
3018
ENDCHAR
STARTCHAR 00BD
ENCODING 189
SWIDTH 822 0
DWIDTH 16 0
BBX 14 13 1 0
BITMAP
0040
6080
E080
2100
2100
2278
22C8
240C
0C08
0818
1830
1070
307C
ENDCHAR
STARTCHAR 00BE
ENCODING 190
SWIDTH 771 0
DWIDTH 15 0
BBX 14 13 1 0
BITMAP
7020
9840
1840
1880
3180
3900
8B18
F238
0678
04D8
0CFC
0818
1818
ENDCHAR
STARTCHAR 00BF
ENCODING 191
SWIDTH 411 0
DWIDTH 8 0
BBX 7 13 1 -4
BITMAP
38
38
38
00
18
30
30
60
C0
C0
C4
FE
78
ENDCHAR
STARTCHAR 00C0
ENCODING 192
SWIDTH 565 0
DWIDTH 11 0
BBX 11 18 0 0
BITMAP
1000
3800
0C00
0600
0000
0000
0E00
0E00
1A00
1B00
3300
3300
3180
7F80
7F80
60C0
E0C0
C0E0
ENDCHAR
STARTCHAR 00C1
ENCODING 193
SWIDTH 565 0
DWIDTH 11 0
BBX 11 18 0 0
BITMAP
0200
0700
0E00
0400
0000
0000
0E00
0E00
1A00
1B00
3300
3300
3180
7F80
7F80
60C0
E0C0
C0E0
ENDCHAR
STARTCHAR 00C2
ENCODING 194
SWIDTH 565 0
DWIDTH 11 0
BBX 11 17 0 0
BITMAP
0E00
1B00
3100
0000
0000
0E00
0E00
1A00
1B00
3300
3300
3180
7F80
7F80
60C0
E0C0
C0E0
ENDCHAR
STARTCHAR 00C3
ENCODING 195
SWIDTH 565 0
DWIDTH 11 0
BBX 11 18 0 0
BITMAP
1900
3D80
3F80
2700
0000
0000
0E00
0E00
1A00
1B00
3300
3300
3180
7F80
7F80
60C0
E0C0
C0E0
ENDCHAR
STARTCHAR 00C4
ENCODING 196
SWIDTH 565 0
DWIDTH 11 0
BBX 11 16 0 0
BITMAP
3300
3300
0000
0000
0E00
0E00
1A00
1B00
3300
3300
3180
7F80
7F80
60C0
E0C0
C0E0
ENDCHAR
STARTCHAR 00C5
ENCODING 197
SWIDTH 565 0
DWIDTH 11 0
BBX 11 17 0 0
BITMAP
0E00
1200
1200
0E00
0000
0E00
0E00
1A00
1B00
3300
3300
3180
7F80
7F80
60C0
E0C0
C0E0
ENDCHAR
STARTCHAR 00C6
ENCODING 198
SWIDTH 822 0
DWIDTH 16 0
BBX 15 12 0 0
BITMAP
03FE
07FE
07C0
0DC0
0DC0
19FC
19FC
3FC0
3FC0
71C0
61FE
E1FE
ENDCHAR
STARTCHAR 00C7
ENCODING 199
SWIDTH 565 0
DWIDTH 11 0
BBX 9 17 1 -5
BITMAP
1F00
3F80
7180
E000
C000
C000
C000
C000
E000
7180
3F80
1F00
0400
0E00
0600
0600
0C00
ENDCHAR
STARTCHAR 00C8
ENCODING 200
SWIDTH 514 0
DWIDTH 10 0
BBX 7 18 2 0
BITMAP
40
60
30
18
00
00
FE
FE
C0
C0
C0
FC
FC
C0
C0
C0
FE
FE
ENDCHAR
STARTCHAR 00C9
ENCODING 201
SWIDTH 514 0
DWIDTH 10 0
BBX 7 18 2 0
BITMAP
04
0C
18
30
00
00
FE
FE
C0
C0
C0
FC
FC
C0
C0
C0
FE
FE
ENDCHAR
STARTCHAR 00CA
ENCODING 202
SWIDTH 514 0
DWIDTH 10 0
BBX 7 17 2 0
BITMAP
38
6C
C4
00
00
FE
FE
C0
C0
C0
FC
FC
C0
C0
C0
FE
FE
ENDCHAR
STARTCHAR 00CB
ENCODING 203
SWIDTH 514 0
DWIDTH 10 0
BBX 7 16 2 0
BITMAP
CC
EE
00
00
FE
FE
C0
C0
C0
FC
FC
C0
C0
C0
FE
FE
ENDCHAR
STARTCHAR 00CC
ENCODING 204
SWIDTH 257 0
DWIDTH 5 0
BBX 4 18 0 0
BITMAP
80
E0
70
20
00
00
30
30
30
30
30
30
30
30
30
30
30
30
ENDCHAR
STARTCHAR 00CD
ENCODING 205
SWIDTH 257 0
DWIDTH 5 0
BBX 5 18 1 0
BITMAP
10
38
60
C0
00
00
60
60
60
60
60
60
60
60
60
60
60
60
ENDCHAR
STARTCHAR 00CE
ENCODING 206
SWIDTH 257 0
DWIDTH 5 0
BBX 6 17 0 0
BITMAP
70
D8
8C
00
00
30
30
30
30
30
30
30
30
30
30
30
30
ENDCHAR
STARTCHAR 00CF
ENCODING 207
SWIDTH 257 0
DWIDTH 5 0
BBX 6 16 0 0
BITMAP
CC
CC
00
00
30
30
30
30
30
30
30
30
30
30
30
30
ENDCHAR
STARTCHAR 00D0
ENCODING 208
SWIDTH 617 0
DWIDTH 12 0
BBX 10 12 1 0
BITMAP
7E00
7F80
63C0
60C0
FCC0
FCC0
60C0
60C0
60C0
63C0
7F80
7E00
ENDCHAR
STARTCHAR 00D1
ENCODING 209
SWIDTH 617 0
DWIDTH 12 0
BBX 9 18 2 0
BITMAP
3200
7B00
7F00
4E00
0000
0000
C180
E180
E180
B180
F180
D980
DD80
CD80
C780
C780
C380
C380
ENDCHAR
STARTCHAR 00D2
ENCODING 210
SWIDTH 668 0
DWIDTH 13 0
BBX 11 18 1 0
BITMAP
1000
1800
2C00
0600
0000
0000
1F00
3F80
71C0
E0E0
C0E0
C060
C060
C0E0
E0C0
71C0
3F80
1F00
ENDCHAR
STARTCHAR 00D3
ENCODING 211
SWIDTH 668 0
DWIDTH 13 0
BBX 11 18 1 0
BITMAP
0100
0300
0E00
0400
0000
0000
1F00
3F80
71C0
E0E0
C0E0
C060
C060
C0E0
E0C0
71C0
3F80
1F00
ENDCHAR
STARTCHAR 00D4
ENCODING 212
SWIDTH 668 0
DWIDTH 13 0
BBX 11 17 1 0
BITMAP
0E00
1B00
3100
0000
0000
1F00
3F80
71C0
E0E0
C0E0
C060
C060
C0E0
E0C0
71C0
3F80
1F00
ENDCHAR
STARTCHAR 00D5
ENCODING 213
SWIDTH 668 0
DWIDTH 13 0
BBX 11 18 1 0
BITMAP
1900
3D80
3780
2300
0000
0000
1F00
3F80
71C0
E0E0
C0E0
C060
C060
C0E0
E0C0
71C0
3F80
1F00
ENDCHAR
STARTCHAR 00D6
ENCODING 214
SWIDTH 668 0
DWIDTH 13 0
BBX 11 16 1 0
BITMAP
3300
3B80
0000
0000
1F00
3F80
71C0
E0E0
C0E0
C060
C060
C0E0
E0C0
71C0
3F80
1F00
ENDCHAR
STARTCHAR 00D7
ENCODING 215
SWIDTH 514 0
DWIDTH 10 0
BBX 8 8 1 2
BITMAP
42
E7
6C
38
38
6C
E6
43
ENDCHAR
STARTCHAR 00D8
ENCODING 216
SWIDTH 668 0
DWIDTH 13 0
BBX 11 14 1 -1
BITMAP
0040
1F60
3FC0
71C0
E1E0
C3E0
C660
CC60
D8E0
F0E0
71C0
7F80
DF00
8000
ENDCHAR
STARTCHAR 00D9
ENCODING 217
SWIDTH 617 0
DWIDTH 12 0
BBX 9 18 2 0
BITMAP
2000
7000
1800
0800
0000
0000
C180
C180
C180
C180
C180
C180
C180
C180
C180
E300
7F00
3E00
ENDCHAR
STARTCHAR 00DA
ENCODING 218
SWIDTH 617 0
DWIDTH 12 0
BBX 9 18 2 0
BITMAP
0400
0E00
1C00
0800
0000
0000
C180
C180
C180
C180
C180
C180
C180
C180
C180
E300
7F00
3E00
ENDCHAR
STARTCHAR 00DB
ENCODING 219
SWIDTH 617 0
DWIDTH 12 0
BBX 9 17 2 0
BITMAP
1C00
3600
6200
0000
0000
C180
C180
C180
C180
C180
C180
C180
C180
C180
E300
7F00
3E00
ENDCHAR
STARTCHAR 00DC
ENCODING 220
SWIDTH 617 0
DWIDTH 12 0
BBX 9 16 2 0
BITMAP
6600
6600
0000
0000
C180
C180
C180
C180
C180
C180
C180
C180
C180
E300
7F00
3E00
ENDCHAR
STARTCHAR 00DD
ENCODING 221
SWIDTH 514 0
DWIDTH 10 0
BBX 10 18 0 0
BITMAP
0200
0700
0C00
0800
0000
0000
E1C0
6180
6300
3300
3600
1E00
1C00
0C00
0C00
0C00
0C00
0C00
ENDCHAR
STARTCHAR 00DE
ENCODING 222
SWIDTH 565 0
DWIDTH 11 0
BBX 8 12 2 0
BITMAP
C0
FC
FF
C3
C3
C3
C3
C7
FF
FC
C0
C0
ENDCHAR
STARTCHAR 00DF
ENCODING 223
SWIDTH 565 0
DWIDTH 11 0
BBX 10 14 1 0
BITMAP
3E00
7F00
6300
E300
E300
E600
EC00
EE00
E780
E1C0
E0C0
E8C0
EFC0
E780
ENDCHAR
STARTCHAR 00E0
ENCODING 224
SWIDTH 514 0
DWIDTH 10 0
BBX 8 15 1 0
BITMAP
20
70
38
08
00
00
3C
FE
46
1F
67
C7
C7
FF
7B
ENDCHAR
STARTCHAR 00E1
ENCODING 225
SWIDTH 514 0
DWIDTH 10 0
BBX 8 15 1 0
BITMAP
04
0E
1C
08
00
00
3C
FE
46
1F
67
C7
C7
FF
7B
ENDCHAR
STARTCHAR 00E2
ENCODING 226
SWIDTH 514 0
DWIDTH 10 0
BBX 8 14 1 0
BITMAP
1C
3E
42
00
00
3C
FE
46
1F
67
C7
C7
FF
7B
ENDCHAR
STARTCHAR 00E3
ENCODING 227
SWIDTH 514 0
DWIDTH 10 0
BBX 8 15 1 0
BITMAP
33
7A
5E
4E
00
00
3C
FE
46
1F
67
C7
C7
FF
7B
ENDCHAR
STARTCHAR 00E4
ENCODING 228
SWIDTH 514 0
DWIDTH 10 0
BBX 8 13 1 0
BITMAP
66
66
00
00
3C
FE
46
1F
67
C7
C7
FF
7B
ENDCHAR
STARTCHAR 00E5
ENCODING 229
SWIDTH 514 0
DWIDTH 10 0
BBX 8 15 1 0
BITMAP
3C
24
24
3C
00
00
3C
FE
46
1F
67
C7
C7
FF
7B
ENDCHAR
STARTCHAR 00E6
ENCODING 230
SWIDTH 771 0
DWIDTH 15 0
BBX 13 9 1 0
BITMAP
3CF0
FFF8
4718
1F18
67F8
C300
C710
FFF8
78F0
ENDCHAR
STARTCHAR 00E7
ENCODING 231
SWIDTH 462 0
DWIDTH 9 0
BBX 7 14 1 -5
BITMAP
3C
7E
E4
C0
C0
C0
E2
7E
3C
18
18
0C
0C
38
ENDCHAR
STARTCHAR 00E8
ENCODING 232
SWIDTH 514 0
DWIDTH 10 0
BBX 8 15 1 0
BITMAP
20
70
38
08
00
00
3C
7E
E3
C3
FF
C0
E2
7E
3D
ENDCHAR
STARTCHAR 00E9
ENCODING 233
SWIDTH 514 0
DWIDTH 10 0
BBX 8 15 1 0
BITMAP
04
0E
1C
18
00
00
3C
7E
E3
C3
FF
C0
E2
7E
3D
ENDCHAR
STARTCHAR 00EA
ENCODING 234
SWIDTH 514 0
DWIDTH 10 0
BBX 8 14 1 0
BITMAP
1C
3E
42
00
00
3C
7E
E3
C3
FF
C0
E2
7E
3D
ENDCHAR
STARTCHAR 00EB
ENCODING 235
SWIDTH 514 0
DWIDTH 10 0
BBX 8 13 1 0
BITMAP
66
66
00
00
3C
7E
E3
C3
FF
C0
E2
7E
3D
ENDCHAR
STARTCHAR 00EC
ENCODING 236
SWIDTH 257 0
DWIDTH 5 0
BBX 5 15 -1 0
BITMAP
40
E0
30
18
00
00
38
38
38
38
38
38
38
38
38
ENDCHAR
STARTCHAR 00ED
ENCODING 237
SWIDTH 257 0
DWIDTH 5 0
BBX 5 15 1 0
BITMAP
10
38
60
C0
00
00
E0
E0
E0
E0
E0
E0
E0
E0
E0
ENDCHAR
STARTCHAR 00EE
ENCODING 238
SWIDTH 257 0
DWIDTH 5 0
BBX 7 14 -1 0
BITMAP
38
6C
C6
00
00
38
38
38
38
38
38
38
38
38
ENDCHAR
STARTCHAR 00EF
ENCODING 239
SWIDTH 257 0
DWIDTH 5 0
BBX 7 13 -1 0
BITMAP
6C
EE
00
00
38
38
38
38
38
38
38
38
38
ENDCHAR
STARTCHAR 00F0
ENCODING 240
SWIDTH 514 0
DWIDTH 10 0
BBX 8 14 1 0
BITMAP
21
7F
1C
3E
46
03
7F
FF
C3
C3
C3
E3
7E
3C
ENDCHAR
STARTCHAR 00F1
ENCODING 241
SWIDTH 565 0
DWIDTH 11 0
BBX 8 15 1 0
BITMAP
31
39
6F
66
00
00
DE
FF
E3
E3
E3
E3
E3
E3
E3
ENDCHAR
STARTCHAR 00F2
ENCODING 242
SWIDTH 514 0
DWIDTH 10 0
BBX 9 15 1 0
BITMAP
2000
7000
3800
0800
0000
0000
3C00
7F00
E300
C380
C380
C380
E300
7F00
3C00
ENDCHAR
STARTCHAR 00F3
ENCODING 243
SWIDTH 514 0
DWIDTH 10 0
BBX 9 15 1 0
BITMAP
0400
0E00
0C00
1800
0000
0000
3C00
7F00
E300
C380
C380
C380
E300
7F00
3C00
ENDCHAR
STARTCHAR 00F4
ENCODING 244
SWIDTH 514 0
DWIDTH 10 0
BBX 9 14 1 0
BITMAP
1C00
3600
6200
0000
0000
3C00
7F00
E300
C380
C380
C380
E300
7F00
3C00
ENDCHAR
STARTCHAR 00F5
ENCODING 245
SWIDTH 514 0
DWIDTH 10 0
BBX 9 15 1 0
BITMAP
3300
7B00
4E00
4E00
0000
0000
3C00
7F00
E300
C380
C380
C380
E300
7F00
3C00
ENDCHAR
STARTCHAR 00F6
ENCODING 246
SWIDTH 514 0
DWIDTH 10 0
BBX 9 13 1 0
BITMAP
6600
6600
0000
0000
3C00
7F00
E300
C380
C380
C380
E300
7F00
3C00
ENDCHAR
STARTCHAR 00F7
ENCODING 247
SWIDTH 514 0
DWIDTH 10 0
BBX 8 9 1 2
BITMAP
18
18
00
00
FF
FF
00
18
18
ENDCHAR
STARTCHAR 00F8
ENCODING 248
SWIDTH 514 0
DWIDTH 10 0
BBX 9 9 1 0
BITMAP
3D80
7F00
E700
CF80
D980
D380
E300
7F00
BC00
ENDCHAR
STARTCHAR 00F9
ENCODING 249
SWIDTH 565 0
DWIDTH 11 0
BBX 8 15 1 0
BITMAP
20
70
18
08
00
00
C3
C3
C3
C3
C3
C3
E7
7F
7B
ENDCHAR
STARTCHAR 00FA
ENCODING 250
SWIDTH 565 0
DWIDTH 11 0
BBX 8 15 1 0
BITMAP
02
06
0C
18
00
00
C3
C3
C3
C3
C3
C3
E7
7F
7B
ENDCHAR
STARTCHAR 00FB
ENCODING 251
SWIDTH 565 0
DWIDTH 11 0
BBX 8 14 1 0
BITMAP
1C
36
63
00
00
C3
C3
C3
C3
C3
C3
E7
7F
7B
ENDCHAR
STARTCHAR 00FC
ENCODING 252
SWIDTH 565 0
DWIDTH 11 0
BBX 8 13 1 0
BITMAP
66
76
00
00
C3
C3
C3
C3
C3
C3
E7
7F
7B
ENDCHAR
STARTCHAR 00FD
ENCODING 253
SWIDTH 462 0
DWIDTH 9 0
BBX 9 19 0 -4
BITMAP
0200
0700
0E00
0800
0000
0000
E180
6180
6300
3300
3300
3600
1E00
1E00
0C00
0C00
1800
7800
7000
ENDCHAR
STARTCHAR 00FE
ENCODING 254
SWIDTH 565 0
DWIDTH 11 0
BBX 9 18 1 -4
BITMAP
E000
E000
E000
E000
E000
FE00
FF00
E380
E180
E180
E380
E380
FF00
FE00
E000
E000
E000
E000
ENDCHAR
STARTCHAR 00FF
ENCODING 255
SWIDTH 462 0
DWIDTH 9 0
BBX 9 17 0 -4
BITMAP
3300
3300
0000
0000
E180
6180
6300
3300
3300
3600
1E00
1E00
0C00
0C00
1800
7800
7000
ENDCHAR
STARTCHAR 0100
ENCODING 256
SWIDTH 565 0
DWIDTH 11 0
BBX 11 15 0 0
BITMAP
1F00
0000
0000
0E00
0E00
1A00
1B00
3300
3300
3180
7F80
7F80
60C0
E0C0
C0E0
ENDCHAR
STARTCHAR 0101
ENCODING 257
SWIDTH 514 0
DWIDTH 10 0
BBX 8 12 1 0
BITMAP
7E
00
00
3C
FE
46
1F
67
C7
C7
FF
7B
ENDCHAR
STARTCHAR 0102
ENCODING 258
SWIDTH 565 0
DWIDTH 11 0
BBX 11 16 0 0
BITMAP
3100
1E00
0000
0000
0E00
0E00
1A00
1B00
3300
3300
3180
7F80
7F80
60C0
E0C0
C0E0
ENDCHAR
STARTCHAR 0103
ENCODING 259
SWIDTH 514 0
DWIDTH 10 0
BBX 8 14 1 0
BITMAP
42
66
3C
00
00
3C
FE
46
1F
67
C7
C7
FF
7B
ENDCHAR
STARTCHAR 0104
ENCODING 260
SWIDTH 565 0
DWIDTH 11 0
BBX 11 16 0 -4
BITMAP
0E00
0E00
1A00
1B00
3300
3300
3180
7F80
7F80
60C0
E0C0
C0C0
00E0
0080
0180
00E0
ENDCHAR
STARTCHAR 0105
ENCODING 261
SWIDTH 514 0
DWIDTH 10 0
BBX 8 13 1 -4
BITMAP
3C
FE
46
1F
67
C7
C7
FF
7B
06
04
0C
07
ENDCHAR
STARTCHAR 0106
ENCODING 262
SWIDTH 565 0
DWIDTH 11 0
BBX 9 18 1 0
BITMAP
0100
0300
0E00
0400
0000
0000
1F00
3F80
7180
E000
C000
C000
C000
C000
E000
7180
3F80
1F00
ENDCHAR
STARTCHAR 0107
ENCODING 263
SWIDTH 462 0
DWIDTH 9 0
BBX 8 15 1 0
BITMAP
02
07
0C
18
00
00
3C
7E
E4
C0
C0
C0
E2
7E
3C
ENDCHAR
STARTCHAR 0108
ENCODING 264
SWIDTH 565 0
DWIDTH 11 0
BBX 9 17 1 0
BITMAP
0E00
1B00
3100
0000
0000
1F00
3F80
7180
E000
C000
C000
C000
C000
E000
7180
3F80
1F00
ENDCHAR
STARTCHAR 0109
ENCODING 265
SWIDTH 462 0
DWIDTH 9 0
BBX 8 14 1 0
BITMAP
1C
36
63
00
00
3C
7E
E4
C0
C0
C0
E2
7E
3C
ENDCHAR
STARTCHAR 010A
ENCODING 266
SWIDTH 565 0
DWIDTH 11 0
BBX 9 16 1 0
BITMAP
0E00
0E00
0000
0000
1F00
3F80
7180
E000
C000
C000
C000
C000
E000
7180
3F80
1F00
ENDCHAR
STARTCHAR 010B
ENCODING 267
SWIDTH 462 0
DWIDTH 9 0
BBX 7 13 1 0
BITMAP
1C
1C
00
00
3C
7E
E4
C0
C0
C0
E2
7E
3C
ENDCHAR
STARTCHAR 010C
ENCODING 268
SWIDTH 565 0
DWIDTH 11 0
BBX 9 17 1 0
BITMAP
1100
3B00
0E00
0000
0000
1F00
3F80
7180
E000
C000
C000
C000
C000
E000
7180
3F80
1F00
ENDCHAR
STARTCHAR 010D
ENCODING 269
SWIDTH 462 0
DWIDTH 9 0
BBX 8 14 1 0
BITMAP
62
37
1C
00
00
3C
7E
E4
C0
C0
C0
E2
7E
3C
ENDCHAR
STARTCHAR 010E
ENCODING 270
SWIDTH 617 0
DWIDTH 12 0
BBX 9 17 2 0
BITMAP
4600
3C00
3C00
0000
0000
FC00
FE00
C700
C380
C180
C180
C180
C180
C380
C700
FE00
FC00
ENDCHAR
STARTCHAR 010F
ENCODING 271
SWIDTH 565 0
DWIDTH 11 0
BBX 11 14 1 0
BITMAP
0360
0360
0340
0340
0300
3F00
7F00
E300
C300
C300
C300
E300
7F00
3B00
ENDCHAR
STARTCHAR 0110
ENCODING 272
SWIDTH 617 0
DWIDTH 12 0
BBX 10 12 1 0
BITMAP
7E00
7F80
63C0
60C0
FCC0
FCC0
60C0
60C0
60C0
63C0
7F80
7E00
ENDCHAR
STARTCHAR 0111
ENCODING 273
SWIDTH 565 0
DWIDTH 11 0
BBX 10 14 1 0
BITMAP
0300
0300
1FC0
1FC0
0300
0300
3F00
7F00
E300
C300
C300
E300
7F00
3F00
ENDCHAR
STARTCHAR 0112
ENCODING 274
SWIDTH 514 0
DWIDTH 10 0
BBX 7 15 2 0
BITMAP
7C
00
00
FE
FE
C0
C0
C0
FC
FC
C0
C0
C0
FE
FE
ENDCHAR
STARTCHAR 0113
ENCODING 275
SWIDTH 514 0
DWIDTH 10 0
BBX 8 12 1 0
BITMAP
7E
00
00
3C
7E
E3
C3
FF
C0
E2
7E
3D
ENDCHAR
STARTCHAR 0114
ENCODING 276
SWIDTH 514 0
DWIDTH 10 0
BBX 7 16 2 0
BITMAP
44
7C
00
00
FE
FE
C0
C0
C0
FC
FC
C0
C0
C0
FE
FE
ENDCHAR
STARTCHAR 0115
ENCODING 277
SWIDTH 514 0
DWIDTH 10 0
BBX 8 14 1 0
BITMAP
42
66
3C
00
00
3C
7E
E3
C3
FF
C0
E2
7E
3D
ENDCHAR
STARTCHAR 0116
ENCODING 278
SWIDTH 514 0
DWIDTH 10 0
BBX 7 16 2 0
BITMAP
38
38
00
00
FE
FE
C0
C0
C0
FC
FC
C0
C0
C0
FE
FE
ENDCHAR
STARTCHAR 0117
ENCODING 279
SWIDTH 514 0
DWIDTH 10 0
BBX 8 13 1 0
BITMAP
18
18
00
00
3C
7E
E3
C3
FF
C0
E2
7E
3D
ENDCHAR
STARTCHAR 0118
ENCODING 280
SWIDTH 514 0
DWIDTH 10 0
BBX 8 16 2 -4
BITMAP
FE
FE
C0
C0
C0
FC
FC
C0
C0
C0
FE
FE
04
0C
0C
0F
ENDCHAR
STARTCHAR 0119
ENCODING 281
SWIDTH 514 0
DWIDTH 10 0
BBX 8 13 1 -4
BITMAP
3C
7E
E3
C3
FF
C0
E2
7E
3F
04
0C
0C
0F
ENDCHAR
STARTCHAR 011A
ENCODING 282
SWIDTH 514 0
DWIDTH 10 0
BBX 7 17 2 0
BITMAP
44
EC
38
00
00
FE
FE
C0
C0
C0
FC
FC
C0
C0
C0
FE
FE
ENDCHAR
STARTCHAR 011B
ENCODING 283
SWIDTH 514 0
DWIDTH 10 0
BBX 8 14 1 0
BITMAP
42
3E
1C
00
00
3C
7E
E3
C3
FF
C0
E2
7E
3D
ENDCHAR
STARTCHAR 011C
ENCODING 284
SWIDTH 617 0
DWIDTH 12 0
BBX 10 17 1 0
BITMAP
0E00
1B00
1180
0000
0000
1F00
3F80
70C0
E000
C000
C7C0
C7C0
C0C0
E0C0
70C0
3FC0
1F00
ENDCHAR
STARTCHAR 011D
ENCODING 285
SWIDTH 514 0
DWIDTH 10 0
BBX 9 18 1 -4
BITMAP
1C00
3600
6200
0000
0000
3F00
FF00
C600
C600
7E00
7C00
C000
C000
7F00
7F80
C380
FF00
7E00
ENDCHAR
STARTCHAR 011E
ENCODING 286
SWIDTH 617 0
DWIDTH 12 0
BBX 10 16 1 0
BITMAP
1180
0F00
0000
0000
1F00
3F80
70C0
E000
C000
C7C0
C7C0
C0C0
E0C0
70C0
3FC0
1F00
ENDCHAR
STARTCHAR 011F
ENCODING 287
SWIDTH 514 0
DWIDTH 10 0
BBX 9 18 1 -4
BITMAP
4200
6600
3C00
0000
0000
3F00
FF00
C600
C600
7E00
7C00
C000
C000
7F00
7F80
C380
FF00
7E00
ENDCHAR
STARTCHAR 0120
ENCODING 288
SWIDTH 617 0
DWIDTH 12 0
BBX 10 16 1 0
BITMAP
0600
0600
0000
0000
1F00
3F80
70C0
E000
C000
C7C0
C7C0
C0C0
E0C0
70C0
3FC0
1F00
ENDCHAR
STARTCHAR 0121
ENCODING 289
SWIDTH 514 0
DWIDTH 10 0
BBX 9 17 1 -4
BITMAP
1800
1C00
0000
0000
3F00
FF00
C600
C600
7E00
7C00
C000
C000
7F00
7F80
C380
FF00
7E00
ENDCHAR
STARTCHAR 0122
ENCODING 290
SWIDTH 617 0
DWIDTH 12 0
BBX 10 17 1 -5
BITMAP
1F00
3F80
70C0
E000
C000
C7C0
C7C0
C0C0
E0C0
70C0
3FC0
1F00
0000
0600
0200
0200
0C00
ENDCHAR
STARTCHAR 0123
ENCODING 291
SWIDTH 514 0
DWIDTH 10 0
BBX 9 19 1 -4
BITMAP
0C00
1000
1000
1800
0000
0000
3F00
FF00
C600
C600
7E00
7C00
C000
C000
7F00
7F80
C380
FF00
7E00
ENDCHAR
STARTCHAR 0124
ENCODING 292
SWIDTH 668 0
DWIDTH 13 0
BBX 9 17 2 0
BITMAP
1C00
3600
6200
0000
0000
C180
C180
C180
C180
C180
FF80
FF80
C180
C180
C180
C180
C180
ENDCHAR
STARTCHAR 0125
ENCODING 293
SWIDTH 565 0
DWIDTH 11 0
BBX 10 18 -1 0
BITMAP
3800
6C00
C400
0000
3800
3800
3800
3800
3800
3B80
3FC0
38C0
38C0
38C0
38C0
38C0
38C0
38C0
ENDCHAR
STARTCHAR 0126
ENCODING 294
SWIDTH 668 0
DWIDTH 13 0
BBX 12 12 1 0
BITMAP
60C0
FFF0
FFF0
60C0
60C0
7FC0
7FC0
60C0
60C0
60C0
60C0
60C0
ENDCHAR
STARTCHAR 0127
ENCODING 295
SWIDTH 565 0
DWIDTH 11 0
BBX 9 14 0 0
BITMAP
7000
7000
FE00
7000
7000
7700
7F80
7980
7180
7180
7180
7180
7180
7180
ENDCHAR
STARTCHAR 0128
ENCODING 296
SWIDTH 257 0
DWIDTH 5 0
BBX 7 18 -1 0
BITMAP
24
72
DE
CC
00
00
18
18
18
18
18
18
18
18
18
18
18
18
ENDCHAR
STARTCHAR 0129
ENCODING 297
SWIDTH 257 0
DWIDTH 5 0
BBX 7 15 -1 0
BITMAP
62
F6
DE
8C
00
00
38
38
38
38
38
38
38
38
38
ENDCHAR
STARTCHAR 012A
ENCODING 298
SWIDTH 257 0
DWIDTH 5 0
BBX 5 15 0 0
BITMAP
F8
00
00
30
30
30
30
30
30
30
30
30
30
30
30
ENDCHAR
STARTCHAR 012B
ENCODING 299
SWIDTH 257 0
DWIDTH 5 0
BBX 5 12 0 0
BITMAP
F8
00
00
70
70
70
70
70
70
70
70
70
ENDCHAR
STARTCHAR 012C
ENCODING 300
SWIDTH 257 0
DWIDTH 5 0
BBX 6 16 0 0
BITMAP
8C
78
00
00
30
30
30
30
30
30
30
30
30
30
30
30
ENDCHAR
STARTCHAR 012D
ENCODING 301
SWIDTH 257 0
DWIDTH 5 0
BBX 7 14 -1 0
BITMAP
C6
44
38
00
00
38
38
38
38
38
38
38
38
38
ENDCHAR
STARTCHAR 012E
ENCODING 302
SWIDTH 257 0
DWIDTH 5 0
BBX 4 16 1 -4
BITMAP
60
60
60
60
60
60
60
60
60
60
60
60
40
C0
C0
F0
ENDCHAR
STARTCHAR 012F
ENCODING 303
SWIDTH 257 0
DWIDTH 5 0
BBX 3 17 1 -4
BITMAP
E0
E0
00
00
E0
E0
E0
E0
E0
E0
E0
E0
E0
C0
80
80
E0
ENDCHAR
STARTCHAR 0130
ENCODING 304
SWIDTH 257 0
DWIDTH 5 0
BBX 3 16 1 0
BITMAP
E0
E0
00
00
60
60
60
60
60
60
60
60
60
60
60
60
ENDCHAR
STARTCHAR 0131
ENCODING 305
SWIDTH 257 0
DWIDTH 5 0
BBX 3 9 1 0
BITMAP
E0
E0
E0
E0
E0
E0
E0
E0
E0
ENDCHAR
STARTCHAR 0132
ENCODING 306
SWIDTH 565 0
DWIDTH 11 0
BBX 7 15 2 -3
BITMAP
C6
C6
C6
C6
C6
C6
C6
C6
C6
C6
C6
C6
06
1E
1C
ENDCHAR
STARTCHAR 0133
ENCODING 307
SWIDTH 514 0
DWIDTH 10 0
BBX 8 17 1 -4
BITMAP
E7
E7
00
00
E7
E7
E7
E7
E7
E7
E7
E7
E7
07
07
1E
1C
ENDCHAR
STARTCHAR 0134
ENCODING 308
SWIDTH 462 0
DWIDTH 9 0
BBX 10 17 0 0
BITMAP
0700
0D80
08C0
0000
0000
0300
0300
0300
0300
0300
0300
0300
0300
0300
6700
FE00
3C00
ENDCHAR
STARTCHAR 0135
ENCODING 309
SWIDTH 257 0
DWIDTH 5 0
BBX 7 18 -1 -4
BITMAP
38
6C
C6
00
00
38
38
38
38
38
38
38
38
38
38
38
F0
E0
ENDCHAR
STARTCHAR 0136
ENCODING 310
SWIDTH 565 0
DWIDTH 11 0
BBX 9 17 2 -5
BITMAP
C380
C600
CE00
DC00
D800
F800
EC00
EE00
C600
C700
C300
C180
0000
1800
0C00
0C00
3800
ENDCHAR
STARTCHAR 0137
ENCODING 311
SWIDTH 514 0
DWIDTH 10 0
BBX 9 19 1 -5
BITMAP
E000
E000
E000
E000
E000
E300
E600
EC00
F800
FC00
EC00
E600
E300
E300
0080
1800
0C00
0C00
3800
ENDCHAR
STARTCHAR 0138
ENCODING 312
SWIDTH 514 0
DWIDTH 10 0
BBX 9 9 1 0
BITMAP
E300
E600
EC00
F800
FC00
FC00
E600
E700
E380
ENDCHAR
STARTCHAR 0139
ENCODING 313
SWIDTH 514 0
DWIDTH 10 0
BBX 8 18 1 0
BITMAP
10
38
60
C0
00
00
60
60
60
60
60
60
60
60
60
60
7F
7F
ENDCHAR
STARTCHAR 013A
ENCODING 314
SWIDTH 257 0
DWIDTH 5 0
BBX 4 19 1 0
BITMAP
10
30
60
C0
00
E0
E0
E0
E0
E0
E0
E0
E0
E0
E0
E0
E0
60
70
ENDCHAR
STARTCHAR 013B
ENCODING 315
SWIDTH 514 0
DWIDTH 10 0
BBX 7 17 2 -5
BITMAP
C0
C0
C0
C0
C0
C0
C0
C0
C0
C0
FE
FE
00
30
18
18
30
ENDCHAR
STARTCHAR 013C
ENCODING 316
SWIDTH 257 0
DWIDTH 5 0
BBX 4 19 1 -5
BITMAP
E0
E0
E0
E0
E0
E0
E0
E0
E0
E0
E0
E0
60
70
00
60
30
30
E0
ENDCHAR
STARTCHAR 013D
ENCODING 317
SWIDTH 514 0
DWIDTH 10 0
BBX 7 13 2 0
BITMAP
0C
CC
CC
C4
C0
C0
C0
C0
C0
C0
C0
FE
FE
ENDCHAR
STARTCHAR 013E
ENCODING 318
SWIDTH 308 0
DWIDTH 6 0
BBX 5 14 1 0
BITMAP
F8
F8
F8
E8
E0
E0
E0
E0
E0
E0
E0
E0
60
70
ENDCHAR
STARTCHAR 013F
ENCODING 319
SWIDTH 514 0
DWIDTH 10 0
BBX 7 12 2 0
BITMAP
C0
C0
C0
C0
CE
CE
CE
C0
C0
C0
FE
FE
ENDCHAR
STARTCHAR 0140
ENCODING 320
SWIDTH 411 0
DWIDTH 8 0
BBX 7 14 1 0
BITMAP
E0
E0
E0
E0
E0
E0
EC
EE
EC
E0
E0
E0
60
70
ENDCHAR
STARTCHAR 0141
ENCODING 321
SWIDTH 514 0
DWIDTH 10 0
BBX 9 12 0 0
BITMAP
3000
3000
3000
3200
3700
3C00
7800
F000
B000
3000
3F80
3F80
ENDCHAR
STARTCHAR 0142
ENCODING 322
SWIDTH 257 0
DWIDTH 5 0
BBX 5 14 0 0
BITMAP
30
30
30
30
38
38
70
F0
B0
30
30
30
38
38
ENDCHAR
STARTCHAR 0143
ENCODING 323
SWIDTH 617 0
DWIDTH 12 0
BBX 9 18 2 0
BITMAP
0400
0E00
1C00
0800
0000
0000
C180
E180
E180
B180
F180
D980
DD80
CD80
C780
C780
C380
C380
ENDCHAR
STARTCHAR 0144
ENCODING 324
SWIDTH 565 0
DWIDTH 11 0
BBX 8 15 1 0
BITMAP
02
07
0C
08
00
00
DE
FF
E3
E3
E3
E3
E3
E3
E3
ENDCHAR
STARTCHAR 0145
ENCODING 325
SWIDTH 617 0
DWIDTH 12 0
BBX 9 17 2 -5
BITMAP
C180
E180
E180
B180
F180
D980
DD80
CD80
C780
C780
C380
C380
0000
1800
0C00
0C00
3800
ENDCHAR
STARTCHAR 0146
ENCODING 326
SWIDTH 565 0
DWIDTH 11 0
BBX 8 14 1 -5
BITMAP
DE
FF
E3
E3
E3
E3
E3
E3
E3
00
18
0C
0C
38
ENDCHAR
STARTCHAR 0147
ENCODING 327
SWIDTH 617 0
DWIDTH 12 0
BBX 9 17 2 0
BITMAP
6200
3600
1C00
0000
0000
C180
E180
E180
B180
F180
D980
DD80
CD80
C780
C780
C380
C380
ENDCHAR
STARTCHAR 0148
ENCODING 328
SWIDTH 565 0
DWIDTH 11 0
BBX 8 14 1 0
BITMAP
23
76
1C
00
00
DE
FF
E3
E3
E3
E3
E3
E3
E3
ENDCHAR
STARTCHAR 0149
ENCODING 329
SWIDTH 771 0
DWIDTH 15 0
BBX 13 13 1 0
BITMAP
6000
E000
2000
6000
C6F0
07F8
0718
0618
0618
0618
0618
0618
0618
ENDCHAR
STARTCHAR 014A
ENCODING 330
SWIDTH 617 0
DWIDTH 12 0
BBX 9 13 2 -1
BITMAP
DE00
FF00
E380
C180
C180
C180
C180
C180
C180
C380
CF80
CF00
C000
ENDCHAR
STARTCHAR 014B
ENCODING 331
SWIDTH 565 0
DWIDTH 11 0
BBX 8 13 1 -4
BITMAP
CE
FF
E3
E3
E3
E3
E3
E3
E3
03
03
0F
0E
ENDCHAR
STARTCHAR 014C
ENCODING 332
SWIDTH 668 0
DWIDTH 13 0
BBX 11 15 1 0
BITMAP
1F00
0000
0000
1F00
3F80
71C0
E0E0
C0E0
C060
C060
C0E0
E0C0
71C0
3F80
1F00
ENDCHAR
STARTCHAR 014D
ENCODING 333
SWIDTH 514 0
DWIDTH 10 0
BBX 9 12 1 0
BITMAP
3E00
0000
0000
3C00
7F00
E300
C380
C380
C380
E300
7F00
3C00
ENDCHAR
STARTCHAR 014E
ENCODING 334
SWIDTH 668 0
DWIDTH 13 0
BBX 11 16 1 0
BITMAP
3100
1E00
0000
0000
1F00
3F80
71C0
E0E0
C0E0
C060
C060
C0E0
E0C0
71C0
3F80
1F00
ENDCHAR
STARTCHAR 014F
ENCODING 335
SWIDTH 514 0
DWIDTH 10 0
BBX 9 14 1 0
BITMAP
4200
6600
3C00
0000
0000
3C00
7F00
E300
C380
C380
C380
E300
7F00
3C00
ENDCHAR
STARTCHAR 0150
ENCODING 336
SWIDTH 668 0
DWIDTH 13 0
BBX 11 18 1 0
BITMAP
0480
0DC0
0980
1B00
0000
0000
1F00
3F80
71C0
E0E0
C0E0
C060
C060
C0E0
E0C0
71C0
3F80
1F00
ENDCHAR
STARTCHAR 0151
ENCODING 337
SWIDTH 514 0
DWIDTH 10 0
BBX 9 15 1 0
BITMAP
1A00
1B00
1200
3600
0000
0000
3C00
7F00
E300
C380
C380
C380
E300
7F00
3C00
ENDCHAR
STARTCHAR 0152
ENCODING 338
SWIDTH 822 0
DWIDTH 16 0
BBX 14 12 1 0
BITMAP
1FFC
3FFC
7180
E180
C180
C1F8
C1F8
C180
E180
7180
3FFC
1FFC
ENDCHAR
STARTCHAR 0153
ENCODING 339
SWIDTH 822 0
DWIDTH 16 0
BBX 14 9 1 0
BITMAP
3C70
7EF8
E78C
C30C
C3FC
C300
E788
7EFC
3C78
ENDCHAR
STARTCHAR 0154
ENCODING 340
SWIDTH 565 0
DWIDTH 11 0
BBX 9 18 2 0
BITMAP
0400
0E00
1800
3000
0000
0000
FE00
FF00
C300
C300
C300
C700
FE00
FC00
CE00
C600
C700
C380
ENDCHAR
STARTCHAR 0155
ENCODING 341
SWIDTH 360 0
DWIDTH 7 0
BBX 7 15 1 0
BITMAP
04
0E
18
30
00
00
DC
FC
E0
E0
E0
E0
E0
E0
E0
ENDCHAR
STARTCHAR 0156
ENCODING 342
SWIDTH 565 0
DWIDTH 11 0
BBX 9 17 2 -5
BITMAP
FE00
FF00
C300
C300
C300
C700
FE00
FC00
CE00
C600
C700
C380
0000
1800
0C00
0C00
3800
ENDCHAR
STARTCHAR 0157
ENCODING 343
SWIDTH 360 0
DWIDTH 7 0
BBX 7 14 0 -5
BITMAP
6E
7E
70
70
70
70
70
70
70
00
60
30
30
E0
ENDCHAR
STARTCHAR 0158
ENCODING 344
SWIDTH 565 0
DWIDTH 11 0
BBX 9 17 2 0
BITMAP
4400
6E00
3800
0000
0000
FE00
FF00
C300
C300
C300
C700
FE00
FC00
CE00
C600
C700
C380
ENDCHAR
STARTCHAR 0159
ENCODING 345
SWIDTH 360 0
DWIDTH 7 0
BBX 7 14 1 0
BITMAP
C4
6E
38
00
00
DC
FC
E0
E0
E0
E0
E0
E0
E0
ENDCHAR
STARTCHAR 015A
ENCODING 346
SWIDTH 514 0
DWIDTH 10 0
BBX 9 18 1 0
BITMAP
0200
0600
0C00
1800
0000
0000
3E00
7F00
E300
E000
7000
7C00
1F00
0380
0380
C380
FF00
3E00
ENDCHAR
STARTCHAR 015B
ENCODING 347
SWIDTH 411 0
DWIDTH 8 0
BBX 8 15 0 0
BITMAP
02
07
0C
18
00
00
3C
7E
62
70
3E
06
47
FE
3C
ENDCHAR
STARTCHAR 015C
ENCODING 348
SWIDTH 514 0
DWIDTH 10 0
BBX 9 17 1 0
BITMAP
1C00
3600
6200
0000
0000
3E00
7F00
E300
E000
7000
7C00
1F00
0380
0380
C380
FF00
3E00
ENDCHAR
STARTCHAR 015D
ENCODING 349
SWIDTH 411 0
DWIDTH 8 0
BBX 8 14 0 0
BITMAP
1C
36
63
00
00
3C
7E
62
70
3E
06
47
FE
3C
ENDCHAR
STARTCHAR 015E
ENCODING 350
SWIDTH 514 0
DWIDTH 10 0
BBX 9 17 1 -5
BITMAP
3E00
7F00
E300
E000
7000
7C00
1F00
0380
0380
C380
FF00
3E00
1800
1800
0C00
0C00
3800
ENDCHAR
STARTCHAR 015F
ENCODING 351
SWIDTH 411 0
DWIDTH 8 0
BBX 8 14 0 -5
BITMAP
3C
7E
62
70
3E
06
47
FE
3C
08
1C
0C
0C
38
ENDCHAR
STARTCHAR 0160
ENCODING 352
SWIDTH 514 0
DWIDTH 10 0
BBX 9 17 1 0
BITMAP
2200
7600
1C00
0000
0000
3E00
7F00
E300
E000
7000
7C00
1F00
0380
0380
C380
FF00
3E00
ENDCHAR
STARTCHAR 0161
ENCODING 353
SWIDTH 411 0
DWIDTH 8 0
BBX 8 14 0 0
BITMAP
62
37
1C
00
00
3C
7E
62
70
3E
06
47
FE
3C
ENDCHAR
STARTCHAR 0162
ENCODING 354
SWIDTH 514 0
DWIDTH 10 0
BBX 10 17 0 -5
BITMAP
FFC0
FFC0
0C00
0C00
0C00
0C00
0C00
0C00
0C00
0C00
0C00
0C00
0C00
0C00
0600
0600
1C00
ENDCHAR
STARTCHAR 0163
ENCODING 355
SWIDTH 360 0
DWIDTH 7 0
BBX 7 17 0 -5
BITMAP
30
30
30
FC
FC
30
30
30
30
30
3C
1E
18
1C
0C
0C
38
ENDCHAR
STARTCHAR 0164
ENCODING 356
SWIDTH 514 0
DWIDTH 10 0
BBX 10 17 0 0
BITMAP
3100
1B00
0E00
0000
0000
FFC0
FFC0
0C00
0C00
0C00
0C00
0C00
0C00
0C00
0C00
0C00
0C00
ENDCHAR
STARTCHAR 0165
ENCODING 357
SWIDTH 360 0
DWIDTH 7 0
BBX 7 14 0 0
BITMAP
04
04
34
34
30
FC
FC
30
30
30
30
30
3C
1E
ENDCHAR
STARTCHAR 0166
ENCODING 358
SWIDTH 514 0
DWIDTH 10 0
BBX 10 12 0 0
BITMAP
FFC0
FFC0
0C00
0C00
0C00
3F80
3F80
0C00
0C00
0C00
0C00
0C00
ENDCHAR
STARTCHAR 0167
ENCODING 359
SWIDTH 360 0
DWIDTH 7 0
BBX 7 12 0 0
BITMAP
30
30
30
FC
FC
30
30
FC
30
30
3C
1E
ENDCHAR
STARTCHAR 0168
ENCODING 360
SWIDTH 617 0
DWIDTH 12 0
BBX 9 18 2 0
BITMAP
3200
7B00
7E00
4E00
0000
0000
C180
C180
C180
C180
C180
C180
C180
C180
C180
E300
7F00
3E00
ENDCHAR
STARTCHAR 0169
ENCODING 361
SWIDTH 565 0
DWIDTH 11 0
BBX 8 15 1 0
BITMAP
33
7B
6E
46
00
00
C3
C3
C3
C3
C3
C3
E7
7F
7B
ENDCHAR
STARTCHAR 016A
ENCODING 362
SWIDTH 617 0
DWIDTH 12 0
BBX 9 15 2 0
BITMAP
7E00
0000
0000
C180
C180
C180
C180
C180
C180
C180
C180
C180
E300
7F00
3E00
ENDCHAR
STARTCHAR 016B
ENCODING 363
SWIDTH 565 0
DWIDTH 11 0
BBX 8 12 1 0
BITMAP
3E
00
00
C3
C3
C3
C3
C3
C3
E7
7F
7B
ENDCHAR
STARTCHAR 016C
ENCODING 364
SWIDTH 617 0
DWIDTH 12 0
BBX 9 16 2 0
BITMAP
6200
3C00
0000
0000
C180
C180
C180
C180
C180
C180
C180
C180
C180
E300
7F00
3E00
ENDCHAR
STARTCHAR 016D
ENCODING 365
SWIDTH 565 0
DWIDTH 11 0
BBX 8 14 1 0
BITMAP
62
26
3C
00
00
C3
C3
C3
C3
C3
C3
E7
7F
7B
ENDCHAR
STARTCHAR 016E
ENCODING 366
SWIDTH 617 0
DWIDTH 12 0
BBX 9 17 2 0
BITMAP
1C00
2400
2400
1C00
0000
C180
C180
C180
C180
C180
C180
C180
C180
C180
E300
7F00
3E00
ENDCHAR
STARTCHAR 016F
ENCODING 367
SWIDTH 565 0
DWIDTH 11 0
BBX 8 15 1 0
BITMAP
1C
26
26
1C
00
00
C3
C3
C3
C3
C3
C3
E7
7F
7B
ENDCHAR
STARTCHAR 0170
ENCODING 368
SWIDTH 617 0
DWIDTH 12 0
BBX 9 18 2 0
BITMAP
0900
1B80
3200
2600
0000
0000
C180
C180
C180
C180
C180
C180
C180
C180
C180
E300
7F00
3E00
ENDCHAR
STARTCHAR 0171
ENCODING 369
SWIDTH 565 0
DWIDTH 11 0
BBX 8 15 1 0
BITMAP
0A
1B
13
36
00
00
C3
C3
C3
C3
C3
C3
E7
7F
7B
ENDCHAR
STARTCHAR 0172
ENCODING 370
SWIDTH 617 0
DWIDTH 12 0
BBX 9 16 2 -4
BITMAP
C180
C180
C180
C180
C180
C180
C180
C180
C180
E300
7F00
3E00
1800
1000
1000
1C00
ENDCHAR
STARTCHAR 0173
ENCODING 371
SWIDTH 565 0
DWIDTH 11 0
BBX 9 13 1 -4
BITMAP
C300
C300
C300
C300
C300
C300
E700
7F00
7B00
0200
0600
0600
0780
ENDCHAR
STARTCHAR 0174
ENCODING 372
SWIDTH 771 0
DWIDTH 15 0
BBX 15 17 0 0
BITMAP
0380
06C0
0460
0000
0000
E186
638E
638C
62CC
62CC
76CC
36CC
3658
3478
3C78
1C78
1C38
ENDCHAR
STARTCHAR 0175
ENCODING 373
SWIDTH 720 0
DWIDTH 14 0
BBX 14 14 0 0
BITMAP
0380
07C0
0840
0000
0000
E30C
6398
6398
6798
3698
34F0
34F0
1CF0
1C70
ENDCHAR
STARTCHAR 0176
ENCODING 374
SWIDTH 514 0
DWIDTH 10 0
BBX 10 17 0 0
BITMAP
1C00
3600
2300
0000
0000
E1C0
6180
6300
3300
3600
1E00
1C00
0C00
0C00
0C00
0C00
0C00
ENDCHAR
STARTCHAR 0177
ENCODING 375
SWIDTH 462 0
DWIDTH 9 0
BBX 9 18 0 -4
BITMAP
1C00
3600
2100
0000
0000
E180
6180
6300
3300
3300
3600
1E00
1E00
0C00
0C00
1800
7800
7000
ENDCHAR
STARTCHAR 0178
ENCODING 376
SWIDTH 514 0
DWIDTH 10 0
BBX 10 16 0 0
BITMAP
3300
3300
0000
0000
E1C0
6180
6300
3300
3600
1E00
1C00
0C00
0C00
0C00
0C00
0C00
ENDCHAR
STARTCHAR 0179
ENCODING 377
SWIDTH 514 0
DWIDTH 10 0
BBX 9 18 1 0
BITMAP
0400
0600
1C00
0800
0000
0000
FF80
FF00
0600
0600
0C00
1800
1800
3000
6000
6000
FF80
FF80
ENDCHAR
STARTCHAR 017A
ENCODING 378
SWIDTH 411 0
DWIDTH 8 0
BBX 7 15 1 0
BITMAP
04
0E
18
30
00
00
FE
FC
0C
18
30
70
60
FE
FE
ENDCHAR
STARTCHAR 017B
ENCODING 379
SWIDTH 514 0
DWIDTH 10 0
BBX 9 16 1 0
BITMAP
1C00
1C00
0000
0000
FF80
FF00
0600
0600
0C00
1800
1800
3000
6000
6000
FF80
FF80
ENDCHAR
STARTCHAR 017C
ENCODING 380
SWIDTH 411 0
DWIDTH 8 0
BBX 7 13 1 0
BITMAP
38
38
00
00
FE
FC
0C
18
30
70
60
FE
FE
ENDCHAR
STARTCHAR 017D
ENCODING 381
SWIDTH 514 0
DWIDTH 10 0
BBX 9 17 1 0
BITMAP
2200
7600
1C00
0000
0000
FF80
FF00
0600
0600
0C00
1800
1800
3000
6000
6000
FF80
FF80
ENDCHAR
STARTCHAR 017E
ENCODING 382
SWIDTH 411 0
DWIDTH 8 0
BBX 7 14 1 0
BITMAP
44
EE
38
00
00
FE
FC
0C
18
30
70
60
FE
FE
ENDCHAR
STARTCHAR 0180
ENCODING 384
SWIDTH 565 0
DWIDTH 11 0
BBX 10 14 0 0
BITMAP
7000
7000
FE00
7000
7000
7F00
7F80
71C0
70C0
70C0
71C0
7180
7F80
6F00
ENDCHAR
STARTCHAR 018F
ENCODING 399
SWIDTH 668 0
DWIDTH 13 0
BBX 11 12 1 0
BITMAP
1F00
7F80
21C0
00C0
00E0
FFE0
FFE0
C0E0
E0C0
71C0
3F80
1F00
ENDCHAR
STARTCHAR 0192
ENCODING 402
SWIDTH 514 0
DWIDTH 10 0
BBX 9 15 0 -2
BITMAP
0380
0780
0E00
0C00
0C00
3F00
3F00
0C00
0C00
1C00
1800
1800
1800
7800
F000
ENDCHAR
STARTCHAR 0193
ENCODING 403
SWIDTH 617 0
DWIDTH 12 0
BBX 11 16 1 0
BITMAP
00E0
01E0
0180
0180
1F80
3FC0
7080
E000
C000
C7C0
C7C0
C0C0
E0C0
70C0
3FC0
1F00
ENDCHAR
STARTCHAR 01A0
ENCODING 416
SWIDTH 668 0
DWIDTH 13 0
BBX 11 15 1 0
BITMAP
0020
0060
0060
1FE0
3F80
71C0
E0E0
C0E0
C060
C060
C0E0
E0E0
71C0
3F80
1F00
ENDCHAR
STARTCHAR 01A1
ENCODING 417
SWIDTH 514 0
DWIDTH 10 0
BBX 9 13 1 0
BITMAP
0180
0180
0180
3F80
7E00
E300
C300
C380
C380
C300
E300
7E00
3C00
ENDCHAR
STARTCHAR 01AF
ENCODING 431
SWIDTH 668 0
DWIDTH 13 0
BBX 11 15 2 0
BITMAP
0060
0060
0060
C1C0
C180
C180
C180
C180
C180
C180
C180
C180
E300
7F00
3E00
ENDCHAR
STARTCHAR 01B0
ENCODING 432
SWIDTH 565 0
DWIDTH 11 0
BBX 10 13 1 0
BITMAP
0040
00C0
00C0
00C0
C380
C300
C300
C300
C300
C300
E700
7F00
7B00
ENDCHAR
STARTCHAR 01C2
ENCODING 450
SWIDTH 308 0
DWIDTH 6 0
BBX 6 21 0 -6
BITMAP
30
30
30
30
30
30
30
FC
FC
30
30
FC
FC
30
30
30
30
30
30
30
30
ENDCHAR
STARTCHAR 01CD
ENCODING 461
SWIDTH 565 0
DWIDTH 11 0
BBX 11 17 0 0
BITMAP
3100
1B00
0E00
0000
0000
0E00
0E00
1A00
1B00
3300
3300
3180
7F80
7F80
60C0
E0C0
C0E0
ENDCHAR
STARTCHAR 01CE
ENCODING 462
SWIDTH 514 0
DWIDTH 10 0
BBX 8 14 1 0
BITMAP
42
3E
1C
00
00
3C
FE
46
1F
67
C7
C7
FF
7B
ENDCHAR
STARTCHAR 01CF
ENCODING 463
SWIDTH 257 0
DWIDTH 5 0
BBX 6 17 0 0
BITMAP
88
DC
70
00
00
30
30
30
30
30
30
30
30
30
30
30
30
ENDCHAR
STARTCHAR 01D0
ENCODING 464
SWIDTH 257 0
DWIDTH 5 0
BBX 7 14 -1 0
BITMAP
44
EE
38
00
00
38
38
38
38
38
38
38
38
38
ENDCHAR
STARTCHAR 01D1
ENCODING 465
SWIDTH 668 0
DWIDTH 13 0
BBX 11 17 1 0
BITMAP
1100
3B00
0E00
0000
0000
1F00
3F80
71C0
E0E0
C0E0
C060
C060
C0E0
E0C0
71C0
3F80
1F00
ENDCHAR
STARTCHAR 01D2
ENCODING 466
SWIDTH 514 0
DWIDTH 10 0
BBX 9 14 1 0
BITMAP
6200
3600
1C00
0000
0000
3C00
7F00
E300
C380
C380
C380
E300
7F00
3C00
ENDCHAR
STARTCHAR 01D3
ENCODING 467
SWIDTH 617 0
DWIDTH 12 0
BBX 9 17 2 0
BITMAP
6200
3600
1C00
0000
0000
C180
C180
C180
C180
C180
C180
C180
C180
C180
E300
7F00
3E00
ENDCHAR
STARTCHAR 01D4
ENCODING 468
SWIDTH 565 0
DWIDTH 11 0
BBX 8 14 1 0
BITMAP
62
37
1C
00
00
C3
C3
C3
C3
C3
C3
E7
7F
7B
ENDCHAR
STARTCHAR 01D5
ENCODING 469
SWIDTH 617 0
DWIDTH 12 0
BBX 9 18 2 0
BITMAP
7E00
0000
6600
6600
0000
0000
C180
C180
C180
C180
C180
C180
C180
C180
C180
E300
7F00
3E00
ENDCHAR
STARTCHAR 01D6
ENCODING 470
SWIDTH 565 0
DWIDTH 11 0
BBX 8 15 1 0
BITMAP
3E
00
66
66
00
00
C3
C3
C3
C3
C3
C3
E7
7F
7B
ENDCHAR
STARTCHAR 01D7
ENCODING 471
SWIDTH 617 0
DWIDTH 12 0
BBX 9 19 2 0
BITMAP
0400
0E00
1800
6600
6600
0000
0000
C180
C180
C180
C180
C180
C180
C180
C180
C180
E300
7F00
3E00
ENDCHAR
STARTCHAR 01D8
ENCODING 472
SWIDTH 565 0
DWIDTH 11 0
BBX 8 16 1 0
BITMAP
04
0C
18
66
66
00
00
C3
C3
C3
C3
C3
C3
E7
7F
7B
ENDCHAR
STARTCHAR 01D9
ENCODING 473
SWIDTH 617 0
DWIDTH 12 0
BBX 9 20 2 0
BITMAP
2200
7C00
1C00
0000
6600
6600
0000
0000
C180
C180
C180
C180
C180
C180
C180
C180
C180
E300
7F00
3E00
ENDCHAR
STARTCHAR 01DA
ENCODING 474
SWIDTH 565 0
DWIDTH 11 0
BBX 8 16 1 0
BITMAP
26
1C
00
66
66
00
00
C3
C3
C3
C3
C3
C3
E7
7F
7B
ENDCHAR
STARTCHAR 01DB
ENCODING 475
SWIDTH 617 0
DWIDTH 12 0
BBX 9 19 2 0
BITMAP
1000
3000
0800
6600
6600
0000
0000
C180
C180
C180
C180
C180
C180
C180
C180
C180
E300
7F00
3E00
ENDCHAR
STARTCHAR 01DC
ENCODING 476
SWIDTH 565 0
DWIDTH 11 0
BBX 8 16 1 0
BITMAP
10
38
08
66
66
00
00
C3
C3
C3
C3
C3
C3
E7
7F
7B
ENDCHAR
STARTCHAR 01E2
ENCODING 482
SWIDTH 822 0
DWIDTH 16 0
BBX 15 15 0 0
BITMAP
00F8
0000
0000
03FE
07FE
07C0
0DC0
0DC0
19FC
19FC
3FC0
3FC0
71C0
61FE
E1FE
ENDCHAR
STARTCHAR 01E3
ENCODING 483
SWIDTH 771 0
DWIDTH 15 0
BBX 13 12 1 0
BITMAP
0F80
0000
0000
3CF0
FFF8
4718
1F18
67F8
C300
C710
FFF8
78F0
ENDCHAR
STARTCHAR 01E6
ENCODING 486
SWIDTH 617 0
DWIDTH 12 0
BBX 10 17 1 0
BITMAP
1180
1B00
0E00
0000
0000
1F00
3F80
70C0
E000
C000
C7C0
C7C0
C0C0
E0C0
70C0
3FC0
1F00
ENDCHAR
STARTCHAR 01E7
ENCODING 487
SWIDTH 514 0
DWIDTH 10 0
BBX 9 18 1 -4
BITMAP
6200
3600
1C00
0000
0000
3F00
FF00
C600
C600
7E00
7C00
C000
C000
7F00
7F80
C380
FF00
7E00
ENDCHAR
STARTCHAR 01EA
ENCODING 490
SWIDTH 668 0
DWIDTH 13 0
BBX 11 16 1 -4
BITMAP
1F00
3F80
71C0
E0E0
C0E0
C060
C060
C0E0
E0C0
71C0
3F80
1F00
0400
0C00
0C00
0F00
ENDCHAR
STARTCHAR 01EB
ENCODING 491
SWIDTH 514 0
DWIDTH 10 0
BBX 9 13 1 -4
BITMAP
3C00
7F00
E300
C380
C380
C380
E300
7F00
3C00
1800
1000
1000
1C00
ENDCHAR
STARTCHAR 01F4
ENCODING 500
SWIDTH 617 0
DWIDTH 12 0
BBX 10 18 1 0
BITMAP
0100
0380
0700
0400
0000
0000
1F00
3F80
70C0
E000
C000
C7C0
C7C0
C0C0
E0C0
70C0
3FC0
1F00
ENDCHAR
STARTCHAR 01F5
ENCODING 501
SWIDTH 514 0
DWIDTH 10 0
BBX 9 19 1 -4
BITMAP
0400
0E00
0C00
1800
0000
0000
3F00
FF00
C600
C600
7E00
7C00
C000
C000
7F00
7F80
C380
FF00
7E00
ENDCHAR
STARTCHAR 01F8
ENCODING 504
SWIDTH 617 0
DWIDTH 12 0
BBX 9 18 2 0
BITMAP
2000
7000
1800
0C00
0000
0000
C180
E180
E180
B180
F180
D980
DD80
CD80
C780
C780
C380
C380
ENDCHAR
STARTCHAR 01F9
ENCODING 505
SWIDTH 565 0
DWIDTH 11 0
BBX 8 15 1 0
BITMAP
20
30
18
0C
00
00
DE
FF
E3
E3
E3
E3
E3
E3
E3
ENDCHAR
STARTCHAR 01FC
ENCODING 508
SWIDTH 822 0
DWIDTH 16 0
BBX 15 18 0 0
BITMAP
0008
0018
0030
0060
0000
0000
03FE
07FE
07C0
0DC0
0DC0
19FC
19FC
3FC0
3FC0
71C0
61FE
E1FE
ENDCHAR
STARTCHAR 01FD
ENCODING 509
SWIDTH 771 0
DWIDTH 15 0
BBX 13 15 1 0
BITMAP
0080
01C0
0380
0200
0000
0000
3CF0
FFF8
4718
1F18
67F8
C300
C710
FFF8
78F0
ENDCHAR
STARTCHAR 0218
ENCODING 536
SWIDTH 514 0
DWIDTH 10 0
BBX 9 17 1 -5
BITMAP
3E00
7F00
E300
E000
7000
7C00
1F00
0380
0380
C380
FF00
3E00
0000
1800
0C00
0C00
3800
ENDCHAR
STARTCHAR 0219
ENCODING 537
SWIDTH 411 0
DWIDTH 8 0
BBX 8 14 0 -5
BITMAP
3C
7E
62
70
3E
06
47
FE
3C
00
18
0C
0C
38
ENDCHAR
STARTCHAR 021A
ENCODING 538
SWIDTH 514 0
DWIDTH 10 0
BBX 10 17 0 -5
BITMAP
FFC0
FFC0
0C00
0C00
0C00
0C00
0C00
0C00
0C00
0C00
0C00
0C00
0000
0C00
0600
0600
1C00
ENDCHAR
STARTCHAR 021B
ENCODING 539
SWIDTH 360 0
DWIDTH 7 0
BBX 7 17 0 -5
BITMAP
30
30
30
FC
FC
30
30
30
30
30
3C
1E
00
18
0C
0C
38
ENDCHAR
STARTCHAR 0237
ENCODING 567
SWIDTH 257 0
DWIDTH 5 0
BBX 5 13 -1 -4
BITMAP
38
38
38
38
38
38
38
38
38
38
38
F0
E0
ENDCHAR
STARTCHAR 0243
ENCODING 579
SWIDTH 617 0
DWIDTH 12 0
BBX 10 12 1 0
BITMAP
7F80
7F80
7F00
7F80
61C0
60C0
FCC0
FCC0
60C0
61C0
7F80
7F00
ENDCHAR
STARTCHAR 0250
ENCODING 592
SWIDTH 514 0
DWIDTH 10 0
BBX 8 9 1 0
BITMAP
DE
FF
E3
CF
FE
F0
E2
7F
3C
ENDCHAR
STARTCHAR 0251
ENCODING 593
SWIDTH 565 0
DWIDTH 11 0
BBX 8 9 1 0
BITMAP
3F
7F
E3
C3
C3
C3
E3
7F
3B
ENDCHAR
STARTCHAR 0252
ENCODING 594
SWIDTH 565 0
DWIDTH 11 0
BBX 9 9 1 0
BITMAP
DE00
FF00
E380
E180
E180
E380
E380
FF00
DE00
ENDCHAR
STARTCHAR 0253
ENCODING 595
SWIDTH 565 0
DWIDTH 11 0
BBX 9 14 1 0
BITMAP
3C00
7800
6000
E000
E000
FE00
FF00
E380
E180
E180
E380
E300
FF00
DE00
ENDCHAR
STARTCHAR 0254
ENCODING 596
SWIDTH 462 0
DWIDTH 9 0
BBX 8 9 0 0
BITMAP
3C
7E
47
03
03
03
47
7E
BC
ENDCHAR
STARTCHAR 0255
ENCODING 597
SWIDTH 462 0
DWIDTH 9 0
BBX 7 10 1 -1
BITMAP
3C
7E
E4
CE
FE
F2
E2
FE
FC
C0
ENDCHAR
STARTCHAR 0256
ENCODING 598
SWIDTH 565 0
DWIDTH 11 0
BBX 10 18 1 -4
BITMAP
0300
0300
0300
0300
0300
3F00
7F00
E300
C300
C300
C300
E300
7F00
3B00
0300
0300
03C0
01C0
ENDCHAR
STARTCHAR 0257
ENCODING 599
SWIDTH 565 0
DWIDTH 11 0
BBX 10 14 1 0
BITMAP
01C0
01C0
0380
0300
0300
3F00
7F00
E300
C300
C300
C300
E300
7F00
3B00
ENDCHAR
STARTCHAR 0258
ENCODING 600
SWIDTH 514 0
DWIDTH 10 0
BBX 8 9 1 0
BITMAP
3C
FE
C6
C3
FF
03
86
FE
7C
ENDCHAR
STARTCHAR 0259
ENCODING 601
SWIDTH 514 0
DWIDTH 10 0
BBX 8 9 1 0
BITMAP
7C
FE
86
03
FF
C3
C6
FE
3C
ENDCHAR
STARTCHAR 025A
ENCODING 602
SWIDTH 668 0
DWIDTH 13 0
BBX 12 9 1 0
BITMAP
7C00
FE80
87C0
0F40
3330
C300
C600
7E00
3C00
ENDCHAR
STARTCHAR 025B
ENCODING 603
SWIDTH 462 0
DWIDTH 9 0
BBX 7 9 1 0
BITMAP
7C
FE
E4
78
78
C0
C4
FE
3C
ENDCHAR
STARTCHAR 025C
ENCODING 604
SWIDTH 462 0
DWIDTH 9 0
BBX 7 9 1 0
BITMAP
78
FC
8C
7C
7C
06
86
FE
78
ENDCHAR
STARTCHAR 025E
ENCODING 606
SWIDTH 565 0
DWIDTH 11 0
BBX 9 9 1 0
BITMAP
7C00
FF00
E300
7B80
7980
C380
C300
FF00
3C00
ENDCHAR
STARTCHAR 025F
ENCODING 607
SWIDTH 308 0
DWIDTH 6 0
BBX 6 13 -1 -4
BITMAP
18
18
18
7C
7C
18
18
18
18
18
18
78
F0
ENDCHAR
STARTCHAR 0260
ENCODING 608
SWIDTH 565 0
DWIDTH 11 0
BBX 10 16 1 -4
BITMAP
01C0
01C0
0380
3F00
7F00
E300
C300
C300
C300
E300
7F00
3F00
0300
4300
7F00
3E00
ENDCHAR
STARTCHAR 0261
ENCODING 609
SWIDTH 565 0
DWIDTH 11 0
BBX 8 13 1 -4
BITMAP
3D
7F
E3
C3
C3
C3
E3
7F
3F
03
43
7F
3E
ENDCHAR
STARTCHAR 0262
ENCODING 610
SWIDTH 514 0
DWIDTH 10 0
BBX 8 9 1 0
BITMAP
3C
7F
E2
C0
CF
CF
E3
7F
3E
ENDCHAR
STARTCHAR 0263
ENCODING 611
SWIDTH 462 0
DWIDTH 9 0
BBX 9 13 0 -4
BITMAP
E180
6180
6300
3300
3200
3600
1E00
1C00
1E00
3600
3600
3E00
1C00
ENDCHAR
STARTCHAR 0264
ENCODING 612
SWIDTH 514 0
DWIDTH 10 0
BBX 10 9 0 0
BITMAP
F3C0
7FC0
0E00
1F00
3300
3180
3380
3F00
1E00
ENDCHAR
STARTCHAR 0265
ENCODING 613
SWIDTH 565 0
DWIDTH 11 0
BBX 8 13 1 -4
BITMAP
C3
C3
C3
C3
C3
C3
E7
7F
7B
03
03
03
03
ENDCHAR
STARTCHAR 0266
ENCODING 614
SWIDTH 565 0
DWIDTH 11 0
BBX 8 14 1 0
BITMAP
3C
78
60
E0
E0
FE
FF
E3
E3
E3
E3
E3
E3
E3
ENDCHAR
STARTCHAR 0267
ENCODING 615
SWIDTH 565 0
DWIDTH 11 0
BBX 8 18 1 -4
BITMAP
3C
78
60
E0
E0
FE
FF
E3
E3
E3
E3
E3
E3
E3
03
03
0F
0E
ENDCHAR
STARTCHAR 0268
ENCODING 616
SWIDTH 308 0
DWIDTH 6 0
BBX 5 13 0 0
BITMAP
30
70
00
00
30
30
30
F8
F8
30
30
30
30
ENDCHAR
STARTCHAR 026A
ENCODING 618
SWIDTH 360 0
DWIDTH 7 0
BBX 5 9 1 0
BITMAP
F8
F8
70
70
70
70
70
F8
F8
ENDCHAR
STARTCHAR 026C
ENCODING 620
SWIDTH 308 0
DWIDTH 6 0
BBX 6 14 0 0
BITMAP
18
18
18
18
18
F8
98
FC
18
18
18
18
1C
1C
ENDCHAR
STARTCHAR 026D
ENCODING 621
SWIDTH 257 0
DWIDTH 5 0
BBX 4 18 1 -4
BITMAP
E0
E0
E0
E0
E0
E0
E0
E0
E0
E0
E0
E0
E0
E0
E0
E0
70
70
ENDCHAR
STARTCHAR 026E
ENCODING 622
SWIDTH 617 0
DWIDTH 12 0
BBX 10 18 1 -4
BITMAP
E000
E000
E000
E000
E000
FFC0
FF80
E180
E300
E600
E700
EF80
E9C0
E0C0
00C0
11C0
3F80
0F00
ENDCHAR
STARTCHAR 026F
ENCODING 623
SWIDTH 822 0
DWIDTH 16 0
BBX 14 9 1 0
BITMAP
E31C
E31C
E31C
E31C
E31C
E31C
E71C
7FFC
79CC
ENDCHAR
STARTCHAR 0270
ENCODING 624
SWIDTH 822 0
DWIDTH 16 0
BBX 14 13 1 -4
BITMAP
E31C
E31C
E31C
E31C
E31C
E31C
E71C
7FFC
79CC
001C
001C
001C
001C
ENDCHAR
STARTCHAR 0271
ENCODING 625
SWIDTH 822 0
DWIDTH 16 0
BBX 14 13 1 -4
BITMAP
CE78
FFF8
E39C
E30C
E30C
E30C
E30C
E30C
E30C
000C
001C
0038
0078
ENDCHAR
STARTCHAR 0272
ENCODING 626
SWIDTH 565 0
DWIDTH 11 0
BBX 10 13 -1 -4
BITMAP
3380
3FC0
38C0
38C0
38C0
38C0
38C0
38C0
38C0
3800
3800
7000
F000
ENDCHAR
STARTCHAR 0273
ENCODING 627
SWIDTH 565 0
DWIDTH 11 0
BBX 10 13 1 -4
BITMAP
CE00
FF00
E300
E300
E300
E300
E300
E300
E300
0300
0300
03C0
01C0
ENDCHAR
STARTCHAR 0274
ENCODING 628
SWIDTH 514 0
DWIDTH 10 0
BBX 8 9 1 0
BITMAP
E3
E3
F3
DB
DB
CF
C7
C7
C3
ENDCHAR
STARTCHAR 0275
ENCODING 629
SWIDTH 514 0
DWIDTH 10 0
BBX 9 9 1 0
BITMAP
3C00
7F00
C300
FF80
FF80
C380
E300
7F00
3C00
ENDCHAR
STARTCHAR 0276
ENCODING 630
SWIDTH 720 0
DWIDTH 14 0
BBX 12 9 1 0
BITMAP
3FF0
7FF0
E300
C3E0
C3E0
C300
E300
7FF0
3FF0
ENDCHAR
STARTCHAR 0278
ENCODING 632
SWIDTH 668 0
DWIDTH 13 0
BBX 12 18 1 -4
BITMAP
0600
0600
0600
0600
0600
3F80
7FE0
E6E0
C670
C670
C670
E6E0
7FC0
1F80
0600
0600
0600
0600
ENDCHAR
STARTCHAR 0279
ENCODING 633
SWIDTH 360 0
DWIDTH 7 0
BBX 6 9 0 0
BITMAP
0C
0C
0C
0C
0C
1C
1C
FC
EC
ENDCHAR
STARTCHAR 027A
ENCODING 634
SWIDTH 360 0
DWIDTH 7 0
BBX 6 14 0 0
BITMAP
0C
0C
0C
0C
0C
0C
0C
0C
0C
0C
1C
1C
EC
CC
ENDCHAR
STARTCHAR 027B
ENCODING 635
SWIDTH 360 0
DWIDTH 7 0
BBX 8 13 0 -4
BITMAP
0C
0C
0C
0C
0C
1C
1C
FC
EC
0C
0C
0E
07
ENDCHAR
STARTCHAR 027D
ENCODING 637
SWIDTH 360 0
DWIDTH 7 0
BBX 6 13 1 -4
BITMAP
CC
DC
F0
E0
E0
E0
E0
E0
E0
E0
E0
70
70
ENDCHAR
STARTCHAR 027E
ENCODING 638
SWIDTH 360 0
DWIDTH 7 0
BBX 6 9 1 0
BITMAP
3C
7C
E0
E0
E0
E0
E0
E0
E0
ENDCHAR
STARTCHAR 0280
ENCODING 640
SWIDTH 514 0
DWIDTH 10 0
BBX 8 9 1 0
BITMAP
FC
E6
E7
E7
FE
FC
EE
E6
E3
ENDCHAR
STARTCHAR 0281
ENCODING 641
SWIDTH 514 0
DWIDTH 10 0
BBX 8 9 0 0
BITMAP
E3
73
3B
1F
3F
63
63
7F
3F
ENDCHAR
STARTCHAR 0282
ENCODING 642
SWIDTH 411 0
DWIDTH 8 0
BBX 8 13 0 -4
BITMAP
3C
7E
62
70
3E
06
47
7E
FC
C0
60
70
38
ENDCHAR
STARTCHAR 0283
ENCODING 643
SWIDTH 257 0
DWIDTH 5 0
BBX 7 18 -1 -4
BITMAP
0E
1E
38
38
38
38
38
38
38
38
38
38
38
38
38
38
F0
E0
ENDCHAR
STARTCHAR 0284
ENCODING 644
SWIDTH 308 0
DWIDTH 6 0
BBX 7 18 -1 -4
BITMAP
0E
1E
18
18
18
18
18
18
18
7C
18
18
18
18
18
18
78
F0
ENDCHAR
STARTCHAR 0288
ENCODING 648
SWIDTH 360 0
DWIDTH 7 0
BBX 7 16 0 -4
BITMAP
30
30
30
FC
FC
30
30
30
30
30
30
30
30
30
3C
1E
ENDCHAR
STARTCHAR 0289
ENCODING 649
SWIDTH 565 0
DWIDTH 11 0
BBX 11 9 0 0
BITMAP
31C0
31C0
31C0
FFE0
31C0
31C0
31C0
3FC0
1CC0
ENDCHAR
STARTCHAR 028A
ENCODING 650
SWIDTH 514 0
DWIDTH 10 0
BBX 9 9 1 0
BITMAP
E780
E780
6300
C300
C380
C380
E300
7F00
3E00
ENDCHAR
STARTCHAR 028B
ENCODING 651
SWIDTH 514 0
DWIDTH 10 0
BBX 8 9 1 0
BITMAP
CE
CF
C3
C3
C3
E3
E7
7E
3C
ENDCHAR
STARTCHAR 028C
ENCODING 652
SWIDTH 462 0
DWIDTH 9 0
BBX 9 9 0 0
BITMAP
1C00
1C00
1600
3600
3300
6300
6300
6380
E180
ENDCHAR
STARTCHAR 028D
ENCODING 653
SWIDTH 720 0
DWIDTH 14 0
BBX 14 9 0 0
BITMAP
1C60
3CF0
3CF0
34B0
36B8
6798
6798
6318
E31C
ENDCHAR
STARTCHAR 028E
ENCODING 654
SWIDTH 462 0
DWIDTH 9 0
BBX 9 14 0 0
BITMAP
0380
0780
0C00
0C00
1C00
1C00
1C00
3600
3600
3600
6300
6300
6380
C180
ENDCHAR
STARTCHAR 028F
ENCODING 655
SWIDTH 411 0
DWIDTH 8 0
BBX 8 9 0 0
BITMAP
C3
63
66
36
3C
1C
18
18
18
ENDCHAR
STARTCHAR 0290
ENCODING 656
SWIDTH 411 0
DWIDTH 8 0
BBX 9 13 1 -4
BITMAP
FE00
FE00
0C00
1800
3000
7000
E000
FE00
FE00
0600
0600
0700
0380
ENDCHAR
STARTCHAR 0291
ENCODING 657
SWIDTH 462 0
DWIDTH 9 0
BBX 8 11 1 -2
BITMAP
FE
FC
0C
18
37
6D
69
FF
FE
10
10
ENDCHAR
STARTCHAR 0292
ENCODING 658
SWIDTH 411 0
DWIDTH 8 0
BBX 8 13 0 -4
BITMAP
7F
7E
04
0C
18
3E
3F
07
03
03
47
FE
3C
ENDCHAR
STARTCHAR 0294
ENCODING 660
SWIDTH 411 0
DWIDTH 8 0
BBX 8 14 0 0
BITMAP
3C
FE
C7
03
03
07
0E
1C
18
18
18
18
18
18
ENDCHAR
STARTCHAR 0295
ENCODING 661
SWIDTH 462 0
DWIDTH 9 0
BBX 8 14 1 0
BITMAP
3C
FE
E3
C0
C0
C0
E0
70
18
18
18
18
18
18
ENDCHAR
STARTCHAR 0298
ENCODING 664
SWIDTH 514 0
DWIDTH 10 0
BBX 8 14 1 0
BITMAP
3C
7E
67
E3
C3
C3
DB
DB
C3
C3
E3
67
7E
3C
ENDCHAR
STARTCHAR 0299
ENCODING 665
SWIDTH 514 0
DWIDTH 10 0
BBX 8 9 1 0
BITMAP
FE
FF
E3
FE
FE
E3
E3
FF
FE
ENDCHAR
STARTCHAR 029C
ENCODING 668
SWIDTH 565 0
DWIDTH 11 0
BBX 9 9 1 0
BITMAP
E380
E380
E380
FF80
FF80
E380
E380
E380
E380
ENDCHAR
STARTCHAR 029D
ENCODING 669
SWIDTH 308 0
DWIDTH 6 0
BBX 8 18 -1 -5
BITMAP
1C
1C
00
00
0C
0C
0C
0C
0C
0C
0C
0C
7C
DC
DC
FE
76
03
ENDCHAR
STARTCHAR 029F
ENCODING 671
SWIDTH 411 0
DWIDTH 8 0
BBX 7 9 1 0
BITMAP
E0
E0
E0
E0
E0
E0
E0
FE
FE
ENDCHAR
STARTCHAR 02A1
ENCODING 673
SWIDTH 462 0
DWIDTH 9 0
BBX 8 14 0 0
BITMAP
3C
7E
C7
03
03
03
06
0C
FF
FF
18
18
18
18
ENDCHAR
STARTCHAR 02A2
ENCODING 674
SWIDTH 462 0
DWIDTH 9 0
BBX 9 14 0 0
BITMAP
1E00
7F00
6180
6000
6000
6000
7000
3800
FF80
FF80
0C00
0C00
0C00
0C00
ENDCHAR
STARTCHAR 02B0
ENCODING 688
SWIDTH 360 0
DWIDTH 7 0
BBX 5 9 1 7
BITMAP
80
80
B8
C8
88
88
88
88
88
ENDCHAR
STARTCHAR 02B2
ENCODING 690
SWIDTH 154 0
DWIDTH 3 0
BBX 4 11 -1 5
BITMAP
30
30
00
30
30
30
30
30
30
20
E0
ENDCHAR
STARTCHAR 02B3
ENCODING 691
SWIDTH 257 0
DWIDTH 5 0
BBX 4 7 1 7
BITMAP
B0
C0
80
80
80
80
80
ENDCHAR
STARTCHAR 02B7
ENCODING 695
SWIDTH 514 0
DWIDTH 10 0
BBX 9 7 0 7
BITMAP
CC80
4C80
4D80
7D80
7700
3300
3300
ENDCHAR
STARTCHAR 02B8
ENCODING 696
SWIDTH 308 0
DWIDTH 6 0
BBX 6 9 0 5
BITMAP
C4
4C
68
28
38
30
10
30
60
ENDCHAR
STARTCHAR 02B9
ENCODING 697
SWIDTH 257 0
DWIDTH 5 0
BBX 2 5 2 8
BITMAP
C0
C0
C0
80
80
ENDCHAR
STARTCHAR 02BB
ENCODING 699
SWIDTH 257 0
DWIDTH 5 0
BBX 3 5 1 8
BITMAP
60
C0
80
E0
E0
ENDCHAR
STARTCHAR 02BC
ENCODING 700
SWIDTH 257 0
DWIDTH 5 0
BBX 3 5 1 8
BITMAP
60
E0
20
60
C0
ENDCHAR
STARTCHAR 02BE
ENCODING 702
SWIDTH 154 0
DWIDTH 3 0
BBX 2 4 1 10
BITMAP
80
40
40
80
ENDCHAR
STARTCHAR 02BF
ENCODING 703
SWIDTH 154 0
DWIDTH 3 0
BBX 3 4 0 10
BITMAP
60
C0
C0
60
ENDCHAR
STARTCHAR 02C1
ENCODING 705
SWIDTH 308 0
DWIDTH 6 0
BBX 6 10 0 7
BITMAP
38
7C
C8
40
40
30
10
10
10
10
ENDCHAR
STARTCHAR 02C6
ENCODING 710
SWIDTH 514 0
DWIDTH 10 0
BBX 6 3 2 11
BITMAP
38
6C
C4
ENDCHAR
STARTCHAR 02C7
ENCODING 711
SWIDTH 514 0
DWIDTH 10 0
BBX 6 3 2 11
BITMAP
C4
6C
38
ENDCHAR
STARTCHAR 02C8
ENCODING 712
SWIDTH 102 0
DWIDTH 2 0
BBX 2 4 0 10
BITMAP
C0
C0
C0
C0
ENDCHAR
STARTCHAR 02C9
ENCODING 713
SWIDTH 308 0
DWIDTH 6 0
BBX 5 1 0 11
BITMAP
F8
ENDCHAR
STARTCHAR 02CA
ENCODING 714
SWIDTH 205 0
DWIDTH 4 0
BBX 4 4 1 11
BITMAP
20
70
60
C0
ENDCHAR
STARTCHAR 02CB
ENCODING 715
SWIDTH 205 0
DWIDTH 4 0
BBX 4 4 -1 11
BITMAP
40
E0
70
10
ENDCHAR
STARTCHAR 02CC
ENCODING 716
SWIDTH 102 0
DWIDTH 2 0
BBX 2 4 0 -5
BITMAP
C0
C0
C0
C0
ENDCHAR
STARTCHAR 02D0
ENCODING 720
SWIDTH 257 0
DWIDTH 5 0
BBX 3 9 1 0
BITMAP
E0
60
40
00
00
00
40
60
E0
ENDCHAR
STARTCHAR 02D1
ENCODING 721
SWIDTH 257 0
DWIDTH 5 0
BBX 3 3 1 5
BITMAP
E0
60
40
ENDCHAR
STARTCHAR 02D8
ENCODING 728
SWIDTH 514 0
DWIDTH 10 0
BBX 6 3 2 11
BITMAP
84
CC
78
ENDCHAR
STARTCHAR 02D9
ENCODING 729
SWIDTH 514 0
DWIDTH 10 0
BBX 3 2 4 11
BITMAP
C0
E0
ENDCHAR
STARTCHAR 02DA
ENCODING 730
SWIDTH 514 0
DWIDTH 10 0
BBX 5 4 3 11
BITMAP
70
90
98
70
ENDCHAR
STARTCHAR 02DB
ENCODING 731
SWIDTH 514 0
DWIDTH 10 0
BBX 3 4 4 -4
BITMAP
40
80
80
E0
ENDCHAR
STARTCHAR 02DC
ENCODING 732
SWIDTH 514 0
DWIDTH 10 0
BBX 7 4 2 11
BITMAP
66
F6
9C
9C
ENDCHAR
STARTCHAR 02DD
ENCODING 733
SWIDTH 514 0
DWIDTH 10 0
BBX 6 4 3 11
BITMAP
68
6C
48
D8
ENDCHAR
STARTCHAR 02DE
ENCODING 734
SWIDTH 154 0
DWIDTH 3 0
BBX 6 5 -2 4
BITMAP
20
60
F0
B8
1C
ENDCHAR
STARTCHAR 02E0
ENCODING 736
SWIDTH 308 0
DWIDTH 6 0
BBX 6 9 0 5
BITMAP
C4
4C
68
28
38
30
38
68
38
ENDCHAR
STARTCHAR 02E1
ENCODING 737
SWIDTH 205 0
DWIDTH 4 0
BBX 2 9 1 7
BITMAP
80
80
80
80
80
80
80
80
C0
ENDCHAR
STARTCHAR 02E2
ENCODING 738
SWIDTH 308 0
DWIDTH 6 0
BBX 5 7 0 7
BITMAP
78
50
60
78
18
88
70
ENDCHAR
STARTCHAR 02E3
ENCODING 739
SWIDTH 308 0
DWIDTH 6 0
BBX 6 7 0 7
BITMAP
CC
68
38
30
38
68
CC
ENDCHAR
STARTCHAR 0300
ENCODING 768
SWIDTH 0 0
DWIDTH 0 0
BBX 4 4 -3 11
BITMAP
40
E0
70
30
ENDCHAR
STARTCHAR 0301
ENCODING 769
SWIDTH 0 0
DWIDTH 0 0
BBX 4 4 -1 11
BITMAP
20
70
E0
C0
ENDCHAR
STARTCHAR 0302
ENCODING 770
SWIDTH 0 0
DWIDTH 0 0
BBX 6 3 -3 11
BITMAP
78
78
84
ENDCHAR
STARTCHAR 0303
ENCODING 771
SWIDTH 0 0
DWIDTH 0 0
BBX 6 4 -3 11
BITMAP
64
F4
BC
9C
ENDCHAR
STARTCHAR 0304
ENCODING 772
SWIDTH 0 0
DWIDTH 0 0
BBX 6 1 -3 11
BITMAP
FC
ENDCHAR
STARTCHAR 0305
ENCODING 773
SWIDTH 0 0
DWIDTH 0 0
BBX 6 1 -3 11
BITMAP
FC
ENDCHAR
STARTCHAR 0306
ENCODING 774
SWIDTH 0 0
DWIDTH 0 0
BBX 6 3 -3 11
BITMAP
84
CC
78
ENDCHAR
STARTCHAR 0307
ENCODING 775
SWIDTH 0 0
DWIDTH 0 0
BBX 2 2 -1 11
BITMAP
C0
C0
ENDCHAR
STARTCHAR 0308
ENCODING 776
SWIDTH 0 0
DWIDTH 0 0
BBX 6 2 -3 11
BITMAP
CC
CC
ENDCHAR
STARTCHAR 0309
ENCODING 777
SWIDTH 0 0
DWIDTH 0 0
BBX 4 4 -2 11
BITMAP
60
B0
30
60
ENDCHAR
STARTCHAR 030A
ENCODING 778
SWIDTH 0 0
DWIDTH 0 0
BBX 4 4 -2 11
BITMAP
F0
90
90
F0
ENDCHAR
STARTCHAR 030B
ENCODING 779
SWIDTH 0 0
DWIDTH 0 0
BBX 6 4 -2 11
BITMAP
68
6C
C8
98
ENDCHAR
STARTCHAR 030C
ENCODING 780
SWIDTH 0 0
DWIDTH 0 0
BBX 6 3 -3 11
BITMAP
84
78
78
ENDCHAR
STARTCHAR 030F
ENCODING 783
SWIDTH 0 0
DWIDTH 0 0
BBX 6 4 -4 11
BITMAP
D8
D8
6C
24
ENDCHAR
STARTCHAR 0311
ENCODING 785
SWIDTH 0 0
DWIDTH 0 0
BBX 6 3 -3 11
BITMAP
78
CC
84
ENDCHAR
STARTCHAR 0312
ENCODING 786
SWIDTH 0 0
DWIDTH 0 0
BBX 2 4 -1 11
BITMAP
40
80
C0
C0
ENDCHAR
STARTCHAR 0313
ENCODING 787
SWIDTH 0 0
DWIDTH 0 0
BBX 2 4 -1 11
BITMAP
C0
C0
40
80
ENDCHAR
STARTCHAR 0318
ENCODING 792
SWIDTH 0 0
DWIDTH 0 0
BBX 4 4 -2 -5
BITMAP
10
F0
F0
10
ENDCHAR
STARTCHAR 0319
ENCODING 793
SWIDTH 0 0
DWIDTH 0 0
BBX 4 4 -2 -5
BITMAP
80
F0
F0
80
ENDCHAR
STARTCHAR 031A
ENCODING 794
SWIDTH 0 0
DWIDTH 0 0
BBX 4 4 -2 10
BITMAP
F0
F0
10
10
ENDCHAR
STARTCHAR 031B
ENCODING 795
SWIDTH 0 0
DWIDTH 0 0
BBX 3 4 0 8
BITMAP
60
60
60
C0
ENDCHAR
STARTCHAR 031C
ENCODING 796
SWIDTH 0 0
DWIDTH 0 0
BBX 2 4 -1 -5
BITMAP
C0
80
80
C0
ENDCHAR
STARTCHAR 031D
ENCODING 797
SWIDTH 0 0
DWIDTH 0 0
BBX 4 4 -2 -5
BITMAP
60
60
F0
F0
ENDCHAR
STARTCHAR 031E
ENCODING 798
SWIDTH 0 0
DWIDTH 0 0
BBX 4 4 -2 -5
BITMAP
F0
F0
60
60
ENDCHAR
STARTCHAR 031F
ENCODING 799
SWIDTH 0 0
DWIDTH 0 0
BBX 4 4 -2 -5
BITMAP
60
F0
F0
60
ENDCHAR
STARTCHAR 0320
ENCODING 800
SWIDTH 0 0
DWIDTH 0 0
BBX 4 2 -2 -4
BITMAP
F0
F0
ENDCHAR
STARTCHAR 0323
ENCODING 803
SWIDTH 0 0
DWIDTH 0 0
BBX 2 2 -1 -4
BITMAP
C0
C0
ENDCHAR
STARTCHAR 0324
ENCODING 804
SWIDTH 0 0
DWIDTH 0 0
BBX 6 2 -3 -4
BITMAP
CC
CC
ENDCHAR
STARTCHAR 0325
ENCODING 805
SWIDTH 0 0
DWIDTH 0 0
BBX 4 4 -2 -4
BITMAP
F0
90
90
F0
ENDCHAR
STARTCHAR 0326
ENCODING 806
SWIDTH 0 0
DWIDTH 0 0
BBX 4 4 -2 -5
BITMAP
60
30
30
E0
ENDCHAR
STARTCHAR 0327
ENCODING 807
SWIDTH 0 0
DWIDTH 0 0
BBX 4 5 -2 -5
BITMAP
60
60
30
30
E0
ENDCHAR
STARTCHAR 0328
ENCODING 808
SWIDTH 0 0
DWIDTH 0 0
BBX 3 4 -1 -4
BITMAP
40
80
80
E0
ENDCHAR
STARTCHAR 0329
ENCODING 809
SWIDTH 0 0
DWIDTH 0 0
BBX 2 4 -1 -5
BITMAP
C0
C0
C0
C0
ENDCHAR
STARTCHAR 032A
ENCODING 810
SWIDTH 0 0
DWIDTH 0 0
BBX 4 4 -2 -5
BITMAP
F0
F0
90
90
ENDCHAR
STARTCHAR 032C
ENCODING 812
SWIDTH 0 0
DWIDTH 0 0
BBX 6 3 -3 -4
BITMAP
84
78
78
ENDCHAR
STARTCHAR 032E
ENCODING 814
SWIDTH 0 0
DWIDTH 0 0
BBX 6 3 -3 -4
BITMAP
84
CC
78
ENDCHAR
STARTCHAR 032F
ENCODING 815
SWIDTH 0 0
DWIDTH 0 0
BBX 6 3 -3 -4
BITMAP
78
CC
84
ENDCHAR
STARTCHAR 0330
ENCODING 816
SWIDTH 0 0
DWIDTH 0 0
BBX 6 4 -3 -4
BITMAP
64
F4
BC
9C
ENDCHAR
STARTCHAR 0331
ENCODING 817
SWIDTH 0 0
DWIDTH 0 0
BBX 6 1 -3 -4
BITMAP
FC
ENDCHAR
STARTCHAR 0334
ENCODING 820
SWIDTH 0 0
DWIDTH 0 0
BBX 6 4 -3 4
BITMAP
64
F4
BC
9C
ENDCHAR
STARTCHAR 0339
ENCODING 825
SWIDTH 0 0
DWIDTH 0 0
BBX 2 4 -1 -5
BITMAP
C0
40
40
C0
ENDCHAR
STARTCHAR 033A
ENCODING 826
SWIDTH 0 0
DWIDTH 0 0
BBX 4 4 -2 -5
BITMAP
90
90
F0
F0
ENDCHAR
STARTCHAR 033B
ENCODING 827
SWIDTH 0 0
DWIDTH 0 0
BBX 4 4 -2 -5
BITMAP
F0
90
90
F0
ENDCHAR
STARTCHAR 033C
ENCODING 828
SWIDTH 0 0
DWIDTH 0 0
BBX 6 4 -3 -5
BITMAP
CC
FC
B4
B4
ENDCHAR
STARTCHAR 033D
ENCODING 829
SWIDTH 0 0
DWIDTH 0 0
BBX 4 4 -2 10
BITMAP
A0
70
60
B0
ENDCHAR
STARTCHAR 0342
ENCODING 834
SWIDTH 0 0
DWIDTH 0 0
BBX 6 4 -3 11
BITMAP
64
F4
BC
9C
ENDCHAR
STARTCHAR 0345
ENCODING 837
SWIDTH 0 0
DWIDTH 0 0
BBX 3 2 -1 -4
BITMAP
C0
E0
ENDCHAR
STARTCHAR 0361
ENCODING 865
SWIDTH 0 0
DWIDTH 0 0
BBX 18 3 -9 11
BITMAP
0FFC00
780780
C000C0
ENDCHAR
STARTCHAR 0374
ENCODING 884
SWIDTH 257 0
DWIDTH 5 0
BBX 2 5 2 8
BITMAP
C0
C0
C0
80
80
ENDCHAR
STARTCHAR 0375
ENCODING 885
SWIDTH 257 0
DWIDTH 5 0
BBX 3 5 1 0
BITMAP
60
60
40
C0
C0
ENDCHAR
STARTCHAR 037A
ENCODING 890
SWIDTH 514 0
DWIDTH 10 0
BBX 3 2 4 -4
BITMAP
C0
60
ENDCHAR
STARTCHAR 037E
ENCODING 894
SWIDTH 257 0
DWIDTH 5 0
BBX 3 13 1 -3
BITMAP
60
E0
60
00
00
00
00
60
E0
60
20
60
C0
ENDCHAR
STARTCHAR 0384
ENCODING 900
SWIDTH 514 0
DWIDTH 10 0
BBX 3 4 4 11
BITMAP
60
60
40
C0
ENDCHAR
STARTCHAR 0385
ENCODING 901
SWIDTH 514 0
DWIDTH 10 0
BBX 7 4 2 11
BITMAP
18
10
D4
F6
ENDCHAR
STARTCHAR 0386
ENCODING 902
SWIDTH 565 0
DWIDTH 11 0
BBX 11 12 0 0
BITMAP
C600
CF00
CF00
CB00
1980
1980
1980
3FC0
3FC0
70C0
6060
6060
ENDCHAR
STARTCHAR 0387
ENCODING 903
SWIDTH 257 0
DWIDTH 5 0
BBX 3 3 1 7
BITMAP
60
E0
60
ENDCHAR
STARTCHAR 0388
ENCODING 904
SWIDTH 617 0
DWIDTH 12 0
BBX 11 12 0 0
BITMAP
DFE0
DFE0
DC00
9C00
1C00
1FC0
1FC0
1C00
1C00
1C00
1FE0
1FE0
ENDCHAR
STARTCHAR 0389
ENCODING 905
SWIDTH 720 0
DWIDTH 14 0
BBX 13 12 0 0
BITMAP
DC18
DC18
DC18
9C18
1C18
1FF8
1FF8
1C18
1C18
1C18
1C18
1C18
ENDCHAR
STARTCHAR 038A
ENCODING 906
SWIDTH 360 0
DWIDTH 7 0
BBX 6 12 0 0
BITMAP
DC
DC
DC
9C
1C
1C
1C
1C
1C
1C
1C
1C
ENDCHAR
STARTCHAR 038C
ENCODING 908
SWIDTH 720 0
DWIDTH 14 0
BBX 13 12 0 0
BITMAP
C7C0
CFF0
DC70
9838
3818
3818
3818
3818
1838
1C70
0FF0
07C0
ENDCHAR
STARTCHAR 038E
ENCODING 910
SWIDTH 617 0
DWIDTH 12 0
BBX 12 12 0 0
BITMAP
D830
CC30
CC60
8660
06C0
03C0
0380
0180
0180
0180
0180
0180
ENDCHAR
STARTCHAR 038F
ENCODING 911
SWIDTH 771 0
DWIDTH 15 0
BBX 14 12 0 0
BITMAP
C7C0
CFF0
9C38
9818
1818
3818
1818
1818
1838
0C30
3E7C
3E7C
ENDCHAR
STARTCHAR 0390
ENCODING 912
SWIDTH 257 0
DWIDTH 5 0
BBX 7 15 -1 0
BITMAP
18
18
D6
D6
00
00
38
38
38
38
30
30
30
1C
1C
ENDCHAR
STARTCHAR 0391
ENCODING 913
SWIDTH 565 0
DWIDTH 11 0
BBX 11 12 0 0
BITMAP
0E00
0E00
1A00
1B00
3300
3300
3180
7F80
7F80
60C0
E0C0
C0E0
ENDCHAR
STARTCHAR 0392
ENCODING 914
SWIDTH 565 0
DWIDTH 11 0
BBX 9 12 2 0
BITMAP
FC00
FF00
C700
C300
C700
FE00
FF00
C300
C380
C380
FF00
FE00
ENDCHAR
STARTCHAR 0393
ENCODING 915
SWIDTH 514 0
DWIDTH 10 0
BBX 7 12 2 0
BITMAP
FE
FE
C0
C0
C0
C0
C0
C0
C0
C0
C0
C0
ENDCHAR
STARTCHAR 0394
ENCODING 916
SWIDTH 617 0
DWIDTH 12 0
BBX 10 12 1 0
BITMAP
1C00
1E00
1600
3600
3300
3300
6380
6180
C180
C1C0
FFC0
FFC0
ENDCHAR
STARTCHAR 0395
ENCODING 917
SWIDTH 514 0
DWIDTH 10 0
BBX 7 12 2 0
BITMAP
FE
FE
C0
C0
C0
FC
FC
C0
C0
C0
FE
FE
ENDCHAR
STARTCHAR 0396
ENCODING 918
SWIDTH 514 0
DWIDTH 10 0
BBX 9 12 1 0
BITMAP
FF80
FF00
0600
0600
0C00
1800
1800
3000
6000
6000
FF80
FF80
ENDCHAR
STARTCHAR 0397
ENCODING 919
SWIDTH 668 0
DWIDTH 13 0
BBX 9 12 2 0
BITMAP
C180
C180
C180
C180
C180
FF80
FF80
C180
C180
C180
C180
C180
ENDCHAR
STARTCHAR 0398
ENCODING 920
SWIDTH 668 0
DWIDTH 13 0
BBX 11 12 1 0
BITMAP
1F00
3F80
71C0
E0E0
C0E0
DE60
DE60
C0E0
E0C0
71C0
3F80
1F00
ENDCHAR
STARTCHAR 0399
ENCODING 921
SWIDTH 257 0
DWIDTH 5 0
BBX 2 12 2 0
BITMAP
C0
C0
C0
C0
C0
C0
C0
C0
C0
C0
C0
C0
ENDCHAR
STARTCHAR 039A
ENCODING 922
SWIDTH 565 0
DWIDTH 11 0
BBX 9 12 2 0
BITMAP
C380
C600
CE00
DC00
D800
F800
EC00
EE00
C600
C700
C300
C180
ENDCHAR
STARTCHAR 039B
ENCODING 923
SWIDTH 514 0
DWIDTH 10 0
BBX 10 12 0 0
BITMAP
0E00
1E00
1E00
1F00
3300
3300
3300
6180
6180
6180
E1C0
C0C0
ENDCHAR
STARTCHAR 039C
ENCODING 924
SWIDTH 720 0
DWIDTH 14 0
BBX 11 12 2 0
BITMAP
C0E0
E0E0
E1E0
A160
B360
F360
DA60
DE60
DE60
CC60
CC60
C060
ENDCHAR
STARTCHAR 039D
ENCODING 925
SWIDTH 617 0
DWIDTH 12 0
BBX 9 12 2 0
BITMAP
C180
E180
E180
B180
F180
D980
DD80
CD80
C780
C780
C380
C380
ENDCHAR
STARTCHAR 039E
ENCODING 926
SWIDTH 514 0
DWIDTH 10 0
BBX 9 12 1 0
BITMAP
FF00
FF00
0000
0000
0000
7E00
7E00
0000
0000
0000
FF80
FF80
ENDCHAR
STARTCHAR 039F
ENCODING 927
SWIDTH 668 0
DWIDTH 13 0
BBX 11 12 1 0
BITMAP
1F00
3F80
71C0
E0E0
C0E0
C060
C060
C0E0
E0C0
71C0
3F80
1F00
ENDCHAR
STARTCHAR 03A0
ENCODING 928
SWIDTH 617 0
DWIDTH 12 0
BBX 9 12 2 0
BITMAP
FF80
FF80
C180
C180
C180
C180
C180
C180
C180
C180
C180
C180
ENDCHAR
STARTCHAR 03A1
ENCODING 929
SWIDTH 565 0
DWIDTH 11 0
BBX 8 12 2 0
BITMAP
FC
FF
C3
C3
C3
C7
FE
FC
C0
C0
C0
C0
ENDCHAR
STARTCHAR 03A3
ENCODING 931
SWIDTH 514 0
DWIDTH 10 0
BBX 9 12 1 0
BITMAP
FF00
FF00
6000
3000
1800
1C00
1C00
3800
3000
6000
FF80
FF80
ENDCHAR
STARTCHAR 03A4
ENCODING 932
SWIDTH 514 0
DWIDTH 10 0
BBX 10 12 0 0
BITMAP
FFC0
FFC0
0C00
0C00
0C00
0C00
0C00
0C00
0C00
0C00
0C00
0C00
ENDCHAR
STARTCHAR 03A5
ENCODING 933
SWIDTH 514 0
DWIDTH 10 0
BBX 10 12 0 0
BITMAP
E1C0
6180
6300
3300
3600
1E00
1C00
0C00
0C00
0C00
0C00
0C00
ENDCHAR
STARTCHAR 03A6
ENCODING 934
SWIDTH 720 0
DWIDTH 14 0
BBX 12 13 1 0
BITMAP
0600
0600
1F80
7FE0
E670
C630
C630
C630
C630
6670
7FE0
1F80
0600
ENDCHAR
STARTCHAR 03A7
ENCODING 935
SWIDTH 514 0
DWIDTH 10 0
BBX 10 12 0 0
BITMAP
E1C0
7180
3300
3B00
1E00
0E00
1E00
1E00
3300
3380
6180
E1C0
ENDCHAR
STARTCHAR 03A8
ENCODING 936
SWIDTH 720 0
DWIDTH 14 0
BBX 12 12 1 0
BITMAP
C630
C630
C630
C630
C670
6660
7FE0
3F80
0600
0600
0600
0600
ENDCHAR
STARTCHAR 03A9
ENCODING 937
SWIDTH 668 0
DWIDTH 13 0
BBX 11 12 1 0
BITMAP
1F00
3FC0
71C0
E0E0
E060
C060
C060
E060
60C0
3180
F9E0
F9E0
ENDCHAR
STARTCHAR 03AA
ENCODING 938
SWIDTH 257 0
DWIDTH 5 0
BBX 6 16 0 0
BITMAP
CC
CC
00
00
30
30
30
30
30
30
30
30
30
30
30
30
ENDCHAR
STARTCHAR 03AB
ENCODING 939
SWIDTH 514 0
DWIDTH 10 0
BBX 10 16 0 0
BITMAP
3300
3300
0000
0000
E1C0
6180
6300
3300
3600
1E00
1C00
0C00
0C00
0C00
0C00
0C00
ENDCHAR
STARTCHAR 03AC
ENCODING 940
SWIDTH 565 0
DWIDTH 11 0
BBX 10 15 1 0
BITMAP
0E00
0C00
0C00
0800
0000
0000
3D80
7D80
E780
C300
C300
C300
E700
7FC0
39C0
ENDCHAR
STARTCHAR 03AD
ENCODING 941
SWIDTH 462 0
DWIDTH 9 0
BBX 7 15 1 0
BITMAP
0C
18
18
18
00
00
7C
FE
C4
78
F8
C0
C2
FE
7C
ENDCHAR
STARTCHAR 03AE
ENCODING 942
SWIDTH 514 0
DWIDTH 10 0
BBX 8 18 1 -3
BITMAP
0E
0C
0C
0C
00
00
CE
DF
F3
E3
E3
E3
E3
E3
E3
03
03
03
ENDCHAR
STARTCHAR 03AF
ENCODING 943
SWIDTH 257 0
DWIDTH 5 0
BBX 4 15 1 0
BITMAP
70
60
60
40
00
00
E0
E0
E0
E0
C0
C0
C0
70
70
ENDCHAR
STARTCHAR 03B0
ENCODING 944
SWIDTH 514 0
DWIDTH 10 0
BBX 8 15 1 0
BITMAP
08
18
5E
56
00
00
C6
C3
C3
C3
C3
C3
E7
7E
3C
ENDCHAR
STARTCHAR 03B1
ENCODING 945
SWIDTH 565 0
DWIDTH 11 0
BBX 10 9 1 0
BITMAP
3D80
7D80
E780
C300
C300
C300
E700
7FC0
39C0
ENDCHAR
STARTCHAR 03B2
ENCODING 946
SWIDTH 565 0
DWIDTH 11 0
BBX 9 17 1 -3
BITMAP
3E00
7F00
6300
E300
E300
C600
CF00
CF80
C180
C180
C180
E380
FF80
CE00
C000
E000
E000
ENDCHAR
STARTCHAR 03B3
ENCODING 947
SWIDTH 514 0
DWIDTH 10 0
BBX 9 12 0 -3
BITMAP
E180
6180
3180
3300
3300
1B00
1E00
1C00
0C00
0C00
0C00
0C00
ENDCHAR
STARTCHAR 03B4
ENCODING 948
SWIDTH 514 0
DWIDTH 10 0
BBX 8 14 1 0
BITMAP
3E
7F
61
60
38
1C
7E
63
C3
C3
C3
E3
7F
3C
ENDCHAR
STARTCHAR 03B5
ENCODING 949
SWIDTH 462 0
DWIDTH 9 0
BBX 7 9 1 0
BITMAP
7C
FE
C4
78
F8
C0
C2
FE
7C
ENDCHAR
STARTCHAR 03B6
ENCODING 950
SWIDTH 411 0
DWIDTH 8 0
BBX 7 17 1 -3
BITMAP
FE
FE
0C
18
30
70
60
C0
C0
C0
C0
E0
7C
3E
06
06
0C
ENDCHAR
STARTCHAR 03B7
ENCODING 951
SWIDTH 514 0
DWIDTH 10 0
BBX 8 12 1 -3
BITMAP
CE
DF
F3
E3
E3
E3
E3
E3
E3
03
03
03
ENDCHAR
STARTCHAR 03B8
ENCODING 952
SWIDTH 514 0
DWIDTH 10 0
BBX 8 14 1 0
BITMAP
3C
7E
66
E3
C3
C3
FF
FF
C3
C3
E3
66
7E
3C
ENDCHAR
STARTCHAR 03B9
ENCODING 953
SWIDTH 257 0
DWIDTH 5 0
BBX 4 9 1 0
BITMAP
E0
E0
E0
E0
C0
C0
C0
70
70
ENDCHAR
STARTCHAR 03BA
ENCODING 954
SWIDTH 514 0
DWIDTH 10 0
BBX 9 9 1 0
BITMAP
C100
E700
EE00
F800
FC00
EC00
E600
E700
C380
ENDCHAR
STARTCHAR 03BB
ENCODING 955
SWIDTH 514 0
DWIDTH 10 0
BBX 10 14 0 0
BITMAP
7000
7800
1C00
0C00
0E00
0E00
1E00
1B00
1B00
3300
3380
7180
6180
E1C0
ENDCHAR
STARTCHAR 03BC
ENCODING 956
SWIDTH 565 0
DWIDTH 11 0
BBX 10 12 1 -3
BITMAP
E300
E300
E300
E300
E300
E300
E700
FFC0
D9C0
C000
C000
E000
ENDCHAR
STARTCHAR 03BD
ENCODING 957
SWIDTH 462 0
DWIDTH 9 0
BBX 9 9 0 0
BITMAP
E180
6180
7180
3300
3300
1B00
1E00
1E00
1C00
ENDCHAR
STARTCHAR 03BE
ENCODING 958
SWIDTH 462 0
DWIDTH 9 0
BBX 8 17 0 -3
BITMAP
FF
FF
38
30
30
38
1E
3E
70
60
60
70
3E
1F
03
03
07
ENDCHAR
STARTCHAR 03BF
ENCODING 959
SWIDTH 514 0
DWIDTH 10 0
BBX 9 9 1 0
BITMAP
3C00
7F00
E300
C300
C380
C300
E300
7F00
3C00
ENDCHAR
STARTCHAR 03C0
ENCODING 960
SWIDTH 617 0
DWIDTH 12 0
BBX 11 9 0 0
BITMAP
FFE0
FFE0
3980
3180
3180
3180
3180
31E0
30E0
ENDCHAR
STARTCHAR 03C1
ENCODING 961
SWIDTH 565 0
DWIDTH 11 0
BBX 9 12 1 -3
BITMAP
3E00
7F00
6380
C380
C180
C380
E300
FF00
DE00
C000
C000
E000
ENDCHAR
STARTCHAR 03C2
ENCODING 962
SWIDTH 411 0
DWIDTH 8 0
BBX 7 12 1 -3
BITMAP
3C
7E
E4
C0
C0
C0
E0
7C
3C
0C
0C
0C
ENDCHAR
STARTCHAR 03C3
ENCODING 963
SWIDTH 565 0
DWIDTH 11 0
BBX 9 9 1 0
BITMAP
3F80
7F80
E600
C300
C300
C300
E700
7E00
3C00
ENDCHAR
STARTCHAR 03C4
ENCODING 964
SWIDTH 462 0
DWIDTH 9 0
BBX 9 9 0 0
BITMAP
FF80
FF80
1C00
1C00
1C00
1800
1C00
0E00
0F00
ENDCHAR
STARTCHAR 03C5
ENCODING 965
SWIDTH 514 0
DWIDTH 10 0
BBX 8 9 1 0
BITMAP
C6
C3
C3
C3
C3
C3
E7
7E
3C
ENDCHAR
STARTCHAR 03C6
ENCODING 966
SWIDTH 668 0
DWIDTH 13 0
BBX 12 15 1 -3
BITMAP
0600
0600
0600
3F80
7FE0
E6E0
C670
C670
C670
E6E0
7FC0
1F80
0600
0600
0600
ENDCHAR
STARTCHAR 03C7
ENCODING 967
SWIDTH 514 0
DWIDTH 10 0
BBX 10 13 0 -4
BITMAP
E180
6300
3300
3600
1E00
1C00
1C00
1E00
3700
3300
6380
E180
01C0
ENDCHAR
STARTCHAR 03C8
ENCODING 968
SWIDTH 720 0
DWIDTH 14 0
BBX 12 15 1 -3
BITMAP
0600
0600
0600
C660
C660
C670
C630
C670
C670
E6E0
7FE0
3F80
0600
0600
0600
ENDCHAR
STARTCHAR 03C9
ENCODING 969
SWIDTH 720 0
DWIDTH 14 0
BBX 12 9 1 0
BITMAP
6060
60E0
C670
C630
C630
C630
CE70
7FE0
39C0
ENDCHAR
STARTCHAR 03CA
ENCODING 970
SWIDTH 257 0
DWIDTH 5 0
BBX 7 13 -1 0
BITMAP
6C
EE
00
00
38
38
38
38
30
30
30
1C
1C
ENDCHAR
STARTCHAR 03CB
ENCODING 971
SWIDTH 514 0
DWIDTH 10 0
BBX 8 13 1 0
BITMAP
66
66
00
00
C6
C3
C3
C3
C3
C3
E7
7E
3C
ENDCHAR
STARTCHAR 03CC
ENCODING 972
SWIDTH 514 0
DWIDTH 10 0
BBX 9 15 1 0
BITMAP
0C00
0C00
0800
1800
0000
0000
3C00
7F00
E300
C300
C380
C300
E300
7F00
3C00
ENDCHAR
STARTCHAR 03CD
ENCODING 973
SWIDTH 514 0
DWIDTH 10 0
BBX 8 15 1 0
BITMAP
0C
18
18
18
00
00
C6
C3
C3
C3
C3
C3
E7
7E
3C
ENDCHAR
STARTCHAR 03CE
ENCODING 974
SWIDTH 720 0
DWIDTH 14 0
BBX 12 15 1 0
BITMAP
0300
0700
0600
0600
0000
0000
6060
60E0
C670
C630
C630
C630
CE70
7FE0
39C0
ENDCHAR
STARTCHAR 03D0
ENCODING 976
SWIDTH 565 0
DWIDTH 11 0
BBX 9 14 1 0
BITMAP
3C00
7F00
6300
E300
C300
DE00
FC00
FF00
C180
C180
E180
6380
7F00
1E00
ENDCHAR
STARTCHAR 03D1
ENCODING 977
SWIDTH 514 0
DWIDTH 10 0
BBX 8 14 1 0
BITMAP
3C
7E
E6
C3
C3
73
7F
0F
E3
63
63
67
7E
3C
ENDCHAR
STARTCHAR 03D5
ENCODING 981
SWIDTH 668 0
DWIDTH 13 0
BBX 12 12 1 -3
BITMAP
63C0
77E0
C660
C670
C670
C670
E6E0
7FC0
3F80
0600
0600
0600
ENDCHAR
STARTCHAR 03D7
ENCODING 983
SWIDTH 514 0
DWIDTH 10 0
BBX 9 12 1 -3
BITMAP
C100
E700
EE00
F800
FC00
EC00
E600
E700
C380
0380
0700
0E00
ENDCHAR
STARTCHAR 03D9
ENCODING 985
SWIDTH 514 0
DWIDTH 10 0
BBX 9 12 1 -3
BITMAP
3C00
7F00
E300
C300
C380
C300
E300
7F00
3C00
1800
1800
1800
ENDCHAR
STARTCHAR 03DB
ENCODING 987
SWIDTH 462 0
DWIDTH 9 0
BBX 8 12 1 -3
BITMAP
3F
7F
E0
C0
C0
C0
E0
7C
3E
06
06
0C
ENDCHAR
STARTCHAR 03DD
ENCODING 989
SWIDTH 411 0
DWIDTH 8 0
BBX 7 12 1 -3
BITMAP
FE
FE
C0
C0
C0
FC
FC
E0
E0
E0
E0
E0
ENDCHAR
STARTCHAR 03E1
ENCODING 993
SWIDTH 514 0
DWIDTH 10 0
BBX 9 16 0 -3
BITMAP
3000
7800
1C00
0E00
0600
0700
1F00
FB80
6180
0380
1F80
3D80
1180
0180
0180
0180
ENDCHAR
STARTCHAR 0400
ENCODING 1024
SWIDTH 514 0
DWIDTH 10 0
BBX 7 18 2 0
BITMAP
40
60
30
18
00
00
FE
FE
C0
C0
C0
FC
FC
C0
C0
C0
FE
FE
ENDCHAR
STARTCHAR 0401
ENCODING 1025
SWIDTH 514 0
DWIDTH 10 0
BBX 7 16 2 0
BITMAP
CC
EE
00
00
FE
FE
C0
C0
C0
FC
FC
C0
C0
C0
FE
FE
ENDCHAR
STARTCHAR 0402
ENCODING 1026
SWIDTH 668 0
DWIDTH 13 0
BBX 12 12 0 0
BITMAP
FFC0
FFC0
0C00
0C00
0FC0
0FF0
0C30
0C30
0C30
0C30
0CF0
0CE0
ENDCHAR
STARTCHAR 0403
ENCODING 1027
SWIDTH 514 0
DWIDTH 10 0
BBX 7 18 2 0
BITMAP
04
0C
18
30
00
00
FE
FE
C0
C0
C0
C0
C0
C0
C0
C0
C0
C0
ENDCHAR
STARTCHAR 0404
ENCODING 1028
SWIDTH 565 0
DWIDTH 11 0
BBX 9 12 1 0
BITMAP
1F00
3F80
7180
E000
C000
FE00
FE00
C000
E000
7180
3F80
1F00
ENDCHAR
STARTCHAR 0405
ENCODING 1029
SWIDTH 514 0
DWIDTH 10 0
BBX 9 12 1 0
BITMAP
3E00
7F00
E300
E000
7000
7C00
1F00
0380
0380
C380
FF00
3E00
ENDCHAR
STARTCHAR 0406
ENCODING 1030
SWIDTH 257 0
DWIDTH 5 0
BBX 2 12 2 0
BITMAP
C0
C0
C0
C0
C0
C0
C0
C0
C0
C0
C0
C0
ENDCHAR
STARTCHAR 0407
ENCODING 1031
SWIDTH 257 0
DWIDTH 5 0
BBX 6 16 0 0
BITMAP
CC
CC
00
00
30
30
30
30
30
30
30
30
30
30
30
30
ENDCHAR
STARTCHAR 0408
ENCODING 1032
SWIDTH 462 0
DWIDTH 9 0
BBX 8 12 0 0
BITMAP
03
03
03
03
03
03
03
03
03
67
FE
3C
ENDCHAR
STARTCHAR 0409
ENCODING 1033
SWIDTH 874 0
DWIDTH 17 0
BBX 17 12 0 0
BITMAP
0FC000
0FC000
0CC000
1CC000
18FE00
18FF00
18C300
18C380
38C380
30C300
F0FF00
E0FC00
ENDCHAR
STARTCHAR 040A
ENCODING 1034
SWIDTH 925 0
DWIDTH 18 0
BBX 15 12 2 0
BITMAP
C180
C180
C180
C180
C180
FFF8
FFFC
C18E
C186
C18E
C1FC
C1F8
ENDCHAR
STARTCHAR 040B
ENCODING 1035
SWIDTH 668 0
DWIDTH 13 0
BBX 12 12 0 0
BITMAP
FFC0
FFC0
0C00
0C00
0FC0
0FE0
0C70
0C30
0C30
0C30
0C30
0C30
ENDCHAR
STARTCHAR 040C
ENCODING 1036
SWIDTH 565 0
DWIDTH 11 0
BBX 9 18 2 0
BITMAP
0400
0E00
1C00
0800
0000
0000
C180
C380
C600
CE00
CC00
F800
FC00
CC00
C600
C700
C300
C180
ENDCHAR
STARTCHAR 040D
ENCODING 1037
SWIDTH 668 0
DWIDTH 13 0
BBX 9 18 2 0
BITMAP
2000
3000
5800
0C00
0000
0000
C380
C380
C780
C780
CD80
CD80
D980
F980
F180
E180
E180
C180
ENDCHAR
STARTCHAR 040E
ENCODING 1038
SWIDTH 514 0
DWIDTH 10 0
BBX 10 16 0 0
BITMAP
3300
1E00
0000
0000
E0C0
61C0
6180
3180
3300
1B00
1E00
0E00
0E00
0C00
3C00
7800
ENDCHAR
STARTCHAR 040F
ENCODING 1039
SWIDTH 617 0
DWIDTH 12 0
BBX 9 15 2 -3
BITMAP
C180
C180
C180
C180
C180
C180
C180
C180
C180
C180
FF80
FF80
1800
1800
1800
ENDCHAR
STARTCHAR 0410
ENCODING 1040
SWIDTH 565 0
DWIDTH 11 0
BBX 11 12 0 0
BITMAP
0E00
0E00
1A00
1B00
3300
3300
3180
7F80
7F80
60C0
E0C0
C0E0
ENDCHAR
STARTCHAR 0411
ENCODING 1041
SWIDTH 565 0
DWIDTH 11 0
BBX 8 12 2 0
BITMAP
FF
FF
C0
C0
F8
FE
CF
C3
C3
C3
FF
FC
ENDCHAR
STARTCHAR 0412
ENCODING 1042
SWIDTH 565 0
DWIDTH 11 0
BBX 9 12 2 0
BITMAP
FC00
FF00
C700
C300
C700
FE00
FF00
C300
C380
C380
FF00
FE00
ENDCHAR
STARTCHAR 0413
ENCODING 1043
SWIDTH 514 0
DWIDTH 10 0
BBX 7 12 2 0
BITMAP
FE
FE
C0
C0
C0
C0
C0
C0
C0
C0
C0
C0
ENDCHAR
STARTCHAR 0414
ENCODING 1044
SWIDTH 617 0
DWIDTH 12 0
BBX 12 15 0 -3
BITMAP
0FE0
0FE0
18E0
18E0
18E0
18E0
18E0
30E0
30E0
30E0
FFF0
FFF0
E030
E030
6030
ENDCHAR
STARTCHAR 0415
ENCODING 1045
SWIDTH 514 0
DWIDTH 10 0
BBX 7 12 2 0
BITMAP
FE
FE
C0
C0
C0
FC
FC
C0
C0
C0
FE
FE
ENDCHAR
STARTCHAR 0416
ENCODING 1046
SWIDTH 822 0
DWIDTH 16 0
BBX 16 12 0 0
BITMAP
E187
F18E
318C
1998
1998
0FF0
1FF8
1998
399C
318C
6186
E187
ENDCHAR
STARTCHAR 0417
ENCODING 1047
SWIDTH 565 0
DWIDTH 11 0
BBX 9 12 1 0
BITMAP
3E00
FF00
4300
0300
0300
3E00
3F00
0380
0180
C380
FF00
3E00
ENDCHAR
STARTCHAR 0418
ENCODING 1048
SWIDTH 668 0
DWIDTH 13 0
BBX 9 12 2 0
BITMAP
C380
C380
C780
C780
CD80
CD80
D980
F980
F180
E180
E180
C180
ENDCHAR
STARTCHAR 0419
ENCODING 1049
SWIDTH 668 0
DWIDTH 13 0
BBX 9 16 2 0
BITMAP
6300
3E00
0000
0000
C380
C380
C780
C780
CD80
CD80
D980
F980
F180
E180
E180
C180
ENDCHAR
STARTCHAR 041A
ENCODING 1050
SWIDTH 565 0
DWIDTH 11 0
BBX 9 12 2 0
BITMAP
C180
C380
C600
CE00
CC00
F800
FC00
CC00
C600
C700
C300
C180
ENDCHAR
STARTCHAR 041B
ENCODING 1051
SWIDTH 617 0
DWIDTH 12 0
BBX 11 12 0 0
BITMAP
0FE0
0FE0
1CE0
18E0
18E0
18E0
18E0
38E0
30E0
30E0
F0E0
E0E0
ENDCHAR
STARTCHAR 041C
ENCODING 1052
SWIDTH 720 0
DWIDTH 14 0
BBX 11 12 2 0
BITMAP
C0E0
E0E0
E1E0
A160
B360
F360
DA60
DE60
DE60
CC60
CC60
C060
ENDCHAR
STARTCHAR 041D
ENCODING 1053
SWIDTH 668 0
DWIDTH 13 0
BBX 9 12 2 0
BITMAP
C180
C180
C180
C180
C180
FF80
FF80
C180
C180
C180
C180
C180
ENDCHAR
STARTCHAR 041E
ENCODING 1054
SWIDTH 668 0
DWIDTH 13 0
BBX 11 12 1 0
BITMAP
1F00
3F80
71C0
E0E0
C0E0
C060
C060
C0E0
E0C0
71C0
3F80
1F00
ENDCHAR
STARTCHAR 041F
ENCODING 1055
SWIDTH 617 0
DWIDTH 12 0
BBX 9 12 2 0
BITMAP
FF80
FF80
C180
C180
C180
C180
C180
C180
C180
C180
C180
C180
ENDCHAR
STARTCHAR 0420
ENCODING 1056
SWIDTH 565 0
DWIDTH 11 0
BBX 8 12 2 0
BITMAP
FC
FF
C3
C3
C3
C7
FE
FC
C0
C0
C0
C0
ENDCHAR
STARTCHAR 0421
ENCODING 1057
SWIDTH 565 0
DWIDTH 11 0
BBX 9 12 1 0
BITMAP
1F00
3F80
7180
E000
C000
C000
C000
C000
E000
7180
3F80
1F00
ENDCHAR
STARTCHAR 0422
ENCODING 1058
SWIDTH 514 0
DWIDTH 10 0
BBX 10 12 0 0
BITMAP
FFC0
FFC0
0C00
0C00
0C00
0C00
0C00
0C00
0C00
0C00
0C00
0C00
ENDCHAR
STARTCHAR 0423
ENCODING 1059
SWIDTH 514 0
DWIDTH 10 0
BBX 10 12 0 0
BITMAP
E0C0
61C0
6180
3180
3300
1B00
1E00
0E00
0E00
0C00
3C00
7800
ENDCHAR
STARTCHAR 0424
ENCODING 1060
SWIDTH 720 0
DWIDTH 14 0
BBX 12 12 1 0
BITMAP
0600
1FC0
7FE0
E670
C630
C630
C630
C630
E670
7FE0
1FC0
0600
ENDCHAR
STARTCHAR 0425
ENCODING 1061
SWIDTH 514 0
DWIDTH 10 0
BBX 10 12 0 0
BITMAP
E1C0
7180
3300
3B00
1E00
0E00
1E00
1E00
3300
3380
6180
E1C0
ENDCHAR
STARTCHAR 0426
ENCODING 1062
SWIDTH 617 0
DWIDTH 12 0
BBX 10 15 2 -3
BITMAP
C380
C380
C380
C380
C380
C380
C380
C380
C380
C380
FFC0
FFC0
00C0
00C0
00C0
ENDCHAR
STARTCHAR 0427
ENCODING 1063
SWIDTH 617 0
DWIDTH 12 0
BBX 9 12 1 0
BITMAP
C180
C180
C180
C180
E180
7F80
3F80
0180
0180
0180
0180
0180
ENDCHAR
STARTCHAR 0428
ENCODING 1064
SWIDTH 874 0
DWIDTH 17 0
BBX 13 12 2 0
BITMAP
C718
C718
C718
C718
C718
C718
C718
C718
C718
C718
FFF8
FFF8
ENDCHAR
STARTCHAR 0429
ENCODING 1065
SWIDTH 874 0
DWIDTH 17 0
BBX 15 15 2 -3
BITMAP
C718
C718
C718
C718
C718
C718
C718
C718
C718
C718
FFFE
FFFE
0006
0006
0006
ENDCHAR
STARTCHAR 042A
ENCODING 1066
SWIDTH 720 0
DWIDTH 14 0
BBX 13 12 0 0
BITMAP
FE00
FE00
0E00
0E00
0FE0
0FF0
0E38
0E18
0E18
0E38
0FF0
0FE0
ENDCHAR
STARTCHAR 042B
ENCODING 1067
SWIDTH 822 0
DWIDTH 16 0
BBX 12 12 2 0
BITMAP
C030
C030
C030
C030
FC30
FE30
C730
C330
C330
C730
FE30
FC30
ENDCHAR
STARTCHAR 042C
ENCODING 1068
SWIDTH 565 0
DWIDTH 11 0
BBX 8 12 2 0
BITMAP
C0
C0
C0
C0
FC
FF
C3
C3
C3
C3
FF
FC
ENDCHAR
STARTCHAR 042D
ENCODING 1069
SWIDTH 565 0
DWIDTH 11 0
BBX 9 12 1 0
BITMAP
7C00
FE00
C700
0380
0180
3F80
3F80
0180
0380
C300
FE00
7C00
ENDCHAR
STARTCHAR 042E
ENCODING 1070
SWIDTH 925 0
DWIDTH 18 0
BBX 15 12 2 0
BITMAP
C1F0
C3F8
C71C
C60C
CE0E
FC0E
FC0E
CE0E
CE0C
C71C
C3F8
C1F0
ENDCHAR
STARTCHAR 042F
ENCODING 1071
SWIDTH 565 0
DWIDTH 11 0
BBX 10 12 0 0
BITMAP
1FC0
3FC0
70C0
60C0
70C0
3FC0
1FC0
18C0
18C0
30C0
70C0
E0C0
ENDCHAR
STARTCHAR 0430
ENCODING 1072
SWIDTH 514 0
DWIDTH 10 0
BBX 8 9 1 0
BITMAP
3C
FE
46
1F
67
C7
C7
FF
7B
ENDCHAR
STARTCHAR 0431
ENCODING 1073
SWIDTH 565 0
DWIDTH 11 0
BBX 9 14 1 0
BITMAP
0100
1F00
3F00
7000
E000
DE00
FF00
E300
C380
C380
C380
E300
7F00
3C00
ENDCHAR
STARTCHAR 0432
ENCODING 1074
SWIDTH 514 0
DWIDTH 10 0
BBX 8 9 1 0
BITMAP
FE
FF
E3
FE
FE
E3
E3
FF
FE
ENDCHAR
STARTCHAR 0433
ENCODING 1075
SWIDTH 411 0
DWIDTH 8 0
BBX 7 9 1 0
BITMAP
FE
FE
E0
E0
E0
E0
E0
E0
E0
ENDCHAR
STARTCHAR 0434
ENCODING 1076
SWIDTH 565 0
DWIDTH 11 0
BBX 10 12 0 -3
BITMAP
3F80
3F80
3180
3180
3180
3180
6180
FFC0
FFC0
C0C0
C0C0
C0C0
ENDCHAR
STARTCHAR 0435
ENCODING 1077
SWIDTH 514 0
DWIDTH 10 0
BBX 8 9 1 0
BITMAP
3C
7E
E3
C3
FF
C0
E2
7E
3D
ENDCHAR
STARTCHAR 0436
ENCODING 1078
SWIDTH 720 0
DWIDTH 14 0
BBX 14 9 0 0
BITMAP
6318
7338
3360
1FE0
1FE0
3360
3330
6338
E31C
ENDCHAR
STARTCHAR 0437
ENCODING 1079
SWIDTH 462 0
DWIDTH 9 0
BBX 7 9 1 0
BITMAP
7C
FE
86
3C
3E
06
86
FE
7C
ENDCHAR
STARTCHAR 0438
ENCODING 1080
SWIDTH 565 0
DWIDTH 11 0
BBX 9 9 1 0
BITMAP
E380
E380
E780
ED80
CB80
DB80
F380
E380
E380
ENDCHAR
STARTCHAR 0439
ENCODING 1081
SWIDTH 565 0
DWIDTH 11 0
BBX 9 14 1 0
BITMAP
6300
2200
1C00
0000
0000
E380
E380
E780
ED80
CB80
DB80
F380
E380
E380
ENDCHAR
STARTCHAR 043A
ENCODING 1082
SWIDTH 514 0
DWIDTH 10 0
BBX 9 9 1 0
BITMAP
E300
E700
EC00
FC00
FC00
EE00
E600
E700
E380
ENDCHAR
STARTCHAR 043B
ENCODING 1083
SWIDTH 514 0
DWIDTH 10 0
BBX 9 9 0 0
BITMAP
1F80
1F80
3180
3180
3180
3180
3180
F180
E180
ENDCHAR
STARTCHAR 043C
ENCODING 1084
SWIDTH 617 0
DWIDTH 12 0
BBX 10 9 1 0
BITMAP
E1C0
F1C0
F3C0
D3C0
DAC0
DEC0
CCC0
CCC0
C0C0
ENDCHAR
STARTCHAR 043D
ENCODING 1085
SWIDTH 565 0
DWIDTH 11 0
BBX 8 9 1 0
BITMAP
E3
E3
E3
FF
FF
E3
E3
E3
E3
ENDCHAR
STARTCHAR 043E
ENCODING 1086
SWIDTH 514 0
DWIDTH 10 0
BBX 9 9 1 0
BITMAP
3C00
7F00
E300
C380
C380
C380
E300
7F00
3C00
ENDCHAR
STARTCHAR 043F
ENCODING 1087
SWIDTH 565 0
DWIDTH 11 0
BBX 8 9 1 0
BITMAP
FF
FF
E3
E3
E3
E3
E3
E3
E3
ENDCHAR
STARTCHAR 0440
ENCODING 1088
SWIDTH 565 0
DWIDTH 11 0
BBX 9 13 1 -4
BITMAP
DE00
FF00
E380
E180
E180
E380
E380
FF00
FE00
E000
E000
E000
E000
ENDCHAR
STARTCHAR 0441
ENCODING 1089
SWIDTH 462 0
DWIDTH 9 0
BBX 7 9 1 0
BITMAP
3C
7E
E4
C0
C0
C0
E2
7E
3C
ENDCHAR
STARTCHAR 0442
ENCODING 1090
SWIDTH 462 0
DWIDTH 9 0
BBX 9 9 0 0
BITMAP
FF80
FF80
1C00
1C00
1C00
1C00
1C00
1C00
1C00
ENDCHAR
STARTCHAR 0443
ENCODING 1091
SWIDTH 462 0
DWIDTH 9 0
BBX 9 13 0 -4
BITMAP
E180
6180
6300
3300
3300
3600
1E00
1E00
0C00
0C00
1800
7800
7000
ENDCHAR
STARTCHAR 0444
ENCODING 1092
SWIDTH 720 0
DWIDTH 14 0
BBX 13 18 1 -4
BITMAP
0600
0600
0600
0600
0600
3FE0
7FF0
E630
C638
C638
C630
E630
7FF0
3FE0
0600
0600
0600
0600
ENDCHAR
STARTCHAR 0445
ENCODING 1093
SWIDTH 462 0
DWIDTH 9 0
BBX 9 9 0 0
BITMAP
E380
7300
3600
1E00
1C00
3E00
3600
6300
E380
ENDCHAR
STARTCHAR 0446
ENCODING 1094
SWIDTH 565 0
DWIDTH 11 0
BBX 10 12 1 -3
BITMAP
E300
E300
E300
E300
E300
E300
E300
FFC0
FFC0
00C0
00C0
0080
ENDCHAR
STARTCHAR 0447
ENCODING 1095
SWIDTH 514 0
DWIDTH 10 0
BBX 8 9 1 0
BITMAP
C3
C3
C3
E3
FF
7F
03
03
03
ENDCHAR
STARTCHAR 0448
ENCODING 1096
SWIDTH 771 0
DWIDTH 15 0
BBX 12 9 1 0
BITMAP
E630
E630
E630
E630
E630
E630
E630
FFF0
FFF0
ENDCHAR
STARTCHAR 0449
ENCODING 1097
SWIDTH 771 0
DWIDTH 15 0
BBX 14 12 1 -3
BITMAP
E630
E630
E630
E630
E630
E630
E630
FFFC
FFFC
000C
000C
000C
ENDCHAR
STARTCHAR 044A
ENCODING 1098
SWIDTH 617 0
DWIDTH 12 0
BBX 11 9 0 0
BITMAP
FC00
FC00
0C00
0F80
0FE0
0C60
0C60
0FC0
0F80
ENDCHAR
STARTCHAR 044B
ENCODING 1099
SWIDTH 668 0
DWIDTH 13 0
BBX 11 9 1 0
BITMAP
E060
E060
E060
FC60
FE60
E660
E660
FE60
FC60
ENDCHAR
STARTCHAR 044C
ENCODING 1100
SWIDTH 514 0
DWIDTH 10 0
BBX 8 9 1 0
BITMAP
E0
E0
E0
FC
FE
E3
E3
FE
FC
ENDCHAR
STARTCHAR 044D
ENCODING 1101
SWIDTH 462 0
DWIDTH 9 0
BBX 8 9 0 0
BITMAP
3C
7E
43
3F
3F
03
47
7E
FC
ENDCHAR
STARTCHAR 044E
ENCODING 1102
SWIDTH 720 0
DWIDTH 14 0
BBX 13 9 1 0
BITMAP
E3C0
E7F0
EE30
FC38
FC38
EC38
E630
E7F0
E3E0
ENDCHAR
STARTCHAR 044F
ENCODING 1103
SWIDTH 514 0
DWIDTH 10 0
BBX 9 9 0 0
BITMAP
1F80
3F80
7380
7380
3F80
1F80
3B80
3380
E380
ENDCHAR
STARTCHAR 0450
ENCODING 1104
SWIDTH 514 0
DWIDTH 10 0
BBX 8 15 1 0
BITMAP
20
70
38
08
00
00
3C
7E
E3
C3
FF
C0
E2
7E
3D
ENDCHAR
STARTCHAR 0451
ENCODING 1105
SWIDTH 514 0
DWIDTH 10 0
BBX 8 13 1 0
BITMAP
66
66
00
00
3C
7E
E3
C3
FF
C0
E2
7E
3D
ENDCHAR
STARTCHAR 0452
ENCODING 1106
SWIDTH 565 0
DWIDTH 11 0
BBX 10 18 0 -4
BITMAP
7000
7000
FE00
7000
7000
7700
7F80
7180
71C0
70C0
70C0
70C0
71C0
71C0
0180
0180
0780
0F00
ENDCHAR
STARTCHAR 0453
ENCODING 1107
SWIDTH 411 0
DWIDTH 8 0
BBX 7 15 1 0
BITMAP
04
0E
18
10
00
00
FE
FE
E0
E0
E0
E0
E0
E0
E0
ENDCHAR
STARTCHAR 0454
ENCODING 1108
SWIDTH 462 0
DWIDTH 9 0
BBX 7 9 1 0
BITMAP
3C
7E
C4
FC
FC
C0
E2
7E
3C
ENDCHAR
STARTCHAR 0455
ENCODING 1109
SWIDTH 411 0
DWIDTH 8 0
BBX 8 9 0 0
BITMAP
3C
7E
62
70
3E
06
47
FE
3C
ENDCHAR
STARTCHAR 0456
ENCODING 1110
SWIDTH 257 0
DWIDTH 5 0
BBX 3 13 1 0
BITMAP
E0
E0
00
00
E0
E0
E0
E0
E0
E0
E0
E0
E0
ENDCHAR
STARTCHAR 0457
ENCODING 1111
SWIDTH 257 0
DWIDTH 5 0
BBX 7 13 -1 0
BITMAP
6C
EE
00
00
38
38
38
38
38
38
38
38
38
ENDCHAR
STARTCHAR 0458
ENCODING 1112
SWIDTH 257 0
DWIDTH 5 0
BBX 5 17 -1 -4
BITMAP
38
38
00
00
38
38
38
38
38
38
38
38
38
38
38
F0
E0
ENDCHAR
STARTCHAR 0459
ENCODING 1113
SWIDTH 720 0
DWIDTH 14 0
BBX 14 9 0 0
BITMAP
1F80
1F80
1980
31F0
31F8
319C
319C
F1F8
E1F0
ENDCHAR
STARTCHAR 045A
ENCODING 1114
SWIDTH 771 0
DWIDTH 15 0
BBX 13 9 1 0
BITMAP
E300
E300
E300
FFF0
FFF8
E318
E318
E3F8
E3F0
ENDCHAR
STARTCHAR 045B
ENCODING 1115
SWIDTH 565 0
DWIDTH 11 0
BBX 9 14 0 0
BITMAP
7000
7000
FE00
7000
7000
7700
7F80
7980
7180
7180
7180
7180
7180
7180
ENDCHAR
STARTCHAR 045C
ENCODING 1116
SWIDTH 514 0
DWIDTH 10 0
BBX 9 15 1 0
BITMAP
0200
0700
0C00
1800
0000
0000
E300
E700
EC00
FC00
FC00
EE00
E600
E700
E380
ENDCHAR
STARTCHAR 045D
ENCODING 1117
SWIDTH 565 0
DWIDTH 11 0
BBX 9 15 1 0
BITMAP
2000
7000
1800
0C00
0000
0000
E380
E380
E780
ED80
CB80
DB80
F380
E380
E380
ENDCHAR
STARTCHAR 045E
ENCODING 1118
SWIDTH 462 0
DWIDTH 9 0
BBX 9 18 0 -4
BITMAP
3300
3300
1E00
0000
0000
E180
6180
6300
3300
3300
3600
1E00
1E00
0C00
0C00
1800
7800
7000
ENDCHAR
STARTCHAR 045F
ENCODING 1119
SWIDTH 565 0
DWIDTH 11 0
BBX 8 12 1 -3
BITMAP
E3
E3
E3
E3
E3
E3
E3
FF
FF
18
18
18
ENDCHAR
STARTCHAR 0462
ENCODING 1122
SWIDTH 617 0
DWIDTH 12 0
BBX 11 13 0 0
BITMAP
1800
1800
FF80
FF80
1800
1800
1F80
1FC0
18E0
1860
18E0
1FC0
1F80
ENDCHAR
STARTCHAR 0463
ENCODING 1123
SWIDTH 565 0
DWIDTH 11 0
BBX 10 12 0 0
BITMAP
1800
1800
FF80
FF80
1800
1800
1F80
1FC0
18C0
18C0
1FC0
1F80
ENDCHAR
STARTCHAR 0472
ENCODING 1138
SWIDTH 668 0
DWIDTH 13 0
BBX 11 12 1 0
BITMAP
1F00
7F80
71C0
E0E0
C060
FFE0
FFE0
C060
E0C0
71C0
3F80
1F00
ENDCHAR
STARTCHAR 0473
ENCODING 1139
SWIDTH 514 0
DWIDTH 10 0
BBX 9 9 1 0
BITMAP
3C00
7F00
C300
FF80
FF80
C380
E300
7F00
3C00
ENDCHAR
STARTCHAR 0474
ENCODING 1140
SWIDTH 514 0
DWIDTH 10 0
BBX 11 12 0 0
BITMAP
C0E0
E0E0
6180
6180
7180
3300
3300
3300
1B00
1E00
1E00
0E00
ENDCHAR
STARTCHAR 0475
ENCODING 1141
SWIDTH 514 0
DWIDTH 10 0
BBX 10 9 0 0
BITMAP
E1C0
61C0
6300
7300
3300
3600
1600
1E00
1C00
ENDCHAR
STARTCHAR 0490
ENCODING 1168
SWIDTH 514 0
DWIDTH 10 0
BBX 7 16 2 0
BITMAP
06
06
06
06
FE
FE
C0
C0
C0
C0
C0
C0
C0
C0
C0
C0
ENDCHAR
STARTCHAR 0491
ENCODING 1169
SWIDTH 411 0
DWIDTH 8 0
BBX 7 12 1 0
BITMAP
06
06
06
FE
FE
E0
E0
E0
E0
E0
E0
E0
ENDCHAR
STARTCHAR 0492
ENCODING 1170
SWIDTH 514 0
DWIDTH 10 0
BBX 9 12 1 0
BITMAP
7F80
7F80
6000
6000
6000
FC00
FC00
6000
6000
6000
6000
6000
ENDCHAR
STARTCHAR 0493
ENCODING 1171
SWIDTH 411 0
DWIDTH 8 0
BBX 7 9 1 0
BITMAP
7E
7E
60
60
F8
F8
60
60
60
ENDCHAR
STARTCHAR 0496
ENCODING 1174
SWIDTH 874 0
DWIDTH 17 0
BBX 16 15 0 -3
BITMAP
E187
F18E
318C
1998
1998
0FF0
1FF8
1998
399C
318C
6187
E187
0003
0003
0003
ENDCHAR
STARTCHAR 0497
ENCODING 1175
SWIDTH 720 0
DWIDTH 14 0
BBX 14 12 0 -3
BITMAP
6318
7338
3360
1FE0
1FE0
3370
3330
633C
E31C
000C
000C
000C
ENDCHAR
STARTCHAR 0498
ENCODING 1176
SWIDTH 565 0
DWIDTH 11 0
BBX 9 15 1 -3
BITMAP
3E00
FF00
4300
0300
0300
3E00
3F00
0380
0180
C380
FF00
3E00
1800
1800
1800
ENDCHAR
STARTCHAR 0499
ENCODING 1177
SWIDTH 462 0
DWIDTH 9 0
BBX 7 12 1 -3
BITMAP
7C
FE
86
3C
3C
06
86
FE
7C
30
30
30
ENDCHAR
STARTCHAR 049A
ENCODING 1178
SWIDTH 617 0
DWIDTH 12 0
BBX 10 15 2 -3
BITMAP
C180
C380
C600
CE00
CC00
F800
FC00
CC00
C600
C700
C3C0
C1C0
00C0
00C0
00C0
ENDCHAR
STARTCHAR 049B
ENCODING 1179
SWIDTH 565 0
DWIDTH 11 0
BBX 9 13 1 -3
BITMAP
E300
E700
E600
EC00
FC00
FC00
EE00
E600
E780
E380
0180
0180
0180
ENDCHAR
STARTCHAR 04A0
ENCODING 1184
SWIDTH 720 0
DWIDTH 14 0
BBX 14 13 0 -1
BITMAP
FC1C
FC38
0C30
0C60
0CE0
0FC0
0FC0
0CE0
0C60
0C30
0C38
0C18
0C0C
ENDCHAR
STARTCHAR 04A1
ENCODING 1185
SWIDTH 617 0
DWIDTH 12 0
BBX 12 9 0 0
BITMAP
FC60
FCE0
0DC0
0F80
0F80
0DC0
0CC0
0C60
0C70
ENDCHAR
STARTCHAR 04A2
ENCODING 1186
SWIDTH 668 0
DWIDTH 13 0
BBX 10 15 2 -3
BITMAP
C180
C180
C180
C180
C180
FF80
FF80
C180
C180
C180
C1C0
C1C0
00C0
00C0
00C0
ENDCHAR
STARTCHAR 04A3
ENCODING 1187
SWIDTH 565 0
DWIDTH 11 0
BBX 10 12 1 -3
BITMAP
E380
E380
E380
FF80
FF80
E380
E380
E3C0
E3C0
00C0
00C0
00C0
ENDCHAR
STARTCHAR 04AA
ENCODING 1194
SWIDTH 565 0
DWIDTH 11 0
BBX 9 15 1 -3
BITMAP
1F00
3F80
7180
E000
C000
C000
C000
C000
E000
7180
3F80
1F00
0E00
0E00
0C00
ENDCHAR
STARTCHAR 04AB
ENCODING 1195
SWIDTH 462 0
DWIDTH 9 0
BBX 7 12 1 -3
BITMAP
3C
7E
E4
C0
C0
C0
E2
7E
3C
18
18
18
ENDCHAR
STARTCHAR 04AE
ENCODING 1198
SWIDTH 514 0
DWIDTH 10 0
BBX 10 12 0 0
BITMAP
E1C0
6180
6300
3300
3600
1E00
1C00
0C00
0C00
0C00
0C00
0C00
ENDCHAR
STARTCHAR 04AF
ENCODING 1199
SWIDTH 462 0
DWIDTH 9 0
BBX 9 13 0 -4
BITMAP
E180
6180
6300
3300
3300
3600
1600
1C00
1C00
0C00
0C00
0C00
0C00
ENDCHAR
STARTCHAR 04B0
ENCODING 1200
SWIDTH 514 0
DWIDTH 10 0
BBX 10 12 0 0
BITMAP
E1C0
6180
6300
3300
3600
1E00
1E00
7F80
7F80
0C00
0C00
0C00
ENDCHAR
STARTCHAR 04B1
ENCODING 1201
SWIDTH 462 0
DWIDTH 9 0
BBX 9 13 0 -4
BITMAP
E180
6180
6300
3300
3300
3600
1600
1C00
7F80
0C00
0C00
0C00
0C00
ENDCHAR
STARTCHAR 04B2
ENCODING 1202
SWIDTH 565 0
DWIDTH 11 0
BBX 11 15 0 -3
BITMAP
E1C0
7180
3300
1B00
1E00
0E00
1E00
1E00
3300
3380
61E0
61E0
8060
0060
0040
ENDCHAR
STARTCHAR 04B3
ENCODING 1203
SWIDTH 514 0
DWIDTH 10 0
BBX 10 12 0 -3
BITMAP
E380
7300
3600
1E00
1C00
3E00
3600
63C0
6380
8180
0180
0180
ENDCHAR
STARTCHAR 04B6
ENCODING 1206
SWIDTH 617 0
DWIDTH 12 0
BBX 11 15 1 -3
BITMAP
C180
C180
C180
C180
E180
7F80
3F80
0180
0180
0180
01E0
01E0
00C0
00C0
00C0
ENDCHAR
STARTCHAR 04B7
ENCODING 1207
SWIDTH 514 0
DWIDTH 10 0
BBX 9 12 1 -3
BITMAP
C300
C300
C300
E300
FF00
7F00
0300
0380
0380
0180
0180
0180
ENDCHAR
STARTCHAR 04BA
ENCODING 1210
SWIDTH 617 0
DWIDTH 12 0
BBX 8 12 2 0
BITMAP
C0
C0
C0
C0
FC
FF
C3
C3
C3
C3
C3
C3
ENDCHAR
STARTCHAR 04BB
ENCODING 1211
SWIDTH 565 0
DWIDTH 11 0
BBX 8 14 1 0
BITMAP
E0
E0
E0
E0
E0
EE
FF
E3
E3
E3
E3
E3
E3
E3
ENDCHAR
STARTCHAR 04C0
ENCODING 1216
SWIDTH 257 0
DWIDTH 5 0
BBX 2 12 2 0
BITMAP
C0
C0
C0
C0
C0
C0
C0
C0
C0
C0
C0
C0
ENDCHAR
STARTCHAR 04C1
ENCODING 1217
SWIDTH 822 0
DWIDTH 16 0
BBX 16 16 0 0
BITMAP
0660
03C0
0000
0000
E187
F18E
318C
1998
1998
0FF0
1FF8
1998
399C
318C
6186
E187
ENDCHAR
STARTCHAR 04C2
ENCODING 1218
SWIDTH 720 0
DWIDTH 14 0
BBX 14 14 0 0
BITMAP
0CC0
0CC0
0780
0000
0000
6318
7338
3360
1FE0
1FE0
3360
3330
6338
E31C
ENDCHAR
STARTCHAR 04CF
ENCODING 1231
SWIDTH 257 0
DWIDTH 5 0
BBX 4 14 1 0
BITMAP
E0
E0
E0
E0
E0
E0
E0
E0
E0
E0
E0
E0
60
70
ENDCHAR
STARTCHAR 04D0
ENCODING 1232
SWIDTH 565 0
DWIDTH 11 0
BBX 11 16 0 0
BITMAP
3300
1F00
0000
0000
0E00
0E00
1A00
1B00
3300
3300
3180
7F80
7F80
60C0
E0C0
C0E0
ENDCHAR
STARTCHAR 04D1
ENCODING 1233
SWIDTH 514 0
DWIDTH 10 0
BBX 8 14 1 0
BITMAP
66
66
3C
00
00
3C
FE
46
1F
67
C7
C7
FF
7B
ENDCHAR
STARTCHAR 04D4
ENCODING 1236
SWIDTH 822 0
DWIDTH 16 0
BBX 15 12 0 0
BITMAP
03FE
07FE
07C0
0DC0
0DC0
19FC
19FC
3FC0
3FC0
71C0
61FE
E1FE
ENDCHAR
STARTCHAR 04D5
ENCODING 1237
SWIDTH 771 0
DWIDTH 15 0
BBX 13 9 1 0
BITMAP
3CF0
FFF8
4718
1F18
67F8
C300
C710
FFF8
78F0
ENDCHAR
STARTCHAR 04D6
ENCODING 1238
SWIDTH 514 0
DWIDTH 10 0
BBX 7 16 2 0
BITMAP
C6
7C
00
00
FE
FE
C0
C0
C0
FC
FC
C0
C0
C0
FE
FE
ENDCHAR
STARTCHAR 04D7
ENCODING 1239
SWIDTH 514 0
DWIDTH 10 0
BBX 8 14 1 0
BITMAP
66
66
3C
00
00
3C
7E
E3
C3
FF
C0
E2
7E
3D
ENDCHAR
STARTCHAR 04D8
ENCODING 1240
SWIDTH 668 0
DWIDTH 13 0
BBX 11 12 1 0
BITMAP
1F00
7F80
21C0
00C0
00E0
FFE0
FFE0
C0E0
E0C0
71C0
3F80
1F00
ENDCHAR
STARTCHAR 04D9
ENCODING 1241
SWIDTH 514 0
DWIDTH 10 0
BBX 8 9 1 0
BITMAP
7C
FE
86
03
FF
C3
C6
FE
3C
ENDCHAR
STARTCHAR 04E2
ENCODING 1250
SWIDTH 668 0
DWIDTH 13 0
BBX 9 15 2 0
BITMAP
3E00
0000
0000
C380
C380
C780
C780
CD80
CD80
D980
F980
F180
E180
E180
C180
ENDCHAR
STARTCHAR 04E3
ENCODING 1251
SWIDTH 565 0
DWIDTH 11 0
BBX 9 12 1 0
BITMAP
3E00
0000
0000
E380
E380
E780
ED80
CB80
DB80
F380
E380
E380
ENDCHAR
STARTCHAR 04E6
ENCODING 1254
SWIDTH 668 0
DWIDTH 13 0
BBX 11 16 1 0
BITMAP
3300
3B80
0000
0000
1F00
3F80
71C0
E0E0
C0E0
C060
C060
C0E0
E0C0
71C0
3F80
1F00
ENDCHAR
STARTCHAR 04E7
ENCODING 1255
SWIDTH 514 0
DWIDTH 10 0
BBX 9 13 1 0
BITMAP
6600
6600
0000
0000
3C00
7F00
E300
C380
C380
C380
E300
7F00
3C00
ENDCHAR
STARTCHAR 04E8
ENCODING 1256
SWIDTH 668 0
DWIDTH 13 0
BBX 11 12 1 0
BITMAP
1F00
7F80
71C0
E0E0
C060
FFE0
FFE0
C060
E0C0
71C0
3F80
1F00
ENDCHAR
STARTCHAR 04E9
ENCODING 1257
SWIDTH 514 0
DWIDTH 10 0
BBX 9 9 1 0
BITMAP
3C00
7F00
C300
FF80
FF80
C380
E300
7F00
3C00
ENDCHAR
STARTCHAR 04EE
ENCODING 1262
SWIDTH 514 0
DWIDTH 10 0
BBX 10 15 0 0
BITMAP
3F00
0000
0000
E0C0
61C0
6180
3180
3300
1B00
1E00
0E00
0E00
0C00
3C00
7800
ENDCHAR
STARTCHAR 04EF
ENCODING 1263
SWIDTH 462 0
DWIDTH 9 0
BBX 9 16 0 -4
BITMAP
3F00
0000
0000
E180
6180
6300
3300
3300
3600
1E00
1E00
0C00
0C00
1800
7800
7000
ENDCHAR
STARTCHAR 04F2
ENCODING 1266
SWIDTH 514 0
DWIDTH 10 0
BBX 10 18 0 0
BITMAP
0880
0D80
1900
1300
0000
0000
E0C0
61C0
6180
3180
3300
1B00
1E00
0E00
0E00
0C00
3C00
7800
ENDCHAR
STARTCHAR 04F3
ENCODING 1267
SWIDTH 462 0
DWIDTH 9 0
BBX 9 19 0 -4
BITMAP
0900
0D80
1B00
1200
0000
0000
E180
6180
6300
3300
3300
3600
1E00
1E00
0C00
0C00
1800
7800
7000
ENDCHAR
STARTCHAR 1D43
ENCODING 7491
SWIDTH 360 0
DWIDTH 7 0
BBX 5 7 1 7
BITMAP
F0
98
18
78
D8
98
F8
ENDCHAR
STARTCHAR 1D47
ENCODING 7495
SWIDTH 360 0
DWIDTH 7 0
BBX 6 9 1 7
BITMAP
80
80
B8
C8
8C
8C
8C
C8
B0
ENDCHAR
STARTCHAR 1D48
ENCODING 7496
SWIDTH 360 0
DWIDTH 7 0
BBX 5 9 1 7
BITMAP
08
08
78
C8
88
88
88
D8
78
ENDCHAR
STARTCHAR 1D49
ENCODING 7497
SWIDTH 308 0
DWIDTH 6 0
BBX 6 7 0 7
BITMAP
38
4C
44
FC
40
60
3C
ENDCHAR
STARTCHAR 1D4D
ENCODING 7501
SWIDTH 360 0
DWIDTH 7 0
BBX 6 9 0 5
BITMAP
3C
48
4C
48
78
40
7C
44
FC
ENDCHAR
STARTCHAR 1D4F
ENCODING 7503
SWIDTH 360 0
DWIDTH 7 0
BBX 6 9 1 7
BITMAP
80
80
80
98
B0
E0
F0
98
8C
ENDCHAR
STARTCHAR 1D50
ENCODING 7504
SWIDTH 565 0
DWIDTH 11 0
BBX 9 7 1 7
BITMAP
BB00
DD80
8980
8980
8980
8980
8980
ENDCHAR
STARTCHAR 1D52
ENCODING 7506
SWIDTH 360 0
DWIDTH 7 0
BBX 5 7 1 7
BITMAP
70
D8
88
88
88
D8
70
ENDCHAR
STARTCHAR 1D56
ENCODING 7510
SWIDTH 360 0
DWIDTH 7 0
BBX 6 9 1 5
BITMAP
B8
C8
8C
8C
8C
C8
B0
80
80
ENDCHAR
STARTCHAR 1D57
ENCODING 7511
SWIDTH 257 0
DWIDTH 5 0
BBX 5 9 0 7
BITMAP
60
60
F0
60
60
60
60
60
38
ENDCHAR
STARTCHAR 1D58
ENCODING 7512
SWIDTH 360 0
DWIDTH 7 0
BBX 5 7 1 7
BITMAP
88
88
88
88
88
D8
E8
ENDCHAR
STARTCHAR 1D5B
ENCODING 7515
SWIDTH 308 0
DWIDTH 6 0
BBX 6 7 0 7
BITMAP
C4
4C
4C
68
28
38
30
ENDCHAR
STARTCHAR 1D9C
ENCODING 7580
SWIDTH 308 0
DWIDTH 6 0
BBX 5 7 1 7
BITMAP
70
C8
80
80
80
C0
78
ENDCHAR
STARTCHAR 1DA0
ENCODING 7584
SWIDTH 205 0
DWIDTH 4 0
BBX 5 9 0 7
BITMAP
38
60
60
F0
60
60
60
60
60
ENDCHAR
STARTCHAR 1DBB
ENCODING 7611
SWIDTH 308 0
DWIDTH 6 0
BBX 5 6 0 7
BITMAP
78
18
30
20
60
F8
ENDCHAR
STARTCHAR 1E06
ENCODING 7686
SWIDTH 565 0
DWIDTH 11 0
BBX 9 16 2 -4
BITMAP
FC00
FF00
C700
C300
C700
FE00
FF00
C300
C380
C380
FF00
FE00
0000
0000
0000
7C00
ENDCHAR
STARTCHAR 1E07
ENCODING 7687
SWIDTH 565 0
DWIDTH 11 0
BBX 9 18 1 -4
BITMAP
E000
E000
E000
E000
E000
FE00
FF00
E380
E180
E180
E380
E300
FF00
DE00
0000
0000
0000
3E00
ENDCHAR
STARTCHAR 1E0C
ENCODING 7692
SWIDTH 617 0
DWIDTH 12 0
BBX 9 16 2 -4
BITMAP
FC00
FE00
C700
C380
C180
C180
C180
C180
C380
C700
FE00
FC00
0000
0000
1800
1800
ENDCHAR
STARTCHAR 1E0D
ENCODING 7693
SWIDTH 565 0
DWIDTH 11 0
BBX 8 18 1 -4
BITMAP
03
03
03
03
03
3F
7F
E3
C3
C3
C3
E3
7F
3B
00
00
0C
0C
ENDCHAR
STARTCHAR 1E0E
ENCODING 7694
SWIDTH 617 0
DWIDTH 12 0
BBX 9 16 2 -4
BITMAP
FC00
FE00
C700
C380
C180
C180
C180
C180
C380
C700
FE00
FC00
0000
0000
0000
7E00
ENDCHAR
STARTCHAR 1E0F
ENCODING 7695
SWIDTH 565 0
DWIDTH 11 0
BBX 8 18 1 -4
BITMAP
03
03
03
03
03
3F
7F
E3
C3
C3
C3
E3
7F
3B
00
00
00
3E
ENDCHAR
STARTCHAR 1E16
ENCODING 7702
SWIDTH 977 0
DWIDTH 19 0
BBX 12 12 4 0
BITMAP
1E00
3800
7800
F800
F000
F800
F800
FC00
7E10
7FE0
3FC0
0F00
ENDCHAR
STARTCHAR 1E17
ENCODING 7703
SWIDTH 514 0
DWIDTH 10 0
BBX 8 17 1 0
BITMAP
04
1C
10
00
7E
00
00
00
3C
7E
E3
C3
FF
C0
E2
7E
3D
ENDCHAR
STARTCHAR 1E20
ENCODING 7712
SWIDTH 617 0
DWIDTH 12 0
BBX 10 15 1 0
BITMAP
1F80
0000
0000
1F00
3F80
70C0
E000
C000
C7C0
C7C0
C0C0
E0C0
70C0
3FC0
1F00
ENDCHAR
STARTCHAR 1E21
ENCODING 7713
SWIDTH 514 0
DWIDTH 10 0
BBX 9 16 1 -4
BITMAP
3E00
0000
0000
3F00
FF00
C600
C600
7E00
7C00
C000
C000
7F00
7F80
C380
FF00
7E00
ENDCHAR
STARTCHAR 1E24
ENCODING 7716
SWIDTH 668 0
DWIDTH 13 0
BBX 9 16 2 -4
BITMAP
C180
C180
C180
C180
C180
FF80
FF80
C180
C180
C180
C180
C180
0000
0000
1800
1C00
ENDCHAR
STARTCHAR 1E25
ENCODING 7717
SWIDTH 565 0
DWIDTH 11 0
BBX 8 18 1 -4
BITMAP
E0
E0
E0
E0
E0
EE
FF
E3
E3
E3
E3
E3
E3
E3
00
00
1C
1C
ENDCHAR
STARTCHAR 1E2A
ENCODING 7722
SWIDTH 668 0
DWIDTH 13 0
BBX 9 16 2 -4
BITMAP
C180
C180
C180
C180
C180
FF80
FF80
C180
C180
C180
C180
C180
0000
6200
2600
3C00
ENDCHAR
STARTCHAR 1E2B
ENCODING 7723
SWIDTH 565 0
DWIDTH 11 0
BBX 8 18 1 -4
BITMAP
E0
E0
E0
E0
E0
EE
FF
E3
E3
E3
E3
E3
E3
E3
00
63
22
1C
ENDCHAR
STARTCHAR 1E32
ENCODING 7730
SWIDTH 565 0
DWIDTH 11 0
BBX 9 16 2 -4
BITMAP
C380
C600
CE00
DC00
D800
F800
EC00
EE00
C600
C700
C300
C180
0000
0000
1800
1C00
ENDCHAR
STARTCHAR 1E33
ENCODING 7731
SWIDTH 514 0
DWIDTH 10 0
BBX 9 18 1 -4
BITMAP
E000
E000
E000
E000
E000
E300
E600
EC00
F800
FC00
EC00
E600
E300
E300
0080
0000
1C00
1C00
ENDCHAR
STARTCHAR 1E34
ENCODING 7732
SWIDTH 565 0
DWIDTH 11 0
BBX 9 16 2 -4
BITMAP
C380
C600
CE00
DC00
D800
F800
EC00
EE00
C600
C700
C300
C180
0000
0000
0000
3E00
ENDCHAR
STARTCHAR 1E35
ENCODING 7733
SWIDTH 514 0
DWIDTH 10 0
BBX 9 18 1 -4
BITMAP
E000
E000
E000
E000
E000
E300
E600
EC00
F800
FC00
EC00
E600
E300
E300
0080
0000
0000
3E00
ENDCHAR
STARTCHAR 1E36
ENCODING 7734
SWIDTH 514 0
DWIDTH 10 0
BBX 7 16 2 -4
BITMAP
C0
C0
C0
C0
C0
C0
C0
C0
C0
C0
FE
FE
00
00
38
38
ENDCHAR
STARTCHAR 1E37
ENCODING 7735
SWIDTH 257 0
DWIDTH 5 0
BBX 4 18 1 -4
BITMAP
E0
E0
E0
E0
E0
E0
E0
E0
E0
E0
E0
E0
60
70
00
00
60
70
ENDCHAR
STARTCHAR 1E38
ENCODING 7736
SWIDTH 514 0
DWIDTH 10 0
BBX 9 19 0 -4
BITMAP
F800
0000
0000
3000
3000
3000
3000
3000
3000
3000
3000
3000
3000
3F80
3F80
0000
0000
0E00
0E00
ENDCHAR
STARTCHAR 1E39
ENCODING 7737
SWIDTH 257 0
DWIDTH 5 0
BBX 5 20 0 -4
BITMAP
F8
00
70
70
70
70
70
70
70
70
70
70
70
70
30
38
00
00
30
38
ENDCHAR
STARTCHAR 1E3A
ENCODING 7738
SWIDTH 514 0
DWIDTH 10 0
BBX 7 16 2 -4
BITMAP
C0
C0
C0
C0
C0
C0
C0
C0
C0
C0
FE
FE
00
00
00
7C
ENDCHAR
STARTCHAR 1E3B
ENCODING 7739
SWIDTH 257 0
DWIDTH 5 0
BBX 5 18 1 -4
BITMAP
E0
E0
E0
E0
E0
E0
E0
E0
E0
E0
E0
E0
60
70
00
00
00
F8
ENDCHAR
STARTCHAR 1E3E
ENCODING 7742
SWIDTH 720 0
DWIDTH 14 0
BBX 11 18 2 0
BITMAP
0200
0700
0E00
0800
0000
0000
C0E0
E0E0
E1E0
A160
B360
F360
DA60
DE60
DE60
CC60
CC60
C060
ENDCHAR
STARTCHAR 1E3F
ENCODING 7743
SWIDTH 822 0
DWIDTH 16 0
BBX 14 15 1 0
BITMAP
0080
01C0
0180
0300
0000
0000
DE78
FFF8
E39C
E30C
E30C
E30C
E30C
E30C
E30C
ENDCHAR
STARTCHAR 1E40
ENCODING 7744
SWIDTH 720 0
DWIDTH 14 0
BBX 11 16 2 0
BITMAP
0C00
0C00
0000
0000
C0E0
E0E0
E1E0
A160
B360
F360
DA60
DE60
DE60
CC60
CC60
C060
ENDCHAR
STARTCHAR 1E41
ENCODING 7745
SWIDTH 822 0
DWIDTH 16 0
BBX 14 13 1 0
BITMAP
0300
0300
0000
0000
DE78
FFF8
E39C
E30C
E30C
E30C
E30C
E30C
E30C
ENDCHAR
STARTCHAR 1E42
ENCODING 7746
SWIDTH 720 0
DWIDTH 14 0
BBX 11 16 2 -4
BITMAP
C0E0
E0E0
E1E0
A160
B360
F360
DA60
DE60
DE60
CC60
CC60
C060
0000
0000
0C00
0C00
ENDCHAR
STARTCHAR 1E43
ENCODING 7747
SWIDTH 822 0
DWIDTH 16 0
BBX 14 13 1 -4
BITMAP
DE78
FFF8
E39C
E30C
E30C
E30C
E30C
E30C
E30C
0000
0000
0300
0380
ENDCHAR
STARTCHAR 1E44
ENCODING 7748
SWIDTH 617 0
DWIDTH 12 0
BBX 9 16 2 0
BITMAP
1800
1C00
0000
0000
C180
E180
E180
B180
F180
D980
DD80
CD80
C780
C780
C380
C380
ENDCHAR
STARTCHAR 1E45
ENCODING 7749
SWIDTH 565 0
DWIDTH 11 0
BBX 8 13 1 0
BITMAP
0C
1C
00
00
DE
FF
E3
E3
E3
E3
E3
E3
E3
ENDCHAR
STARTCHAR 1E46
ENCODING 7750
SWIDTH 617 0
DWIDTH 12 0
BBX 9 16 2 -4
BITMAP
C180
E180
E180
B180
F180
D980
DD80
CD80
C780
C780
C380
C380
0000
0000
1C00
1C00
ENDCHAR
STARTCHAR 1E47
ENCODING 7751
SWIDTH 565 0
DWIDTH 11 0
BBX 8 13 1 -4
BITMAP
DE
FF
E3
E3
E3
E3
E3
E3
E3
00
00
1C
1C
ENDCHAR
STARTCHAR 1E48
ENCODING 7752
SWIDTH 617 0
DWIDTH 12 0
BBX 9 16 2 -4
BITMAP
C180
E180
E180
B180
F180
D980
DD80
CD80
C780
C780
C380
C380
0000
0000
0000
3E00
ENDCHAR
STARTCHAR 1E49
ENCODING 7753
SWIDTH 565 0
DWIDTH 11 0
BBX 8 13 1 -4
BITMAP
DE
FF
E3
E3
E3
E3
E3
E3
E3
00
00
00
3E
ENDCHAR
STARTCHAR 1E52
ENCODING 7762
SWIDTH 668 0
DWIDTH 13 0
BBX 11 19 1 0
BITMAP
0200
0700
0C00
0000
1F00
0000
0000
1F00
3F80
71C0
E0E0
C0E0
C060
C060
C0E0
E0C0
71C0
3F80
1F00
ENDCHAR
STARTCHAR 1E53
ENCODING 7763
SWIDTH 514 0
DWIDTH 10 0
BBX 9 17 1 0
BITMAP
0400
0C00
1000
0000
3E00
0000
0000
0000
3C00
7F00
E300
C380
C380
C380
E300
7F00
3C00
ENDCHAR
STARTCHAR 1E58
ENCODING 7768
SWIDTH 565 0
DWIDTH 11 0
BBX 9 16 2 0
BITMAP
3800
1800
0000
0000
FE00
FF00
C300
C300
C300
C700
FE00
FC00
CE00
C600
C700
C380
ENDCHAR
STARTCHAR 1E59
ENCODING 7769
SWIDTH 360 0
DWIDTH 7 0
BBX 6 13 1 0
BITMAP
38
38
00
00
DC
FC
E0
E0
E0
E0
E0
E0
E0
ENDCHAR
STARTCHAR 1E5A
ENCODING 7770
SWIDTH 565 0
DWIDTH 11 0
BBX 9 16 2 -4
BITMAP
FE00
FF00
C300
C300
C300
C700
FE00
FC00
CE00
C600
C700
C380
0000
0000
1800
1800
ENDCHAR
STARTCHAR 1E5B
ENCODING 7771
SWIDTH 360 0
DWIDTH 7 0
BBX 6 13 1 -4
BITMAP
DC
FC
E0
E0
E0
E0
E0
E0
E0
00
00
E0
E0
ENDCHAR
STARTCHAR 1E5C
ENCODING 7772
SWIDTH 565 0
DWIDTH 11 0
BBX 9 19 2 -4
BITMAP
7C00
0000
0000
FE00
FF00
C300
C300
C300
C700
FE00
FC00
CE00
C600
C700
C380
0000
0000
1800
1800
ENDCHAR
STARTCHAR 1E5D
ENCODING 7773
SWIDTH 360 0
DWIDTH 7 0
BBX 6 16 1 -4
BITMAP
7C
00
00
DC
FC
E0
E0
E0
E0
E0
E0
E0
00
00
E0
E0
ENDCHAR
STARTCHAR 1E5E
ENCODING 7774
SWIDTH 565 0
DWIDTH 11 0
BBX 9 16 2 -4
BITMAP
FE00
FF00
C300
C300
C300
C700
FE00
FC00
CE00
C600
C700
C380
0000
0000
0000
7E00
ENDCHAR
STARTCHAR 1E5F
ENCODING 7775
SWIDTH 360 0
DWIDTH 7 0
BBX 7 13 0 -4
BITMAP
6E
7E
70
70
70
70
70
70
70
00
00
00
F8
ENDCHAR
STARTCHAR 1E60
ENCODING 7776
SWIDTH 514 0
DWIDTH 10 0
BBX 9 16 1 0
BITMAP
1C00
1C00
0000
0000
3E00
7F00
E300
E000
7000
7C00
1F00
0380
0380
C380
FF00
3E00
ENDCHAR
STARTCHAR 1E61
ENCODING 7777
SWIDTH 411 0
DWIDTH 8 0
BBX 8 13 0 0
BITMAP
18
1C
00
00
3C
7E
62
70
3E
06
47
FE
3C
ENDCHAR
STARTCHAR 1E62
ENCODING 7778
SWIDTH 514 0
DWIDTH 10 0
BBX 9 16 1 -4
BITMAP
3E00
7F00
E300
E000
7000
7C00
1F00
0380
0380
C380
FF00
3E00
0000
0000
1800
1C00
ENDCHAR
STARTCHAR 1E63
ENCODING 7779
SWIDTH 411 0
DWIDTH 8 0
BBX 8 13 0 -4
BITMAP
3C
7E
62
70
3E
06
47
FE
3C
00
00
18
1C
ENDCHAR
STARTCHAR 1E6C
ENCODING 7788
SWIDTH 514 0
DWIDTH 10 0
BBX 10 16 0 -4
BITMAP
FFC0
FFC0
0C00
0C00
0C00
0C00
0C00
0C00
0C00
0C00
0C00
0C00
0000
0000
0C00
0C00
ENDCHAR
STARTCHAR 1E6D
ENCODING 7789
SWIDTH 360 0
DWIDTH 7 0
BBX 7 16 0 -4
BITMAP
30
30
30
FC
FC
30
30
30
30
30
3C
1E
00
00
18
1C
ENDCHAR
STARTCHAR 1E6E
ENCODING 7790
SWIDTH 514 0
DWIDTH 10 0
BBX 10 16 0 -4
BITMAP
FFC0
FFC0
0C00
0C00
0C00
0C00
0C00
0C00
0C00
0C00
0C00
0C00
0000
0000
0000
1F00
ENDCHAR
STARTCHAR 1E6F
ENCODING 7791
SWIDTH 360 0
DWIDTH 7 0
BBX 7 16 0 -4
BITMAP
30
30
30
FC
FC
30
30
30
30
30
3C
1E
00
00
00
3E
ENDCHAR
STARTCHAR 1E80
ENCODING 7808
SWIDTH 771 0
DWIDTH 15 0
BBX 15 18 0 0
BITMAP
0400
0600
0380
0100
0000
0000
E186
638E
638C
62CC
62CC
76CC
36CC
3658
3478
3C78
1C78
1C38
ENDCHAR
STARTCHAR 1E81
ENCODING 7809
SWIDTH 720 0
DWIDTH 14 0
BBX 14 15 0 0
BITMAP
0400
0E00
0700
0100
0000
0000
E30C
6398
6398
6798
3698
34F0
34F0
1CF0
1C70
ENDCHAR
STARTCHAR 1E82
ENCODING 7810
SWIDTH 771 0
DWIDTH 15 0
BBX 15 18 0 0
BITMAP
0040
00C0
01A0
0300
0000
0000
E186
638E
638C
62CC
62CC
76CC
36CC
3658
3478
3C78
1C78
1C38
ENDCHAR
STARTCHAR 1E83
ENCODING 7811
SWIDTH 720 0
DWIDTH 14 0
BBX 14 15 0 0
BITMAP
0080
01C0
0380
0100
0000
0000
E30C
6398
6398
6798
3698
34F0
34F0
1CF0
1C70
ENDCHAR
STARTCHAR 1E84
ENCODING 7812
SWIDTH 771 0
DWIDTH 15 0
BBX 15 16 0 0
BITMAP
0660
0EE0
0000
0000
E186
638E
638C
62CC
62CC
76CC
36CC
3658
3478
3C78
1C78
1C38
ENDCHAR
STARTCHAR 1E85
ENCODING 7813
SWIDTH 720 0
DWIDTH 14 0
BBX 14 13 0 0
BITMAP
0CC0
0CC0
0000
0000
E30C
6398
6398
6798
3698
34F0
34F0
1CF0
1C70
ENDCHAR
STARTCHAR 1E8E
ENCODING 7822
SWIDTH 514 0
DWIDTH 10 0
BBX 10 16 0 0
BITMAP
0C00
1C00
0000
0000
E1C0
6180
6300
3300
3600
1E00
1C00
0C00
0C00
0C00
0C00
0C00
ENDCHAR
STARTCHAR 1E8F
ENCODING 7823
SWIDTH 462 0
DWIDTH 9 0
BBX 9 17 0 -4
BITMAP
0C00
0C00
0000
0000
E180
6180
6300
3300
3300
3600
1E00
1E00
0C00
0C00
1800
7800
7000
ENDCHAR
STARTCHAR 1E92
ENCODING 7826
SWIDTH 514 0
DWIDTH 10 0
BBX 9 16 1 -4
BITMAP
FF80
FF00
0600
0600
0C00
1800
1800
3000
6000
6000
FF80
FF80
0000
0000
1800
1C00
ENDCHAR
STARTCHAR 1E93
ENCODING 7827
SWIDTH 411 0
DWIDTH 8 0
BBX 7 13 1 -4
BITMAP
FE
FC
0C
18
30
70
60
FE
FE
00
00
38
38
ENDCHAR
STARTCHAR 1E94
ENCODING 7828
SWIDTH 514 0
DWIDTH 10 0
BBX 9 16 1 -4
BITMAP
FF80
FF00
0600
0600
0C00
1800
1800
3000
6000
6000
FF80
FF80
0000
0000
0000
3E00
ENDCHAR
STARTCHAR 1E95
ENCODING 7829
SWIDTH 411 0
DWIDTH 8 0
BBX 7 13 1 -4
BITMAP
FE
FC
0C
18
30
70
60
FE
FE
00
00
00
7C
ENDCHAR
STARTCHAR 1E96
ENCODING 7830
SWIDTH 565 0
DWIDTH 11 0
BBX 8 18 1 -4
BITMAP
E0
E0
E0
E0
E0
EE
FF
E3
E3
E3
E3
E3
E3
E3
00
00
00
3E
ENDCHAR
STARTCHAR 1E97
ENCODING 7831
SWIDTH 360 0
DWIDTH 7 0
BBX 7 16 0 0
BITMAP
CC
CC
00
00
30
30
30
FC
FC
30
30
30
30
30
3C
1E
ENDCHAR
STARTCHAR 1E9E
ENCODING 7838
SWIDTH 668 0
DWIDTH 13 0
BBX 10 12 2 0
BITMAP
3E00
7F00
E380
C180
C200
C700
C780
C1C0
C0C0
C8C0
DFC0
CF80
ENDCHAR
STARTCHAR 1EA0
ENCODING 7840
SWIDTH 565 0
DWIDTH 11 0
BBX 11 16 0 -4
BITMAP
0E00
0E00
1A00
1B00
3300
3300
3180
7F80
7F80
60C0
E0C0
C0C0
0020
0000
0C00
0E00
ENDCHAR
STARTCHAR 1EA1
ENCODING 7841
SWIDTH 514 0
DWIDTH 10 0
BBX 8 13 1 -4
BITMAP
3C
FE
46
1F
67
C7
C7
FF
7B
00
00
18
18
ENDCHAR
STARTCHAR 1EA2
ENCODING 7842
SWIDTH 565 0
DWIDTH 11 0
BBX 11 17 0 0
BITMAP
0C00
0600
0C00
0000
0000
0E00
0E00
1A00
1B00
3300
3300
3180
7F80
7F80
60C0
E0C0
C0E0
ENDCHAR
STARTCHAR 1EA3
ENCODING 7843
SWIDTH 514 0
DWIDTH 10 0
BBX 8 15 1 0
BITMAP
18
0C
0C
18
00
00
3C
FE
46
1F
67
C7
C7
FF
7B
ENDCHAR
STARTCHAR 1EA4
ENCODING 7844
SWIDTH 565 0
DWIDTH 11 0
BBX 11 17 0 0
BITMAP
00C0
0F80
1300
0000
0000
0E00
0E00
1A00
1B00
3300
3300
3180
7F80
7F80
60C0
E0C0
C0E0
ENDCHAR
STARTCHAR 1EA5
ENCODING 7845
SWIDTH 514 0
DWIDTH 10 0
BBX 9 15 1 0
BITMAP
0180
0100
1A00
3400
4600
0000
3C00
FE00
4600
1F00
6700
C700
C700
FF00
7B00
ENDCHAR
STARTCHAR 1EA6
ENCODING 7846
SWIDTH 565 0
DWIDTH 11 0
BBX 11 17 0 0
BITMAP
4000
2E00
1300
0000
0000
0E00
0E00
1A00
1B00
3300
3300
3180
7F80
7F80
60C0
E0C0
C0E0
ENDCHAR
STARTCHAR 1EA7
ENCODING 7847
SWIDTH 514 0
DWIDTH 10 0
BBX 9 15 0 0
BITMAP
4000
C000
2C00
1A00
2300
0000
1E00
7F00
2300
0F80
3380
6380
6380
7F80
3D80
ENDCHAR
STARTCHAR 1EA8
ENCODING 7848
SWIDTH 565 0
DWIDTH 11 0
BBX 11 18 0 0
BITMAP
0180
00C0
0F80
1300
0000
0000
0E00
0E00
1A00
1B00
3300
3300
3180
7F80
7F80
60C0
E0C0
C0E0
ENDCHAR
STARTCHAR 1EA9
ENCODING 7849
SWIDTH 514 0
DWIDTH 10 0
BBX 9 15 1 0
BITMAP
0300
0180
1B00
3400
4600
0000
3C00
FE00
4600
1F00
6700
C700
C700
FF00
7B00
ENDCHAR
STARTCHAR 1EAA
ENCODING 7850
SWIDTH 565 0
DWIDTH 11 0
BBX 11 19 0 0
BITMAP
1900
3700
0000
0E00
1300
0000
0000
0E00
0E00
1A00
1B00
3300
3300
3180
7F80
7F80
60C0
E0C0
C0E0
ENDCHAR
STARTCHAR 1EAB
ENCODING 7851
SWIDTH 514 0
DWIDTH 10 0
BBX 8 16 1 0
BITMAP
24
7E
00
18
34
46
00
3C
FE
46
1F
67
C7
C7
FF
7B
ENDCHAR
STARTCHAR 1EAC
ENCODING 7852
SWIDTH 565 0
DWIDTH 11 0
BBX 11 21 0 -4
BITMAP
0E00
1B00
3100
0000
0000
0E00
0E00
1A00
1B00
3300
3300
3180
7F80
7F80
60C0
E0C0
C0C0
0020
0000
0C00
0E00
ENDCHAR
STARTCHAR 1EAD
ENCODING 7853
SWIDTH 514 0
DWIDTH 10 0
BBX 8 18 1 -4
BITMAP
1C
3E
42
00
00
3C
FE
46
1F
67
C7
C7
FF
7B
00
00
18
18
ENDCHAR
STARTCHAR 1EAE
ENCODING 7854
SWIDTH 565 0
DWIDTH 11 0
BBX 11 19 0 0
BITMAP
0200
0700
3D00
1300
1E00
0000
0000
0E00
0E00
1A00
1B00
3300
3300
3180
7F80
7F80
60C0
E0C0
C0E0
ENDCHAR
STARTCHAR 1EAF
ENCODING 7855
SWIDTH 514 0
DWIDTH 10 0
BBX 8 16 1 0
BITMAP
04
0C
5A
66
3C
00
00
3C
FE
46
1F
67
C7
C7
FF
7B
ENDCHAR
STARTCHAR 1EB0
ENCODING 7856
SWIDTH 565 0
DWIDTH 11 0
BBX 11 19 0 0
BITMAP
0800
1C00
3500
1300
1E00
0000
0000
0E00
0E00
1A00
1B00
3300
3300
3180
7F80
7F80
60C0
E0C0
C0E0
ENDCHAR
STARTCHAR 1EB1
ENCODING 7857
SWIDTH 514 0
DWIDTH 10 0
BBX 8 16 1 0
BITMAP
10
30
4A
66
3C
00
00
3C
FE
46
1F
67
C7
C7
FF
7B
ENDCHAR
STARTCHAR 1EB2
ENCODING 7858
SWIDTH 565 0
DWIDTH 11 0
BBX 11 19 0 0
BITMAP
0C00
0600
3500
1300
1E00
0000
0000
0E00
0E00
1A00
1B00
3300
3300
3180
7F80
7F80
60C0
E0C0
C0E0
ENDCHAR
STARTCHAR 1EB3
ENCODING 7859
SWIDTH 514 0
DWIDTH 10 0
BBX 8 16 1 0
BITMAP
18
0C
5A
66
3C
00
00
3C
FE
46
1F
67
C7
C7
FF
7B
ENDCHAR
STARTCHAR 1EB4
ENCODING 7860
SWIDTH 565 0
DWIDTH 11 0
BBX 11 18 0 0
BITMAP
1900
3700
0000
3100
1E00
0000
0E00
0E00
1A00
1B00
3300
3300
3180
7F80
7F80
60C0
E0C0
C0E0
ENDCHAR
STARTCHAR 1EB5
ENCODING 7861
SWIDTH 514 0
DWIDTH 10 0
BBX 8 16 1 0
BITMAP
24
7E
00
66
3C
00
00
3C
FE
46
1F
67
C7
C7
FF
7B
ENDCHAR
STARTCHAR 1EB6
ENCODING 7862
SWIDTH 565 0
DWIDTH 11 0
BBX 11 20 0 -4
BITMAP
3100
1E00
0000
0000
0E00
0E00
1A00
1B00
3300
3300
3180
7F80
7F80
60C0
E0C0
C0C0
0020
0000
0C00
0E00
ENDCHAR
STARTCHAR 1EB7
ENCODING 7863
SWIDTH 514 0
DWIDTH 10 0
BBX 8 18 1 -4
BITMAP
42
66
3C
00
00
3C
FE
46
1F
67
C7
C7
FF
7B
00
00
18
18
ENDCHAR
STARTCHAR 1EB8
ENCODING 7864
SWIDTH 977 0
DWIDTH 19 0
BBX 11 11 0 1
BITMAP
8020
C060
E0A0
F1E0
DBE0
FFE0
7FC0
3D80
1F00
0A00
0400
ENDCHAR
STARTCHAR 1EB9
ENCODING 7865
SWIDTH 514 0
DWIDTH 10 0
BBX 8 13 1 -4
BITMAP
3C
7E
E3
C3
FF
C0
E2
7E
3D
00
00
18
18
ENDCHAR
STARTCHAR 1EBA
ENCODING 7866
SWIDTH 977 0
DWIDTH 19 0
BBX 11 11 0 1
BITMAP
0600
0B00
1F80
3FC0
5FE0
BDE0
EBE0
D160
A0E0
C060
8020
ENDCHAR
STARTCHAR 1EBB
ENCODING 7867
SWIDTH 514 0
DWIDTH 10 0
BBX 8 15 1 0
BITMAP
18
0C
0C
18
00
00
3C
7E
E3
C3
FF
C0
E2
7E
3D
ENDCHAR
STARTCHAR 1EBC
ENCODING 7868
SWIDTH 977 0
DWIDTH 19 0
BBX 8 17 0 -2
BITMAP
18
24
34
34
34
24
34
34
34
34
52
9A
BE
BF
BA
46
38
ENDCHAR
STARTCHAR 1EBD
ENCODING 7869
SWIDTH 514 0
DWIDTH 10 0
BBX 8 15 1 0
BITMAP
33
7A
5E
4E
00
00
3C
7E
E3
C3
FF
C0
E2
7E
3D
ENDCHAR
STARTCHAR 1EBE
ENCODING 7870
SWIDTH 977 0
DWIDTH 19 0
BBX 17 9 0 2
BITMAP
07F000
1C1800
300400
600A00
401300
C02100
C04100
80C180
018000
ENDCHAR
STARTCHAR 1EBF
ENCODING 7871
SWIDTH 514 0
DWIDTH 10 0
BBX 9 15 1 0
BITMAP
0100
0180
1A00
3400
4600
0000
3C00
7E00
E300
C300
FF00
C000
E200
7E00
3D00
ENDCHAR
STARTCHAR 1EC0
ENCODING 7872
SWIDTH 1234 0
DWIDTH 24 0
BBX 17 13 4 0
BITMAP
000F00
000F80
000180
000180
3FFF00
000000
000000
7FC000
FFE000
003000
003000
01F000
00E000
ENDCHAR
STARTCHAR 1EC1
ENCODING 7873
SWIDTH 514 0
DWIDTH 10 0
BBX 9 15 0 0
BITMAP
4000
C000
2C00
1A00
2300
0000
1E00
3F00
7180
6180
7F80
6000
7100
3F00
1E80
ENDCHAR
STARTCHAR 1EC2
ENCODING 7874
SWIDTH 720 0
DWIDTH 14 0
BBX 15 19 0 -3
BITMAP
0300
0780
07C0
0FE0
1FF0
3FF0
23B8
4B38
4B7C
CA7C
E2DC
FC8E
FDA4
FDA4
7BA4
7B88
3FF0
1FE0
0780
ENDCHAR
STARTCHAR 1EC3
ENCODING 7875
SWIDTH 514 0
DWIDTH 10 0
BBX 8 15 1 0
BITMAP
03
01
1B
34
46
00
3C
7E
E3
C3
FF
C0
E2
7E
3D
ENDCHAR
STARTCHAR 1EC4
ENCODING 7876
SWIDTH 977 0
DWIDTH 19 0
BBX 11 17 0 -2
BITMAP
0400
0600
0E00
0F00
1F00
1F80
3F80
3FC0
7FC0
7FE0
FFE0
BFE0
FFE0
4FE0
61C0
3F80
0E00
ENDCHAR
STARTCHAR 1EC5
ENCODING 7877
SWIDTH 514 0
DWIDTH 10 0
BBX 8 16 1 0
BITMAP
24
7E
00
18
34
46
00
3C
7E
E3
C3
FF
C0
E2
7E
3D
ENDCHAR
STARTCHAR 1EC6
ENCODING 7878
SWIDTH 977 0
DWIDTH 19 0
BBX 17 17 0 -2
BITMAP
008000
008000
208600
108C00
098800
03E000
07F000
0FF000
FFF780
07F000
07F000
03E000
180800
308400
208200
008000
008000
ENDCHAR
STARTCHAR 1EC7
ENCODING 7879
SWIDTH 514 0
DWIDTH 10 0
BBX 8 18 1 -4
BITMAP
1C
3E
42
00
00
3C
7E
E3
C3
FF
C0
E2
7E
3D
00
00
18
18
ENDCHAR
STARTCHAR 1EC8
ENCODING 7880
SWIDTH 257 0
DWIDTH 5 0
BBX 3 17 1 0
BITMAP
E0
20
60
00
00
60
60
60
60
60
60
60
60
60
60
60
60
ENDCHAR
STARTCHAR 1EC9
ENCODING 7881
SWIDTH 257 0
DWIDTH 5 0
BBX 3 15 1 0
BITMAP
C0
60
60
40
00
00
E0
E0
E0
E0
E0
E0
E0
E0
E0
ENDCHAR
STARTCHAR 1ECA
ENCODING 7882
SWIDTH 257 0
DWIDTH 5 0
BBX 3 16 1 -4
BITMAP
60
60
60
60
60
60
60
60
60
60
60
60
00
00
60
E0
ENDCHAR
STARTCHAR 1ECB
ENCODING 7883
SWIDTH 257 0
DWIDTH 5 0
BBX 3 17 1 -4
BITMAP
E0
E0
00
00
E0
E0
E0
E0
E0
E0
E0
E0
E0
00
00
E0
E0
ENDCHAR
STARTCHAR 1ECC
ENCODING 7884
SWIDTH 668 0
DWIDTH 13 0
BBX 11 16 1 -4
BITMAP
1F00
3F80
71C0
E0E0
C0E0
C060
C060
C0E0
E0C0
71C0
3F80
1F00
0000
0000
0E00
0E00
ENDCHAR
STARTCHAR 1ECD
ENCODING 7885
SWIDTH 514 0
DWIDTH 10 0
BBX 9 13 1 -4
BITMAP
3C00
7F00
E300
C380
C380
C380
E300
7F00
3C00
0000
0000
1800
1C00
ENDCHAR
STARTCHAR 1ECE
ENCODING 7886
SWIDTH 668 0
DWIDTH 13 0
BBX 11 17 1 0
BITMAP
0E00
0600
0C00
0000
0000
1F00
3F80
71C0
E0E0
C0E0
C060
C060
C0E0
E0C0
71C0
3F80
1F00
ENDCHAR
STARTCHAR 1ECF
ENCODING 7887
SWIDTH 514 0
DWIDTH 10 0
BBX 9 15 1 0
BITMAP
1800
0C00
0C00
1800
0000
0000
3C00
7F00
E300
C380
C380
C380
E300
7F00
3C00
ENDCHAR
STARTCHAR 1ED0
ENCODING 7888
SWIDTH 668 0
DWIDTH 13 0
BBX 11 17 1 0
BITMAP
00C0
0F80
1300
0000
0000
1F00
3F80
71C0
E0E0
C0E0
C060
C060
C0E0
E0C0
71C0
3F80
1F00
ENDCHAR
STARTCHAR 1ED1
ENCODING 7889
SWIDTH 514 0
DWIDTH 10 0
BBX 9 15 1 0
BITMAP
0080
0100
1F00
3400
6600
0000
3C00
7F00
E300
C380
C380
C380
E300
7F00
3C00
ENDCHAR
STARTCHAR 1ED2
ENCODING 7890
SWIDTH 668 0
DWIDTH 13 0
BBX 11 17 1 0
BITMAP
4000
3E00
1300
0000
0000
1F00
3F80
71C0
E0E0
C0E0
C060
C060
C0E0
E0C0
71C0
3F80
1F00
ENDCHAR
STARTCHAR 1ED3
ENCODING 7891
SWIDTH 514 0
DWIDTH 10 0
BBX 10 15 0 0
BITMAP
4000
E000
2E00
1A00
3300
0000
1E00
3F80
7180
61C0
61C0
61C0
7180
3F80
1E00
ENDCHAR
STARTCHAR 1ED4
ENCODING 7892
SWIDTH 668 0
DWIDTH 13 0
BBX 11 18 1 0
BITMAP
0180
00C0
0E80
1300
0000
0000
1F00
3F80
71C0
E0E0
C0E0
C060
C060
C0E0
E0C0
71C0
3F80
1F00
ENDCHAR
STARTCHAR 1ED5
ENCODING 7893
SWIDTH 514 0
DWIDTH 10 0
BBX 9 15 1 0
BITMAP
0300
0180
1F00
3400
6600
0000
3C00
7F00
E300
C380
C380
C380
E300
7F00
3C00
ENDCHAR
STARTCHAR 1ED6
ENCODING 7894
SWIDTH 668 0
DWIDTH 13 0
BBX 11 19 1 0
BITMAP
1900
1700
0000
0E00
1300
0000
0000
1F00
3F80
71C0
E0E0
C0E0
C060
C060
C0E0
E0C0
71C0
3F80
1F00
ENDCHAR
STARTCHAR 1ED7
ENCODING 7895
SWIDTH 514 0
DWIDTH 10 0
BBX 9 16 1 0
BITMAP
1400
3E00
4000
1C00
3400
6600
0000
3C00
7F00
E300
C380
C380
C380
E300
7F00
3C00
ENDCHAR
STARTCHAR 1ED8
ENCODING 7896
SWIDTH 668 0
DWIDTH 13 0
BBX 11 21 1 -4
BITMAP
0E00
1B00
3100
0000
0000
1F00
3F80
71C0
E0E0
C0E0
C060
C060
C0E0
E0C0
71C0
3F80
1F00
0000
0000
0E00
0E00
ENDCHAR
STARTCHAR 1ED9
ENCODING 7897
SWIDTH 514 0
DWIDTH 10 0
BBX 9 18 1 -4
BITMAP
1C00
3600
6200
0000
0000
3C00
7F00
E300
C380
C380
C380
E300
7F00
3C00
0000
0000
1800
1C00
ENDCHAR
STARTCHAR 1EDA
ENCODING 7898
SWIDTH 668 0
DWIDTH 13 0
BBX 11 18 1 0
BITMAP
0100
0300
0E00
0420
0060
0060
1FE0
3F80
71C0
E0E0
C0E0
C060
C060
C0E0
E0E0
71C0
3F80
1F00
ENDCHAR
STARTCHAR 1EDB
ENCODING 7899
SWIDTH 514 0
DWIDTH 10 0
BBX 9 15 1 0
BITMAP
0400
0E00
0D80
1980
0180
3F80
7E00
E300
C300
C380
C380
C300
E300
7E00
3C00
ENDCHAR
STARTCHAR 1EDC
ENCODING 7900
SWIDTH 668 0
DWIDTH 13 0
BBX 11 18 1 0
BITMAP
1000
1800
2C00
0620
0060
0060
1FE0
3F80
71C0
E0E0
C0E0
C060
C060
C0E0
E0E0
71C0
3F80
1F00
ENDCHAR
STARTCHAR 1EDD
ENCODING 7901
SWIDTH 514 0
DWIDTH 10 0
BBX 9 15 1 0
BITMAP
2000
7000
3980
0980
0180
3F80
7E00
E300
C300
C380
C380
C300
E300
7E00
3C00
ENDCHAR
STARTCHAR 1EDE
ENCODING 7902
SWIDTH 668 0
DWIDTH 13 0
BBX 11 17 1 0
BITMAP
0E00
0600
0C20
0060
0060
1FE0
3F80
71C0
E0E0
C0E0
C060
C060
C0E0
E0E0
71C0
3F80
1F00
ENDCHAR
STARTCHAR 1EDF
ENCODING 7903
SWIDTH 514 0
DWIDTH 10 0
BBX 9 15 1 0
BITMAP
1800
0C00
0D80
1980
0180
3F80
7E00
E300
C300
C380
C380
C300
E300
7E00
3C00
ENDCHAR
STARTCHAR 1EE0
ENCODING 7904
SWIDTH 668 0
DWIDTH 13 0
BBX 11 18 1 0
BITMAP
1900
3D80
2F00
2720
0060
0060
1FE0
3F80
71C0
E0E0
C0E0
C060
C060
C0E0
E0E0
71C0
3F80
1F00
ENDCHAR
STARTCHAR 1EE1
ENCODING 7905
SWIDTH 514 0
DWIDTH 10 0
BBX 9 15 1 0
BITMAP
6200
7200
DF80
CD80
0180
3F80
7E00
E300
C300
C380
C380
C300
E300
7E00
3C00
ENDCHAR
STARTCHAR 1EE2
ENCODING 7906
SWIDTH 668 0
DWIDTH 13 0
BBX 11 19 1 -4
BITMAP
0020
0060
0060
1FE0
3F80
71C0
E0E0
C0E0
C060
C060
C0E0
E0E0
71C0
3F80
1F00
0000
0000
0E00
0E00
ENDCHAR
STARTCHAR 1EE3
ENCODING 7907
SWIDTH 514 0
DWIDTH 10 0
BBX 9 17 1 -4
BITMAP
0180
0180
0180
3F80
7E00
E300
C300
C380
C380
C300
E300
7E00
3C00
0000
0000
1800
1C00
ENDCHAR
STARTCHAR 1EE4
ENCODING 7908
SWIDTH 617 0
DWIDTH 12 0
BBX 9 16 2 -4
BITMAP
C180
C180
C180
C180
C180
C180
C180
C180
C180
E300
7F00
3E00
0000
0000
1800
1C00
ENDCHAR
STARTCHAR 1EE5
ENCODING 7909
SWIDTH 565 0
DWIDTH 11 0
BBX 8 13 1 -4
BITMAP
C3
C3
C3
C3
C3
C3
E7
7F
7B
00
00
1C
1C
ENDCHAR
STARTCHAR 1EE6
ENCODING 7910
SWIDTH 617 0
DWIDTH 12 0
BBX 9 17 2 0
BITMAP
1800
0C00
1800
0000
0000
C180
C180
C180
C180
C180
C180
C180
C180
C180
E300
7F00
3E00
ENDCHAR
STARTCHAR 1EE7
ENCODING 7911
SWIDTH 565 0
DWIDTH 11 0
BBX 8 15 1 0
BITMAP
18
0C
0C
18
00
00
C3
C3
C3
C3
C3
C3
E7
7F
7B
ENDCHAR
STARTCHAR 1EE8
ENCODING 7912
SWIDTH 668 0
DWIDTH 13 0
BBX 11 18 2 0
BITMAP
0400
0E00
1C00
0860
0060
0060
C1C0
C180
C180
C180
C180
C180
C180
C180
C180
E300
7F00
3E00
ENDCHAR
STARTCHAR 1EE9
ENCODING 7913
SWIDTH 565 0
DWIDTH 11 0
BBX 10 15 1 0
BITMAP
0400
0E00
1C40
08C0
00C0
00C0
C380
C300
C300
C300
C300
C300
E700
7F00
7B00
ENDCHAR
STARTCHAR 1EEA
ENCODING 7914
SWIDTH 668 0
DWIDTH 13 0
BBX 11 18 2 0
BITMAP
2000
7000
1800
0860
0060
0060
C1C0
C180
C180
C180
C180
C180
C180
C180
C180
E300
7F00
3E00
ENDCHAR
STARTCHAR 1EEB
ENCODING 7915
SWIDTH 565 0
DWIDTH 11 0
BBX 10 15 1 0
BITMAP
2000
7000
3840
08C0
00C0
00C0
C380
C300
C300
C300
C300
C300
E700
7F00
7B00
ENDCHAR
STARTCHAR 1EEC
ENCODING 7916
SWIDTH 668 0
DWIDTH 13 0
BBX 11 17 2 0
BITMAP
1800
0C00
1860
0060
0060
C1C0
C180
C180
C180
C180
C180
C180
C180
C180
E300
7F00
3E00
ENDCHAR
STARTCHAR 1EED
ENCODING 7917
SWIDTH 565 0
DWIDTH 11 0
BBX 10 15 1 0
BITMAP
1800
0C00
0C40
18C0
00C0
00C0
C380
C300
C300
C300
C300
C300
E700
7F00
7B00
ENDCHAR
STARTCHAR 1EEE
ENCODING 7918
SWIDTH 668 0
DWIDTH 13 0
BBX 11 18 2 0
BITMAP
3200
7B00
7E00
4E60
0060
0060
C1C0
C180
C180
C180
C180
C180
C180
C180
C180
E300
7F00
3E00
ENDCHAR
STARTCHAR 1EEF
ENCODING 7919
SWIDTH 565 0
DWIDTH 11 0
BBX 10 15 1 0
BITMAP
3300
7A00
5E40
4EC0
00C0
00C0
C380
C300
C300
C300
C300
C300
E700
7F00
7B00
ENDCHAR
STARTCHAR 1EF0
ENCODING 7920
SWIDTH 668 0
DWIDTH 13 0
BBX 11 19 2 -4
BITMAP
0060
0060
0060
C1C0
C180
C180
C180
C180
C180
C180
C180
C180
E300
7F00
3E00
0000
0000
1800
1C00
ENDCHAR
STARTCHAR 1EF1
ENCODING 7921
SWIDTH 565 0
DWIDTH 11 0
BBX 10 17 1 -4
BITMAP
0040
00C0
00C0
00C0
C380
C300
C300
C300
C300
C300
E700
7F00
7B00
0000
0000
1C00
1C00
ENDCHAR
STARTCHAR 1EF2
ENCODING 7922
SWIDTH 514 0
DWIDTH 10 0
BBX 10 18 0 0
BITMAP
1000
3800
1C00
0800
0000
0000
E1C0
6180
6300
3300
3600
1E00
1C00
0C00
0C00
0C00
0C00
0C00
ENDCHAR
STARTCHAR 1EF3
ENCODING 7923
SWIDTH 462 0
DWIDTH 9 0
BBX 9 19 0 -4
BITMAP
1000
3800
1800
0C00
0000
0000
E180
6180
6300
3300
3300
3600
1E00
1E00
0C00
0C00
1800
7800
7000
ENDCHAR
STARTCHAR 1EF4
ENCODING 7924
SWIDTH 514 0
DWIDTH 10 0
BBX 10 16 0 -4
BITMAP
E1C0
6180
6300
3300
3600
1E00
1C00
0C00
0C00
0C00
0C00
0C00
0000
0000
0C00
1C00
ENDCHAR
STARTCHAR 1EF5
ENCODING 7925
SWIDTH 462 0
DWIDTH 9 0
BBX 9 13 0 -4
BITMAP
E180
6180
6300
3300
3300
3600
1E00
1E00
0C00
0C00
1800
7980
7180
ENDCHAR
STARTCHAR 1EF6
ENCODING 7926
SWIDTH 514 0
DWIDTH 10 0
BBX 10 17 0 0
BITMAP
1C00
0400
0C00
0000
0000
E1C0
6180
6300
3300
3600
1E00
1C00
0C00
0C00
0C00
0C00
0C00
ENDCHAR
STARTCHAR 1EF7
ENCODING 7927
SWIDTH 462 0
DWIDTH 9 0
BBX 9 19 0 -4
BITMAP
1C00
0400
0600
0C00
0000
0000
E180
6180
6300
3300
3300
3600
1E00
1E00
0C00
0C00
1800
7800
7000
ENDCHAR
STARTCHAR 1EF8
ENCODING 7928
SWIDTH 514 0
DWIDTH 10 0
BBX 10 18 0 0
BITMAP
1200
3900
6F00
6600
0000
0000
E1C0
6180
6300
3300
3600
1E00
1C00
0C00
0C00
0C00
0C00
0C00
ENDCHAR
STARTCHAR 1EF9
ENCODING 7929
SWIDTH 462 0
DWIDTH 9 0
BBX 9 19 0 -4
BITMAP
3100
3900
6F00
6600
0000
0000
E180
6180
6300
3300
3300
3600
1E00
1E00
0C00
0C00
1800
7800
7000
ENDCHAR
STARTCHAR 1F00
ENCODING 7936
SWIDTH 565 0
DWIDTH 11 0
BBX 10 15 1 0
BITMAP
1800
0C00
0C00
0800
0000
0000
3D80
7D80
E780
C300
C300
C300
E700
7FC0
39C0
ENDCHAR
STARTCHAR 1F01
ENCODING 7937
SWIDTH 565 0
DWIDTH 11 0
BBX 10 15 1 0
BITMAP
1C00
1800
1800
0800
0000
0000
3D80
7D80
E780
C300
C300
C300
E700
7FC0
39C0
ENDCHAR
STARTCHAR 1F02
ENCODING 7938
SWIDTH 565 0
DWIDTH 11 0
BBX 10 15 1 0
BITMAP
6C00
3600
3600
2200
0000
0000
3D80
7D80
E780
C300
C300
C300
E700
7FC0
39C0
ENDCHAR
STARTCHAR 1F03
ENCODING 7939
SWIDTH 565 0
DWIDTH 11 0
BBX 10 15 1 0
BITMAP
3C00
6600
6600
2200
0000
0000
3D80
7D80
E780
C300
C300
C300
E700
7FC0
39C0
ENDCHAR
STARTCHAR 1F04
ENCODING 7940
SWIDTH 565 0
DWIDTH 11 0
BBX 10 15 1 0
BITMAP
6600
3600
3400
2400
0000
0000
3D80
7D80
E780
C300
C300
C300
E700
7FC0
39C0
ENDCHAR
STARTCHAR 1F05
ENCODING 7941
SWIDTH 565 0
DWIDTH 11 0
BBX 10 15 1 0
BITMAP
3600
6600
6400
3400
0000
0000
3D80
7D80
E780
C300
C300
C300
E700
7FC0
39C0
ENDCHAR
STARTCHAR 1F06
ENCODING 7942
SWIDTH 565 0
DWIDTH 11 0
BBX 10 17 1 0
BITMAP
1400
2E00
0000
1800
0C00
0800
0000
0000
3D80
7D80
E780
C300
C300
C300
E700
7FC0
39C0
ENDCHAR
STARTCHAR 1F07
ENCODING 7943
SWIDTH 565 0
DWIDTH 11 0
BBX 10 17 1 0
BITMAP
1400
2E00
0000
0C00
1800
0800
0000
0000
3D80
7D80
E780
C300
C300
C300
E700
7FC0
39C0
ENDCHAR
STARTCHAR 1F08
ENCODING 7944
SWIDTH 617 0
DWIDTH 12 0
BBX 12 12 0 0
BITMAP
C700
E700
6D80
6D80
CD80
18C0
18C0
1FC0
3FE0
3060
3060
7070
ENDCHAR
STARTCHAR 1F09
ENCODING 7945
SWIDTH 617 0
DWIDTH 12 0
BBX 12 12 0 0
BITMAP
6700
EF00
CF00
CD80
5980
1980
18C0
3FC0
3FC0
30E0
7060
6070
ENDCHAR
STARTCHAR 1F0A
ENCODING 7946
SWIDTH 771 0
DWIDTH 15 0
BBX 15 12 0 0
BITMAP
D8E0
C9E0
69A0
4DB0
C330
0330
0318
07F8
07F8
060C
0E0C
0C0E
ENDCHAR
STARTCHAR 1F0B
ENCODING 7947
SWIDTH 771 0
DWIDTH 15 0
BBX 15 12 0 0
BITMAP
58E0
D9E0
A9E0
8DB0
4330
0330
0318
07F8
07F8
061C
0E0C
0C0E
ENDCHAR
STARTCHAR 1F0C
ENCODING 7948
SWIDTH 720 0
DWIDTH 14 0
BBX 15 12 0 0
BITMAP
CCE0
C9E0
79E0
59B0
C330
0330
0318
07F8
07F8
061C
0E0C
0C0E
ENDCHAR
STARTCHAR 1F0D
ENCODING 7949
SWIDTH 720 0
DWIDTH 14 0
BBX 14 12 0 0
BITMAP
4CE0
D9E0
B9E0
99B0
4330
0330
0318
07F8
07F8
061C
0E0C
0C0C
ENDCHAR
STARTCHAR 1F0E
ENCODING 7950
SWIDTH 617 0
DWIDTH 12 0
BBX 12 12 0 0
BITMAP
F300
F780
2780
4580
0CC0
0CC0
1CC0
1FE0
1FE0
3860
3030
3030
ENDCHAR
STARTCHAR 1F0F
ENCODING 7951
SWIDTH 617 0
DWIDTH 12 0
BBX 12 12 0 0
BITMAP
F300
F780
4780
2580
0CC0
0CC0
1CC0
1FE0
1FE0
3860
3030
3030
ENDCHAR
STARTCHAR 1F10
ENCODING 7952
SWIDTH 462 0
DWIDTH 9 0
BBX 7 15 1 0
BITMAP
38
08
0C
18
00
00
7C
FE
C4
78
F8
C0
C2
FE
7C
ENDCHAR
STARTCHAR 1F11
ENCODING 7953
SWIDTH 462 0
DWIDTH 9 0
BBX 7 15 1 0
BITMAP
18
30
30
08
00
00
7C
FE
C4
78
F8
C0
C2
FE
7C
ENDCHAR
STARTCHAR 1F12
ENCODING 7954
SWIDTH 462 0
DWIDTH 9 0
BBX 7 15 1 0
BITMAP
6C
AC
24
64
00
00
7C
FE
C4
78
F8
C0
C2
FE
7C
ENDCHAR
STARTCHAR 1F13
ENCODING 7955
SWIDTH 462 0
DWIDTH 9 0
BBX 7 15 1 0
BITMAP
6C
CC
C4
64
00
00
7C
FE
C4
78
F8
C0
C2
FE
7C
ENDCHAR
STARTCHAR 1F14
ENCODING 7956
SWIDTH 462 0
DWIDTH 9 0
BBX 7 15 1 0
BITMAP
66
AC
2C
68
00
00
7C
FE
C4
78
F8
C0
C2
FE
7C
ENDCHAR
STARTCHAR 1F15
ENCODING 7957
SWIDTH 462 0
DWIDTH 9 0
BBX 7 15 1 0
BITMAP
66
4C
4C
68
00
00
7C
FE
C4
78
F8
C0
C2
FE
7C
ENDCHAR
STARTCHAR 1F18
ENCODING 7960
SWIDTH 668 0
DWIDTH 13 0
BBX 12 12 0 0
BITMAP
CFF0
EFF0
6C00
6C00
CC00
0FE0
0FE0
0C00
0C00
0C00
0FF0
0FF0
ENDCHAR
STARTCHAR 1F19
ENCODING 7961
SWIDTH 668 0
DWIDTH 13 0
BBX 12 12 0 0
BITMAP
6FF0
EFF0
CC00
CC00
4C00
0FE0
0FE0
0C00
0C00
0C00
0FF0
0FF0
ENDCHAR
STARTCHAR 1F1A
ENCODING 7962
SWIDTH 822 0
DWIDTH 16 0
BBX 15 12 0 0
BITMAP
D9FC
C9FC
6980
4D80
C180
01FC
01FC
0180
0180
0180
01FE
01FE
ENDCHAR
STARTCHAR 1F1B
ENCODING 7963
SWIDTH 822 0
DWIDTH 16 0
BBX 15 12 0 0
BITMAP
59FC
D9FC
A980
8D80
4180
01FC
01FC
0180
0180
0180
01FE
01FE
ENDCHAR
STARTCHAR 1F1C
ENCODING 7964
SWIDTH 771 0
DWIDTH 15 0
BBX 14 12 0 0
BITMAP
CDFC
C9FC
7980
5980
C180
01F8
01F8
0180
0180
0180
01FC
01FC
ENDCHAR
STARTCHAR 1F1D
ENCODING 7965
SWIDTH 771 0
DWIDTH 15 0
BBX 14 12 0 0
BITMAP
4DFC
D9FC
B980
9980
4180
01F8
01F8
0180
0180
0180
01FC
01FC
ENDCHAR
STARTCHAR 1F20
ENCODING 7968
SWIDTH 514 0
DWIDTH 10 0
BBX 8 18 1 -3
BITMAP
1C
04
04
0C
00
00
CE
DF
F3
E3
E3
E3
E3
E3
E3
03
03
03
ENDCHAR
STARTCHAR 1F21
ENCODING 7969
SWIDTH 514 0
DWIDTH 10 0
BBX 8 18 1 -3
BITMAP
0C
18
18
0C
00
00
CE
DF
F3
E3
E3
E3
E3
E3
E3
03
03
03
ENDCHAR
STARTCHAR 1F22
ENCODING 7970
SWIDTH 514 0
DWIDTH 10 0
BBX 8 18 1 -3
BITMAP
66
16
16
22
00
00
CE
DF
F3
E3
E3
E3
E3
E3
E3
03
03
03
ENDCHAR
STARTCHAR 1F23
ENCODING 7971
SWIDTH 514 0
DWIDTH 10 0
BBX 8 18 1 -3
BITMAP
36
66
66
32
00
00
CE
DF
F3
E3
E3
E3
E3
E3
E3
03
03
03
ENDCHAR
STARTCHAR 1F24
ENCODING 7972
SWIDTH 514 0
DWIDTH 10 0
BBX 8 18 1 -3
BITMAP
66
16
16
24
00
00
CE
DF
F3
E3
E3
E3
E3
E3
E3
03
03
03
ENDCHAR
STARTCHAR 1F25
ENCODING 7973
SWIDTH 514 0
DWIDTH 10 0
BBX 8 18 1 -3
BITMAP
36
26
66
34
00
00
CE
DF
F3
E3
E3
E3
E3
E3
E3
03
03
03
ENDCHAR
STARTCHAR 1F26
ENCODING 7974
SWIDTH 514 0
DWIDTH 10 0
BBX 8 20 1 -3
BITMAP
12
2F
00
1C
04
08
00
00
CE
DF
F3
E3
E3
E3
E3
E3
E3
03
03
03
ENDCHAR
STARTCHAR 1F27
ENCODING 7975
SWIDTH 514 0
DWIDTH 10 0
BBX 8 20 1 -3
BITMAP
12
2F
00
0C
18
08
00
00
CE
DF
F3
E3
E3
E3
E3
E3
E3
03
03
03
ENDCHAR
STARTCHAR 1F28
ENCODING 7976
SWIDTH 771 0
DWIDTH 15 0
BBX 14 12 0 0
BITMAP
CC1C
EC1C
6C1C
6C1C
CC1C
0FFC
0FFC
0C1C
0C1C
0C1C
0C1C
0C1C
ENDCHAR
STARTCHAR 1F29
ENCODING 7977
SWIDTH 771 0
DWIDTH 15 0
BBX 14 12 0 0
BITMAP
6C1C
EC1C
CC1C
CC1C
4C1C
0FFC
0FFC
0C1C
0C1C
0C1C
0C1C
0C1C
ENDCHAR
STARTCHAR 1F2A
ENCODING 7978
SWIDTH 925 0
DWIDTH 18 0
BBX 16 12 0 0
BITMAP
D983
C983
6983
4D83
C183
01FF
01FF
0183
0183
0183
0183
0183
ENDCHAR
STARTCHAR 1F2B
ENCODING 7979
SWIDTH 925 0
DWIDTH 18 0
BBX 16 12 0 0
BITMAP
5983
D983
A983
8D83
4183
01FF
01FF
0183
0183
0183
0183
0183
ENDCHAR
STARTCHAR 1F2C
ENCODING 7980
SWIDTH 925 0
DWIDTH 18 0
BBX 16 12 0 0
BITMAP
CD83
C983
7983
5983
C183
01FF
01FF
0183
0183
0183
0183
0183
ENDCHAR
STARTCHAR 1F2D
ENCODING 7981
SWIDTH 925 0
DWIDTH 18 0
BBX 16 12 0 0
BITMAP
4D83
D983
B983
9983
4183
01FF
01FF
0183
0183
0183
0183
0183
ENDCHAR
STARTCHAR 1F2E
ENCODING 7982
SWIDTH 822 0
DWIDTH 16 0
BBX 15 12 0 0
BITMAP
F706
F706
2706
4706
0706
07FE
07FE
0706
0706
0706
0706
0706
ENDCHAR
STARTCHAR 1F2F
ENCODING 7983
SWIDTH 822 0
DWIDTH 16 0
BBX 15 12 0 0
BITMAP
F706
F706
4706
2706
0706
07FE
07FE
0706
0706
0706
0706
0706
ENDCHAR
STARTCHAR 1F30
ENCODING 7984
SWIDTH 257 0
DWIDTH 5 0
BBX 4 15 1 0
BITMAP
C0
60
60
40
00
00
E0
E0
E0
E0
C0
C0
C0
70
70
ENDCHAR
STARTCHAR 1F31
ENCODING 7985
SWIDTH 257 0
DWIDTH 5 0
BBX 4 15 1 0
BITMAP
E0
C0
C0
40
00
00
E0
E0
E0
E0
C0
C0
C0
70
70
ENDCHAR
STARTCHAR 1F32
ENCODING 7986
SWIDTH 257 0
DWIDTH 5 0
BBX 6 15 -1 0
BITMAP
D8
6C
6C
44
00
00
38
38
38
38
30
30
30
1C
1C
ENDCHAR
STARTCHAR 1F33
ENCODING 7987
SWIDTH 257 0
DWIDTH 5 0
BBX 6 15 -1 0
BITMAP
78
CC
CC
44
00
00
38
38
38
38
30
30
30
1C
1C
ENDCHAR
STARTCHAR 1F34
ENCODING 7988
SWIDTH 257 0
DWIDTH 5 0
BBX 6 15 -1 0
BITMAP
CC
6C
68
48
00
00
38
38
38
38
30
30
30
1C
1C
ENDCHAR
STARTCHAR 1F35
ENCODING 7989
SWIDTH 257 0
DWIDTH 5 0
BBX 6 15 -1 0
BITMAP
6C
CC
C8
68
00
00
38
38
38
38
30
30
30
1C
1C
ENDCHAR
STARTCHAR 1F36
ENCODING 7990
SWIDTH 257 0
DWIDTH 5 0
BBX 5 17 0 0
BITMAP
50
B8
00
60
30
20
00
00
70
70
70
70
60
60
60
38
38
ENDCHAR
STARTCHAR 1F37
ENCODING 7991
SWIDTH 257 0
DWIDTH 5 0
BBX 5 17 0 0
BITMAP
50
B8
00
30
60
20
00
00
70
70
70
70
60
60
60
38
38
ENDCHAR
STARTCHAR 1F38
ENCODING 7992
SWIDTH 411 0
DWIDTH 8 0
BBX 6 12 0 0
BITMAP
CC
EC
6C
6C
CC
0C
0C
0C
0C
0C
0C
0C
ENDCHAR
STARTCHAR 1F39
ENCODING 7993
SWIDTH 411 0
DWIDTH 8 0
BBX 6 12 0 0
BITMAP
6C
EC
CC
CC
4C
0C
0C
0C
0C
0C
0C
0C
ENDCHAR
STARTCHAR 1F3A
ENCODING 7994
SWIDTH 565 0
DWIDTH 11 0
BBX 9 12 0 0
BITMAP
D980
C980
6980
4D80
C180
0180
0180
0180
0180
0180
0180
0180
ENDCHAR
STARTCHAR 1F3B
ENCODING 7995
SWIDTH 565 0
DWIDTH 11 0
BBX 9 12 0 0
BITMAP
5980
D980
A980
8D80
4180
0180
0180
0180
0180
0180
0180
0180
ENDCHAR
STARTCHAR 1F3C
ENCODING 7996
SWIDTH 565 0
DWIDTH 11 0
BBX 9 12 0 0
BITMAP
CD80
C980
7980
5980
C180
0180
0180
0180
0180
0180
0180
0180
ENDCHAR
STARTCHAR 1F3D
ENCODING 7997
SWIDTH 565 0
DWIDTH 11 0
BBX 9 12 0 0
BITMAP
4D80
D980
B980
9980
4180
0180
0180
0180
0180
0180
0180
0180
ENDCHAR
STARTCHAR 1F3E
ENCODING 7998
SWIDTH 462 0
DWIDTH 9 0
BBX 8 12 0 0
BITMAP
F7
F7
27
47
07
07
07
07
07
07
07
07
ENDCHAR
STARTCHAR 1F3F
ENCODING 7999
SWIDTH 462 0
DWIDTH 9 0
BBX 8 12 0 0
BITMAP
F7
F7
47
27
07
07
07
07
07
07
07
07
ENDCHAR
STARTCHAR 1F40
ENCODING 8000
SWIDTH 514 0
DWIDTH 10 0
BBX 9 15 1 0
BITMAP
1800
0C00
0C00
1800
0000
0000
3C00
7F00
E300
C300
C380
C300
E300
7F00
3C00
ENDCHAR
STARTCHAR 1F41
ENCODING 8001
SWIDTH 514 0
DWIDTH 10 0
BBX 9 15 1 0
BITMAP
1C00
1000
1800
0800
0000
0000
3C00
7F00
E300
C300
C380
C300
E300
7F00
3C00
ENDCHAR
STARTCHAR 1F42
ENCODING 8002
SWIDTH 514 0
DWIDTH 10 0
BBX 9 15 1 0
BITMAP
6C00
3400
3600
6600
0000
0000
3C00
7F00
E300
C300
C380
C300
E300
7F00
3C00
ENDCHAR
STARTCHAR 1F43
ENCODING 8003
SWIDTH 514 0
DWIDTH 10 0
BBX 9 15 1 0
BITMAP
3C00
4400
4400
2600
0000
0000
3C00
7F00
E300
C300
C380
C300
E300
7F00
3C00
ENDCHAR
STARTCHAR 1F44
ENCODING 8004
SWIDTH 514 0
DWIDTH 10 0
BBX 9 15 1 0
BITMAP
6600
3600
3400
6C00
0000
0000
3C00
7F00
E300
C300
C380
C300
E300
7F00
3C00
ENDCHAR
STARTCHAR 1F45
ENCODING 8005
SWIDTH 514 0
DWIDTH 10 0
BBX 9 15 1 0
BITMAP
3600
6400
6400
2C00
0000
0000
3C00
7F00
E300
C300
C380
C300
E300
7F00
3C00
ENDCHAR
STARTCHAR 1F48
ENCODING 8008
SWIDTH 771 0
DWIDTH 15 0
BBX 14 12 0 0
BITMAP
C3E0
E7F8
6E38
6C1C
DC0C
180C
180C
1C0C
0C1C
0E38
07F8
03E0
ENDCHAR
STARTCHAR 1F49
ENCODING 8009
SWIDTH 771 0
DWIDTH 15 0
BBX 14 12 0 0
BITMAP
63E0
EFF0
CE38
DC18
581C
180C
180C
181C
1C18
0E38
07F0
03E0
ENDCHAR
STARTCHAR 1F4A
ENCODING 8010
SWIDTH 925 0
DWIDTH 18 0
BBX 17 12 0 0
BITMAP
D87C00
C8FE00
69C700
4F8380
C30180
030180
030180
038180
038380
01C700
00FE00
007C00
ENDCHAR
STARTCHAR 1F4B
ENCODING 8011
SWIDTH 925 0
DWIDTH 18 0
BBX 17 12 0 0
BITMAP
587C00
D8FE00
A9C700
8F8380
430180
030180
030180
030180
038380
01C700
00FE00
007C00
ENDCHAR
STARTCHAR 1F4C
ENCODING 8012
SWIDTH 925 0
DWIDTH 18 0
BBX 17 12 0 0
BITMAP
CC7C00
C9FE00
798700
5B8300
C30380
030380
030380
030380
038300
01C700
01FE00
007C00
ENDCHAR
STARTCHAR 1F4D
ENCODING 8013
SWIDTH 925 0
DWIDTH 18 0
BBX 17 12 0 0
BITMAP
4C7C00
D9FE00
B98700
9B8300
430380
030380
030380
030380
038300
018700
01FE00
007C00
ENDCHAR
STARTCHAR 1F50
ENCODING 8016
SWIDTH 514 0
DWIDTH 10 0
BBX 8 15 1 0
BITMAP
38
08
0C
18
00
00
C6
C3
C3
C3
C3
C3
E7
7E
3C
ENDCHAR
STARTCHAR 1F51
ENCODING 8017
SWIDTH 514 0
DWIDTH 10 0
BBX 8 15 1 0
BITMAP
18
30
30
08
00
00
C6
C3
C3
C3
C3
C3
E7
7E
3C
ENDCHAR
STARTCHAR 1F52
ENCODING 8018
SWIDTH 514 0
DWIDTH 10 0
BBX 8 15 1 0
BITMAP
6C
AC
24
64
00
00
C6
C3
C3
C3
C3
C3
E7
7E
3C
ENDCHAR
STARTCHAR 1F53
ENCODING 8019
SWIDTH 514 0
DWIDTH 10 0
BBX 8 15 1 0
BITMAP
6C
CC
CC
64
00
00
C6
C3
C3
C3
C3
C3
E7
7E
3C
ENDCHAR
STARTCHAR 1F54
ENCODING 8020
SWIDTH 514 0
DWIDTH 10 0
BBX 8 15 1 0
BITMAP
66
AC
2C
68
00
00
C6
C3
C3
C3
C3
C3
E7
7E
3C
ENDCHAR
STARTCHAR 1F55
ENCODING 8021
SWIDTH 514 0
DWIDTH 10 0
BBX 8 15 1 0
BITMAP
64
4C
4C
68
00
00
C6
C3
C3
C3
C3
C3
E7
7E
3C
ENDCHAR
STARTCHAR 1F56
ENCODING 8022
SWIDTH 514 0
DWIDTH 10 0
BBX 8 17 1 0
BITMAP
24
7E
00
18
28
18
00
00
C6
C3
C3
C3
C3
C3
E7
7E
3C
ENDCHAR
STARTCHAR 1F57
ENCODING 8023
SWIDTH 514 0
DWIDTH 10 0
BBX 8 17 1 0
BITMAP
24
7E
00
18
30
18
00
00
C6
C3
C3
C3
C3
C3
E7
7E
3C
ENDCHAR
STARTCHAR 1F59
ENCODING 8025
SWIDTH 668 0
DWIDTH 13 0
BBX 13 12 0 0
BITMAP
7C18
EE30
C630
C660
4360
03C0
01C0
0180
0180
0180
0180
0180
ENDCHAR
STARTCHAR 1F5B
ENCODING 8027
SWIDTH 822 0
DWIDTH 16 0
BBX 16 12 0 0
BITMAP
5B83
D986
A8C6
8CCC
406C
0078
0038
0030
0030
0030
0030
0030
ENDCHAR
STARTCHAR 1F5D
ENCODING 8029
SWIDTH 822 0
DWIDTH 16 0
BBX 16 12 0 0
BITMAP
4F87
D986
B9C6
98CC
40EC
0078
0078
0030
0030
0030
0030
0030
ENDCHAR
STARTCHAR 1F5F
ENCODING 8031
SWIDTH 720 0
DWIDTH 14 0
BBX 14 12 0 0
BITMAP
F60C
F31C
4318
2198
01B0
01F0
00E0
00E0
00E0
00E0
00E0
00E0
ENDCHAR
STARTCHAR 1F60
ENCODING 8032
SWIDTH 720 0
DWIDTH 14 0
BBX 12 15 1 0
BITMAP
0E00
0200
0300
0600
0000
0000
6060
60E0
C670
C630
C630
C630
CE70
7FE0
39C0
ENDCHAR
STARTCHAR 1F61
ENCODING 8033
SWIDTH 720 0
DWIDTH 14 0
BBX 12 15 1 0
BITMAP
0600
0C00
0C00
0200
0000
0000
6060
60E0
C670
C630
C630
C630
CE70
7FE0
39C0
ENDCHAR
STARTCHAR 1F62
ENCODING 8034
SWIDTH 720 0
DWIDTH 14 0
BBX 12 15 1 0
BITMAP
1B00
0B00
0900
1900
0000
0000
6060
60E0
C670
C630
C630
C630
CE70
7FE0
39C0
ENDCHAR
STARTCHAR 1F63
ENCODING 8035
SWIDTH 720 0
DWIDTH 14 0
BBX 12 15 1 0
BITMAP
1B00
1300
3100
1900
0000
0000
6060
60E0
C670
C630
C630
C630
CE70
7FE0
39C0
ENDCHAR
STARTCHAR 1F64
ENCODING 8036
SWIDTH 720 0
DWIDTH 14 0
BBX 12 15 1 0
BITMAP
1980
0B00
0B00
1A00
0000
0000
6060
60E0
C670
C630
C630
C630
CE70
7FE0
39C0
ENDCHAR
STARTCHAR 1F65
ENCODING 8037
SWIDTH 720 0
DWIDTH 14 0
BBX 12 15 1 0
BITMAP
1980
1700
1300
1A00
0000
0000
6060
60E0
C670
C630
C630
C630
CE70
7FE0
39C0
ENDCHAR
STARTCHAR 1F66
ENCODING 8038
SWIDTH 720 0
DWIDTH 14 0
BBX 12 17 1 0
BITMAP
0900
1F80
0000
0600
0200
0600
0000
0000
6060
60E0
C670
C630
C630
C630
CE70
7FE0
39C0
ENDCHAR
STARTCHAR 1F67
ENCODING 8039
SWIDTH 720 0
DWIDTH 14 0
BBX 12 17 1 0
BITMAP
0900
1F80
0000
0600
0C00
0600
0000
0000
6060
60E0
C670
C630
C630
C630
CE70
7FE0
39C0
ENDCHAR
STARTCHAR 1F68
ENCODING 8040
SWIDTH 771 0
DWIDTH 15 0
BBX 15 12 0 0
BITMAP
C3E0
E7F8
6E1C
6C0C
DC0C
1C0C
1C0C
0C0C
0C1C
0638
1F3E
1F3E
ENDCHAR
STARTCHAR 1F69
ENCODING 8041
SWIDTH 771 0
DWIDTH 15 0
BBX 14 12 0 0
BITMAP
63E0
E7F8
CE38
DC1C
580C
180C
180C
1C0C
0C18
0630
1F3C
1F3C
ENDCHAR
STARTCHAR 1F6A
ENCODING 8042
SWIDTH 925 0
DWIDTH 18 0
BBX 17 12 0 0
BITMAP
D87C00
C8FF00
69C700
4F8380
C38180
030180
030180
018180
018300
00C700
03E780
03E780
ENDCHAR
STARTCHAR 1F6B
ENCODING 8043
SWIDTH 925 0
DWIDTH 18 0
BBX 17 12 0 0
BITMAP
587C00
D8FF00
A9C700
8F8380
438180
030180
030180
018180
018300
00C700
03E780
03E780
ENDCHAR
STARTCHAR 1F6C
ENCODING 8044
SWIDTH 925 0
DWIDTH 18 0
BBX 17 12 0 0
BITMAP
CC7C00
C8FE00
79C700
5B8380
C30180
030180
030180
038380
018300
00C600
03E780
03E780
ENDCHAR
STARTCHAR 1F6D
ENCODING 8045
SWIDTH 925 0
DWIDTH 18 0
BBX 17 12 0 0
BITMAP
4C7C00
D8FE00
B9C700
9B8380
430180
030180
030180
038380
018300
00C600
03EF80
03EF80
ENDCHAR
STARTCHAR 1F6E
ENCODING 8046
SWIDTH 822 0
DWIDTH 16 0
BBX 15 12 0 0
BITMAP
F1F0
F3F8
271C
4E0E
0C06
0C06
0C06
0E0E
060C
0318
0F9E
0F9E
ENDCHAR
STARTCHAR 1F6F
ENCODING 8047
SWIDTH 822 0
DWIDTH 16 0
BBX 15 12 0 0
BITMAP
F1F0
F3F8
471C
2E0E
0C06
0C06
0C06
0E0E
060C
0318
0F9E
0F9E
ENDCHAR
STARTCHAR 1F70
ENCODING 8048
SWIDTH 565 0
DWIDTH 11 0
BBX 10 15 1 0
BITMAP
2000
7000
1800
0C00
0000
0000
3D80
7D80
E780
C300
C300
C300
E700
7FC0
39C0
ENDCHAR
STARTCHAR 1F71
ENCODING 8049
SWIDTH 565 0
DWIDTH 11 0
BBX 10 15 1 0
BITMAP
0200
0700
0C00
1800
0000
0000
3D80
7D80
E780
C300
C300
C300
E700
7FC0
39C0
ENDCHAR
STARTCHAR 1F72
ENCODING 8050
SWIDTH 462 0
DWIDTH 9 0
BBX 7 15 1 0
BITMAP
20
70
30
18
00
00
7C
FE
C4
78
F8
C0
C2
FE
7C
ENDCHAR
STARTCHAR 1F73
ENCODING 8051
SWIDTH 462 0
DWIDTH 9 0
BBX 7 15 1 0
BITMAP
04
0E
1C
10
00
00
7C
FE
C4
78
F8
C0
C2
FE
7C
ENDCHAR
STARTCHAR 1F74
ENCODING 8052
SWIDTH 514 0
DWIDTH 10 0
BBX 8 18 1 -3
BITMAP
20
70
18
0C
00
00
CE
DF
F3
E3
E3
E3
E3
E3
E3
03
03
03
ENDCHAR
STARTCHAR 1F75
ENCODING 8053
SWIDTH 514 0
DWIDTH 10 0
BBX 8 18 1 -3
BITMAP
02
07
0C
08
00
00
CE
DF
F3
E3
E3
E3
E3
E3
E3
03
03
03
ENDCHAR
STARTCHAR 1F76
ENCODING 8054
SWIDTH 257 0
DWIDTH 5 0
BBX 6 15 -1 0
BITMAP
40
E0
30
18
00
00
38
38
38
38
30
30
30
1C
1C
ENDCHAR
STARTCHAR 1F77
ENCODING 8055
SWIDTH 257 0
DWIDTH 5 0
BBX 5 15 1 0
BITMAP
10
38
60
C0
00
00
E0
E0
E0
E0
C0
C0
C0
70
70
ENDCHAR
STARTCHAR 1F78
ENCODING 8056
SWIDTH 514 0
DWIDTH 10 0
BBX 9 15 1 0
BITMAP
2000
7000
3800
0800
0000
0000
3C00
7F00
E300
C300
C380
C300
E300
7F00
3C00
ENDCHAR
STARTCHAR 1F79
ENCODING 8057
SWIDTH 514 0
DWIDTH 10 0
BBX 9 15 1 0
BITMAP
0400
0E00
0C00
1800
0000
0000
3C00
7F00
E300
C300
C380
C300
E300
7F00
3C00
ENDCHAR
STARTCHAR 1F7A
ENCODING 8058
SWIDTH 514 0
DWIDTH 10 0
BBX 8 15 1 0
BITMAP
20
70
30
18
00
00
C6
C3
C3
C3
C3
C3
E7
7E
3C
ENDCHAR
STARTCHAR 1F7B
ENCODING 8059
SWIDTH 514 0
DWIDTH 10 0
BBX 8 15 1 0
BITMAP
04
0E
1C
10
00
00
C6
C3
C3
C3
C3
C3
E7
7E
3C
ENDCHAR
STARTCHAR 1F7C
ENCODING 8060
SWIDTH 720 0
DWIDTH 14 0
BBX 12 15 1 0
BITMAP
0800
1C00
0E00
0400
0000
0000
6060
60E0
C670
C630
C630
C630
CE70
7FE0
39C0
ENDCHAR
STARTCHAR 1F7D
ENCODING 8061
SWIDTH 720 0
DWIDTH 14 0
BBX 12 15 1 0
BITMAP
0100
0380
0700
0400
0000
0000
6060
60E0
C670
C630
C630
C630
CE70
7FE0
39C0
ENDCHAR
STARTCHAR 1F80
ENCODING 8064
SWIDTH 565 0
DWIDTH 11 0
BBX 10 19 1 -4
BITMAP
1800
0C00
0C00
0800
0000
0000
3D80
7D80
E780
C300
C300
C300
E700
7FC0
39C0
0000
0000
0800
0E00
ENDCHAR
STARTCHAR 1F81
ENCODING 8065
SWIDTH 565 0
DWIDTH 11 0
BBX 10 19 1 -4
BITMAP
1C00
1800
1800
0800
0000
0000
3D80
7D80
E780
C300
C300
C300
E700
7FC0
39C0
0000
0000
0800
0E00
ENDCHAR
STARTCHAR 1F82
ENCODING 8066
SWIDTH 565 0
DWIDTH 11 0
BBX 10 19 1 -4
BITMAP
6C00
3600
3600
2200
0000
0000
3D80
7D80
E780
C300
C300
C300
E700
7FC0
39C0
0000
0000
0800
0E00
ENDCHAR
STARTCHAR 1F83
ENCODING 8067
SWIDTH 565 0
DWIDTH 11 0
BBX 10 19 1 -4
BITMAP
3C00
6600
6600
2200
0000
0000
3D80
7D80
E780
C300
C300
C300
E700
7FC0
39C0
0000
0000
0800
0E00
ENDCHAR
STARTCHAR 1F84
ENCODING 8068
SWIDTH 565 0
DWIDTH 11 0
BBX 10 19 1 -4
BITMAP
6600
3600
3400
2400
0000
0000
3D80
7D80
E780
C300
C300
C300
E700
7FC0
39C0
0000
0000
0800
0E00
ENDCHAR
STARTCHAR 1F85
ENCODING 8069
SWIDTH 565 0
DWIDTH 11 0
BBX 10 19 1 -4
BITMAP
3600
6600
6400
3400
0000
0000
3D80
7D80
E780
C300
C300
C300
E700
7FC0
39C0
0000
0000
0800
0E00
ENDCHAR
STARTCHAR 1F86
ENCODING 8070
SWIDTH 565 0
DWIDTH 11 0
BBX 10 21 1 -4
BITMAP
1400
2E00
0000
1800
0C00
0800
0000
0000
3D80
7D80
E780
C300
C300
C300
E700
7FC0
39C0
0000
0000
0800
0E00
ENDCHAR
STARTCHAR 1F87
ENCODING 8071
SWIDTH 565 0
DWIDTH 11 0
BBX 10 21 1 -4
BITMAP
1400
2E00
0000
0C00
1800
0800
0000
0000
3D80
7D80
E780
C300
C300
C300
E700
7FC0
39C0
0000
0000
0800
0E00
ENDCHAR
STARTCHAR 1F88
ENCODING 8072
SWIDTH 874 0
DWIDTH 17 0
BBX 17 12 0 0
BITMAP
C70000
E70000
6D8000
6D8000
CD8600
18C600
18C600
1FC600
3FE600
306600
306780
707380
ENDCHAR
STARTCHAR 1F89
ENCODING 8073
SWIDTH 874 0
DWIDTH 17 0
BBX 17 12 0 0
BITMAP
670000
EF0000
CF0000
CD8000
598600
198600
18C600
3FC600
3FC600
30E600
706700
607380
ENDCHAR
STARTCHAR 1F8A
ENCODING 8074
SWIDTH 1028 0
DWIDTH 20 0
BBX 20 12 0 0
BITMAP
D8E000
C9E000
69A000
4DB000
C330C0
0330C0
0318C0
07F8C0
07F8C0
060CC0
0E0CE0
0C0E70
ENDCHAR
STARTCHAR 1F8B
ENCODING 8075
SWIDTH 1028 0
DWIDTH 20 0
BBX 20 12 0 0
BITMAP
58E000
D9E000
A9E000
8DB000
4330C0
0330C0
0318C0
07F8C0
07F8C0
061CC0
0E0CE0
0C0E70
ENDCHAR
STARTCHAR 1F8C
ENCODING 8076
SWIDTH 1028 0
DWIDTH 20 0
BBX 19 12 0 0
BITMAP
CCE000
C9E000
79E000
59B000
C330C0
0330C0
0318C0
07F8C0
07F8C0
061CC0
0E0CE0
0C0EE0
ENDCHAR
STARTCHAR 1F8D
ENCODING 8077
SWIDTH 1028 0
DWIDTH 20 0
BBX 19 12 0 0
BITMAP
4CE000
D9E000
B9E000
99B000
4330C0
0330C0
0318C0
07F8C0
07F8C0
061CC0
0E0CE0
0C0CE0
ENDCHAR
STARTCHAR 1F8E
ENCODING 8078
SWIDTH 925 0
DWIDTH 18 0
BBX 17 12 0 0
BITMAP
F30000
F78000
278000
458000
0CC300
0CC300
1CC300
1FE300
1FE300
386300
303380
303380
ENDCHAR
STARTCHAR 1F8F
ENCODING 8079
SWIDTH 925 0
DWIDTH 18 0
BBX 17 12 0 0
BITMAP
F30000
F78000
478000
258000
0CC300
0CC300
1CC300
1FE300
1FE300
386300
303380
303380
ENDCHAR
STARTCHAR 1F90
ENCODING 8080
SWIDTH 514 0
DWIDTH 10 0
BBX 8 19 1 -4
BITMAP
1C
04
04
0C
00
00
CE
DF
F3
E3
E3
E3
E3
E3
E3
03
03
43
60
ENDCHAR
STARTCHAR 1F91
ENCODING 8081
SWIDTH 514 0
DWIDTH 10 0
BBX 8 19 1 -4
BITMAP
0C
18
18
0C
00
00
CE
DF
F3
E3
E3
E3
E3
E3
E3
03
03
43
60
ENDCHAR
STARTCHAR 1F92
ENCODING 8082
SWIDTH 514 0
DWIDTH 10 0
BBX 8 19 1 -4
BITMAP
66
16
16
22
00
00
CE
DF
F3
E3
E3
E3
E3
E3
E3
03
03
43
60
ENDCHAR
STARTCHAR 1F93
ENCODING 8083
SWIDTH 514 0
DWIDTH 10 0
BBX 8 19 1 -4
BITMAP
36
66
66
32
00
00
CE
DF
F3
E3
E3
E3
E3
E3
E3
03
03
43
60
ENDCHAR
STARTCHAR 1F94
ENCODING 8084
SWIDTH 514 0
DWIDTH 10 0
BBX 8 19 1 -4
BITMAP
66
16
16
24
00
00
CE
DF
F3
E3
E3
E3
E3
E3
E3
03
03
43
60
ENDCHAR
STARTCHAR 1F95
ENCODING 8085
SWIDTH 514 0
DWIDTH 10 0
BBX 8 19 1 -4
BITMAP
36
26
66
34
00
00
CE
DF
F3
E3
E3
E3
E3
E3
E3
03
03
43
60
ENDCHAR
STARTCHAR 1F96
ENCODING 8086
SWIDTH 514 0
DWIDTH 10 0
BBX 8 21 1 -4
BITMAP
12
2F
00
1C
04
08
00
00
CE
DF
F3
E3
E3
E3
E3
E3
E3
03
03
43
60
ENDCHAR
STARTCHAR 1F97
ENCODING 8087
SWIDTH 514 0
DWIDTH 10 0
BBX 8 21 1 -4
BITMAP
12
2F
00
0C
18
08
00
00
CE
DF
F3
E3
E3
E3
E3
E3
E3
03
03
43
60
ENDCHAR
STARTCHAR 1F98
ENCODING 8088
SWIDTH 1080 0
DWIDTH 21 0
BBX 20 12 0 0
BITMAP
CC1C00
EC1C00
6C1C00
6C1C00
CC1C60
0FFC60
0FFC60
0C1C60
0C1C60
0C1C60
0C1C70
0C1C70
ENDCHAR
STARTCHAR 1F99
ENCODING 8089
SWIDTH 1080 0
DWIDTH 21 0
BBX 20 12 0 0
BITMAP
6C1C00
EC1C00
CC1C00
CC1C00
4C1C60
0FFC60
0FFC60
0C1C60
0C1C60
0C1C60
0C1C70
0C1C70
ENDCHAR
STARTCHAR 1F9A
ENCODING 8090
SWIDTH 1182 0
DWIDTH 23 0
BBX 23 12 0 0
BITMAP
D98300
C98300
698300
4D8300
C1831C
01FF18
01FF18
018318
018318
018318
01831E
01830E
ENDCHAR
STARTCHAR 1F9B
ENCODING 8091
SWIDTH 1182 0
DWIDTH 23 0
BBX 23 12 0 0
BITMAP
598300
D98300
A98300
8D8300
418318
01FF18
01FF18
018318
018318
018318
01831E
01830E
ENDCHAR
STARTCHAR 1F9C
ENCODING 8092
SWIDTH 1182 0
DWIDTH 23 0
BBX 23 12 0 0
BITMAP
CD8300
C98300
798300
598300
C18318
01FF18
01FF18
018318
018318
018318
01831E
01830E
ENDCHAR
STARTCHAR 1F9D
ENCODING 8093
SWIDTH 1182 0
DWIDTH 23 0
BBX 23 12 0 0
BITMAP
4D8300
D98300
B98300
998300
418318
01FF18
01FF18
018318
018318
018318
01831E
01830E
ENDCHAR
STARTCHAR 1F9E
ENCODING 8094
SWIDTH 1131 0
DWIDTH 22 0
BBX 22 12 0 0
BITMAP
F70600
F70600
270600
470600
070630
07FE30
07FE30
070630
070630
070630
070638
07061C
ENDCHAR
STARTCHAR 1F9F
ENCODING 8095
SWIDTH 1131 0
DWIDTH 22 0
BBX 22 12 0 0
BITMAP
F70600
F70600
470600
270600
070630
07FE30
07FE30
070630
070630
070630
070638
07061C
ENDCHAR
STARTCHAR 1FA0
ENCODING 8096
SWIDTH 720 0
DWIDTH 14 0
BBX 12 19 1 -4
BITMAP
0E00
0200
0300
0600
0000
0000
6060
60E0
C670
C630
C630
C630
CE70
7FE0
39C0
0000
0000
0600
0700
ENDCHAR
STARTCHAR 1FA1
ENCODING 8097
SWIDTH 720 0
DWIDTH 14 0
BBX 12 19 1 -4
BITMAP
0600
0C00
0C00
0200
0000
0000
6060
60E0
C670
C630
C630
C630
CE70
7FE0
39C0
0000
0000
0600
0700
ENDCHAR
STARTCHAR 1FA2
ENCODING 8098
SWIDTH 720 0
DWIDTH 14 0
BBX 12 19 1 -4
BITMAP
1B00
0B00
0900
1900
0000
0000
6060
60E0
C670
C630
C630
C630
CE70
7FE0
39C0
0000
0000
0600
0700
ENDCHAR
STARTCHAR 1FA3
ENCODING 8099
SWIDTH 720 0
DWIDTH 14 0
BBX 12 19 1 -4
BITMAP
1B00
1300
3100
1900
0000
0000
6060
60E0
C670
C630
C630
C630
CE70
7FE0
39C0
0000
0000
0600
0700
ENDCHAR
STARTCHAR 1FA4
ENCODING 8100
SWIDTH 720 0
DWIDTH 14 0
BBX 12 19 1 -4
BITMAP
1980
0B00
0B00
1A00
0000
0000
6060
60E0
C670
C630
C630
C630
CE70
7FE0
39C0
0000
0000
0600
0700
ENDCHAR
STARTCHAR 1FA5
ENCODING 8101
SWIDTH 720 0
DWIDTH 14 0
BBX 12 19 1 -4
BITMAP
1980
1700
1300
1A00
0000
0000
6060
60E0
C670
C630
C630
C630
CE70
7FE0
39C0
0000
0000
0600
0700
ENDCHAR
STARTCHAR 1FA6
ENCODING 8102
SWIDTH 720 0
DWIDTH 14 0
BBX 12 21 1 -4
BITMAP
0900
1F80
0000
0600
0200
0600
0000
0000
6060
60E0
C670
C630
C630
C630
CE70
7FE0
39C0
0000
0000
0600
0700
ENDCHAR
STARTCHAR 1FA7
ENCODING 8103
SWIDTH 720 0
DWIDTH 14 0
BBX 12 21 1 -4
BITMAP
0900
1F80
0000
0600
0C00
0600
0000
0000
6060
60E0
C670
C630
C630
C630
CE70
7FE0
39C0
0000
0000
0600
0700
ENDCHAR
STARTCHAR 1FA8
ENCODING 8104
SWIDTH 1080 0
DWIDTH 21 0
BBX 20 12 0 0
BITMAP
C3E000
E7F800
6E1C00
6C0C00
DC0C60
1C0C60
1C0C60
0C0C60
0C1C60
063860
1F3E70
1F3E70
ENDCHAR
STARTCHAR 1FA9
ENCODING 8105
SWIDTH 1028 0
DWIDTH 20 0
BBX 20 12 0 0
BITMAP
63E000
E7F800
CE3800
DC1C00
580CE0
180CE0
180CE0
1C0CE0
0C18E0
063060
1F3C70
1F3C70
ENDCHAR
STARTCHAR 1FAA
ENCODING 8106
SWIDTH 1234 0
DWIDTH 24 0
BBX 23 12 0 0
BITMAP
D87C00
C8FF00
69C700
4F8380
C3818C
03018C
03018C
01818C
01830C
00C70C
03E78E
03E78E
ENDCHAR
STARTCHAR 1FAB
ENCODING 8107
SWIDTH 1182 0
DWIDTH 23 0
BBX 23 12 0 0
BITMAP
587C00
D8FF00
A9C700
8F8380
43818C
03018C
03018C
01818C
01830C
00C70C
03E78E
03E78E
ENDCHAR
STARTCHAR 1FAC
ENCODING 8108
SWIDTH 1182 0
DWIDTH 23 0
BBX 23 12 0 0
BITMAP
CC7C00
C8FE00
79C700
5B8380
C3019C
03019C
03019C
03839C
01831C
00C61C
03E78E
03E78E
ENDCHAR
STARTCHAR 1FAD
ENCODING 8109
SWIDTH 1182 0
DWIDTH 23 0
BBX 23 12 0 0
BITMAP
4C7C00
D8FE00
B9C700
9B8380
43019C
03019C
03019C
038398
018318
00C618
03EF8E
03EF8E
ENDCHAR
STARTCHAR 1FAE
ENCODING 8110
SWIDTH 1080 0
DWIDTH 21 0
BBX 21 12 0 0
BITMAP
F1F000
F3F800
271C00
4E0E00
0C0670
0C0670
0C0670
0E0E70
060C70
031870
0F9E38
0F9E38
ENDCHAR
STARTCHAR 1FAF
ENCODING 8111
SWIDTH 1080 0
DWIDTH 21 0
BBX 21 12 0 0
BITMAP
F1F000
F3F800
471C00
2E0E00
0C0670
0C0670
0C0670
0E0E70
060C70
031870
0F9E38
0F9E38
ENDCHAR
STARTCHAR 1FB0
ENCODING 8112
SWIDTH 565 0
DWIDTH 11 0
BBX 10 14 1 0
BITMAP
6300
2200
1C00
0000
0000
3D80
7D80
E780
C300
C300
C300
E700
7FC0
39C0
ENDCHAR
STARTCHAR 1FB1
ENCODING 8113
SWIDTH 565 0
DWIDTH 11 0
BBX 10 12 1 0
BITMAP
3E00
0000
0000
3D80
7D80
E780
C300
C300
C300
E700
7FC0
39C0
ENDCHAR
STARTCHAR 1FB2
ENCODING 8114
SWIDTH 565 0
DWIDTH 11 0
BBX 10 19 1 -4
BITMAP
2000
7000
1800
0C00
0000
0000
3D80
7D80
E780
C300
C300
C300
E700
7FC0
39C0
0000
0000
0800
0E00
ENDCHAR
STARTCHAR 1FB3
ENCODING 8115
SWIDTH 565 0
DWIDTH 11 0
BBX 10 13 1 -4
BITMAP
3D80
7D80
E780
C300
C300
C300
E700
7FC0
39C0
0000
0000
0800
0E00
ENDCHAR
STARTCHAR 1FB4
ENCODING 8116
SWIDTH 565 0
DWIDTH 11 0
BBX 10 19 1 -4
BITMAP
0200
0700
0C00
1800
0000
0000
3D80
7D80
E780
C300
C300
C300
E700
7FC0
39C0
0000
0000
0800
0E00
ENDCHAR
STARTCHAR 1FB6
ENCODING 8118
SWIDTH 565 0
DWIDTH 11 0
BBX 10 15 1 0
BITMAP
3100
7B00
6F00
4600
0000
0000
3D80
7D80
E780
C300
C300
C300
E700
7FC0
39C0
ENDCHAR
STARTCHAR 1FB7
ENCODING 8119
SWIDTH 565 0
DWIDTH 11 0
BBX 10 19 1 -4
BITMAP
3100
7B00
6F00
4600
0000
0000
3D80
7D80
E780
C300
C300
C300
E700
7FC0
39C0
0000
0000
0800
0E00
ENDCHAR
STARTCHAR 1FB8
ENCODING 8120
SWIDTH 565 0
DWIDTH 11 0
BBX 11 16 0 0
BITMAP
3100
1E00
0000
0000
0E00
0E00
1A00
1B00
3300
3300
3180
7F80
7F80
60C0
E0C0
C0E0
ENDCHAR
STARTCHAR 1FB9
ENCODING 8121
SWIDTH 565 0
DWIDTH 11 0
BBX 11 15 0 0
BITMAP
1F00
0000
0000
0E00
0E00
1A00
1B00
3300
3300
3180
7F80
7F80
60C0
E0C0
C0E0
ENDCHAR
STARTCHAR 1FBA
ENCODING 8122
SWIDTH 565 0
DWIDTH 11 0
BBX 11 12 0 0
BITMAP
C600
CF00
4F00
4B00
1980
1980
1980
3FC0
3FC0
70C0
6060
6060
ENDCHAR
STARTCHAR 1FBB
ENCODING 8123
SWIDTH 565 0
DWIDTH 11 0
BBX 11 12 0 0
BITMAP
C600
CF00
CF00
CB00
1980
1980
1980
3FC0
3FC0
70C0
6060
6060
ENDCHAR
STARTCHAR 1FBC
ENCODING 8124
SWIDTH 822 0
DWIDTH 16 0
BBX 16 12 0 0
BITMAP
0E00
0E00
1A00
1B00
330C
330C
318C
7F8C
7F8C
60CC
E0CE
C0E7
ENDCHAR
STARTCHAR 1FBD
ENCODING 8125
SWIDTH 514 0
DWIDTH 10 0
BBX 3 4 4 11
BITMAP
C0
60
60
C0
ENDCHAR
STARTCHAR 1FBE
ENCODING 8126
SWIDTH 257 0
DWIDTH 5 0
BBX 4 8 1 0
BITMAP
E0
E0
E0
C0
C0
C0
70
70
ENDCHAR
STARTCHAR 1FBF
ENCODING 8127
SWIDTH 514 0
DWIDTH 10 0
BBX 3 4 4 11
BITMAP
C0
60
60
C0
ENDCHAR
STARTCHAR 1FC0
ENCODING 8128
SWIDTH 514 0
DWIDTH 10 0
BBX 7 4 2 11
BITMAP
66
F6
9C
9C
ENDCHAR
STARTCHAR 1FC1
ENCODING 8129
SWIDTH 514 0
DWIDTH 10 0
BBX 6 5 2 11
BITMAP
64
9C
00
CC
CC
ENDCHAR
STARTCHAR 1FC2
ENCODING 8130
SWIDTH 514 0
DWIDTH 10 0
BBX 8 19 1 -4
BITMAP
20
70
18
0C
00
00
CE
DF
F3
E3
E3
E3
E3
E3
E3
03
03
43
60
ENDCHAR
STARTCHAR 1FC3
ENCODING 8131
SWIDTH 514 0
DWIDTH 10 0
BBX 8 13 1 -4
BITMAP
CE
DF
F3
E3
E3
E3
E3
E3
E3
03
03
43
60
ENDCHAR
STARTCHAR 1FC4
ENCODING 8132
SWIDTH 514 0
DWIDTH 10 0
BBX 8 19 1 -4
BITMAP
02
07
0C
08
00
00
CE
DF
F3
E3
E3
E3
E3
E3
E3
03
03
43
60
ENDCHAR
STARTCHAR 1FC6
ENCODING 8134
SWIDTH 514 0
DWIDTH 10 0
BBX 8 18 1 -3
BITMAP
31
39
6F
66
00
00
CE
DF
F3
E3
E3
E3
E3
E3
E3
03
03
03
ENDCHAR
STARTCHAR 1FC7
ENCODING 8135
SWIDTH 514 0
DWIDTH 10 0
BBX 8 19 1 -4
BITMAP
31
39
6F
66
00
00
CE
DF
F3
E3
E3
E3
E3
E3
E3
03
03
43
60
ENDCHAR
STARTCHAR 1FC8
ENCODING 8136
SWIDTH 617 0
DWIDTH 12 0
BBX 11 12 0 0
BITMAP
DFE0
DFE0
DC00
DC00
1C00
1FC0
1FC0
1C00
1C00
1C00
1FE0
1FE0
ENDCHAR
STARTCHAR 1FC9
ENCODING 8137
SWIDTH 617 0
DWIDTH 12 0
BBX 11 12 0 0
BITMAP
DFE0
DFE0
DC00
9C00
1C00
1FC0
1FC0
1C00
1C00
1C00
1FE0
1FE0
ENDCHAR
STARTCHAR 1FCA
ENCODING 8138
SWIDTH 720 0
DWIDTH 14 0
BBX 13 12 0 0
BITMAP
DC18
DC18
DC18
DC18
1C18
1FF8
1FF8
1C18
1C18
1C18
1C18
1C18
ENDCHAR
STARTCHAR 1FCB
ENCODING 8139
SWIDTH 720 0
DWIDTH 14 0
BBX 13 12 0 0
BITMAP
DC18
DC18
DC18
9C18
1C18
1FF8
1FF8
1C18
1C18
1C18
1C18
1C18
ENDCHAR
STARTCHAR 1FCC
ENCODING 8140
SWIDTH 925 0
DWIDTH 18 0
BBX 16 12 2 0
BITMAP
C180
C180
C180
C180
C18C
FF8C
FF8C
C18C
C18C
C18C
C18E
C187
ENDCHAR
STARTCHAR 1FCD
ENCODING 8141
SWIDTH 514 0
DWIDTH 10 0
BBX 6 4 2 11
BITMAP
D8
68
6C
CC
ENDCHAR
STARTCHAR 1FCE
ENCODING 8142
SWIDTH 514 0
DWIDTH 10 0
BBX 6 4 2 11
BITMAP
CC
6C
68
D8
ENDCHAR
STARTCHAR 1FCF
ENCODING 8143
SWIDTH 514 0
DWIDTH 10 0
BBX 6 6 2 11
BITMAP
28
FC
00
30
18
30
ENDCHAR
STARTCHAR 1FD0
ENCODING 8144
SWIDTH 257 0
DWIDTH 5 0
BBX 7 14 -1 0
BITMAP
C6
44
38
00
00
38
38
38
38
30
30
30
1C
1C
ENDCHAR
STARTCHAR 1FD1
ENCODING 8145
SWIDTH 257 0
DWIDTH 5 0
BBX 5 12 0 0
BITMAP
F8
00
00
70
70
70
70
60
60
60
38
38
ENDCHAR
STARTCHAR 1FD2
ENCODING 8146
SWIDTH 257 0
DWIDTH 5 0
BBX 7 15 -1 0
BITMAP
30
30
D6
D6
00
00
38
38
38
38
30
30
30
1C
1C
ENDCHAR
STARTCHAR 1FD3
ENCODING 8147
SWIDTH 257 0
DWIDTH 5 0
BBX 7 15 -1 0
BITMAP
18
18
D6
D6
00
00
38
38
38
38
30
30
30
1C
1C
ENDCHAR
STARTCHAR 1FD6
ENCODING 8150
SWIDTH 257 0
DWIDTH 5 0
BBX 7 15 -1 0
BITMAP
62
F6
DE
8C
00
00
38
38
38
38
30
30
30
1C
1C
ENDCHAR
STARTCHAR 1FD7
ENCODING 8151
SWIDTH 257 0
DWIDTH 5 0
BBX 5 16 0 0
BITMAP
C8
B8
00
88
D8
00
00
70
70
70
70
60
60
60
38
38
ENDCHAR
STARTCHAR 1FD8
ENCODING 8152
SWIDTH 257 0
DWIDTH 5 0
BBX 6 16 0 0
BITMAP
8C
78
00
00
30
30
30
30
30
30
30
30
30
30
30
30
ENDCHAR
STARTCHAR 1FD9
ENCODING 8153
SWIDTH 257 0
DWIDTH 5 0
BBX 5 15 0 0
BITMAP
F8
00
00
30
30
30
30
30
30
30
30
30
30
30
30
ENDCHAR
STARTCHAR 1FDA
ENCODING 8154
SWIDTH 360 0
DWIDTH 7 0
BBX 6 12 0 0
BITMAP
DC
DC
DC
DC
1C
1C
1C
1C
1C
1C
1C
1C
ENDCHAR
STARTCHAR 1FDB
ENCODING 8155
SWIDTH 360 0
DWIDTH 7 0
BBX 6 12 0 0
BITMAP
DC
DC
DC
9C
1C
1C
1C
1C
1C
1C
1C
1C
ENDCHAR
STARTCHAR 1FDD
ENCODING 8157
SWIDTH 514 0
DWIDTH 10 0
BBX 6 4 2 11
BITMAP
78
88
88
4C
ENDCHAR
STARTCHAR 1FDE
ENCODING 8158
SWIDTH 514 0
DWIDTH 10 0
BBX 6 4 2 11
BITMAP
6C
C8
C8
58
ENDCHAR
STARTCHAR 1FDF
ENCODING 8159
SWIDTH 514 0
DWIDTH 10 0
BBX 6 6 2 11
BITMAP
28
FC
00
30
28
30
ENDCHAR
STARTCHAR 1FE0
ENCODING 8160
SWIDTH 514 0
DWIDTH 10 0
BBX 8 14 1 0
BITMAP
42
66
3C
00
00
C6
C3
C3
C3
C3
C3
E7
7E
3C
ENDCHAR
STARTCHAR 1FE1
ENCODING 8161
SWIDTH 514 0
DWIDTH 10 0
BBX 8 12 1 0
BITMAP
7C
00
00
C6
C3
C3
C3
C3
C3
E7
7E
3C
ENDCHAR
STARTCHAR 1FE2
ENCODING 8162
SWIDTH 514 0
DWIDTH 10 0
BBX 8 15 1 0
BITMAP
30
10
56
5E
00
00
C6
C3
C3
C3
C3
C3
E7
7E
3C
ENDCHAR
STARTCHAR 1FE3
ENCODING 8163
SWIDTH 514 0
DWIDTH 10 0
BBX 8 15 1 0
BITMAP
08
18
5E
56
00
00
C6
C3
C3
C3
C3
C3
E7
7E
3C
ENDCHAR
STARTCHAR 1FE4
ENCODING 8164
SWIDTH 565 0
DWIDTH 11 0
BBX 9 18 1 -3
BITMAP
1800
0C00
0400
0800
0000
0000
3E00
7F00
6380
C380
C180
C380
E300
FF00
DE00
C000
C000
E000
ENDCHAR
STARTCHAR 1FE5
ENCODING 8165
SWIDTH 565 0
DWIDTH 11 0
BBX 9 18 1 -3
BITMAP
0C00
1800
1800
0C00
0000
0000
3E00
7F00
6380
C380
C180
C380
E300
FF00
DE00
C000
C000
E000
ENDCHAR
STARTCHAR 1FE6
ENCODING 8166
SWIDTH 514 0
DWIDTH 10 0
BBX 8 15 1 0
BITMAP
62
72
DE
CC
00
00
C6
C3
C3
C3
C3
C3
E7
7E
3C
ENDCHAR
STARTCHAR 1FE7
ENCODING 8167
SWIDTH 514 0
DWIDTH 10 0
BBX 8 16 1 0
BITMAP
22
5C
00
66
66
00
00
C6
C3
C3
C3
C3
C3
E7
7E
3C
ENDCHAR
STARTCHAR 1FE8
ENCODING 8168
SWIDTH 514 0
DWIDTH 10 0
BBX 10 16 0 0
BITMAP
2300
1E00
0000
0000
E1C0
6180
6300
3300
3600
1E00
1C00
0C00
0C00
0C00
0C00
0C00
ENDCHAR
STARTCHAR 1FE9
ENCODING 8169
SWIDTH 514 0
DWIDTH 10 0
BBX 10 15 0 0
BITMAP
3E00
0000
0000
E1C0
6180
6300
3300
3600
1E00
1C00
0C00
0C00
0C00
0C00
0C00
ENDCHAR
STARTCHAR 1FEA
ENCODING 8170
SWIDTH 617 0
DWIDTH 12 0
BBX 12 12 0 0
BITMAP
D830
CC30
CC60
C660
06C0
03C0
0380
0180
0180
0180
0180
0180
ENDCHAR
STARTCHAR 1FEB
ENCODING 8171
SWIDTH 617 0
DWIDTH 12 0
BBX 12 12 0 0
BITMAP
D830
CC30
CC60
8660
06C0
03C0
0380
0180
0180
0180
0180
0180
ENDCHAR
STARTCHAR 1FEC
ENCODING 8172
SWIDTH 720 0
DWIDTH 14 0
BBX 13 12 0 0
BITMAP
6FE0
EFF0
CC38
CC18
4C18
0C38
0FF0
0FE0
0C00
0C00
0C00
0C00
ENDCHAR
STARTCHAR 1FED
ENCODING 8173
SWIDTH 514 0
DWIDTH 10 0
BBX 6 4 2 11
BITMAP
20
30
D4
D4
ENDCHAR
STARTCHAR 1FEE
ENCODING 8174
SWIDTH 514 0
DWIDTH 10 0
BBX 6 4 2 11
BITMAP
18
10
D4
F4
ENDCHAR
STARTCHAR 1FEF
ENCODING 8175
SWIDTH 514 0
DWIDTH 10 0
BBX 3 4 3 11
BITMAP
C0
60
60
60
ENDCHAR
STARTCHAR 1FF2
ENCODING 8178
SWIDTH 720 0
DWIDTH 14 0
BBX 12 19 1 -4
BITMAP
0800
1C00
0E00
0400
0000
0000
6060
60E0
C670
C630
C630
C630
CE70
7FE0
39C0
0000
0000
0600
0700
ENDCHAR
STARTCHAR 1FF3
ENCODING 8179
SWIDTH 720 0
DWIDTH 14 0
BBX 12 13 1 -4
BITMAP
6060
60E0
C670
C630
C630
C630
CE70
7FE0
39C0
0000
0000
0600
0700
ENDCHAR
STARTCHAR 1FF4
ENCODING 8180
SWIDTH 720 0
DWIDTH 14 0
BBX 12 19 1 -4
BITMAP
0100
0380
0700
0400
0000
0000
6060
60E0
C670
C630
C630
C630
CE70
7FE0
39C0
0000
0000
0600
0700
ENDCHAR
STARTCHAR 1FF6
ENCODING 8182
SWIDTH 720 0
DWIDTH 14 0
BBX 12 15 1 0
BITMAP
1880
1C80
1780
3300
0000
0000
6060
60E0
C670
C630
C630
C630
CE70
7FE0
39C0
ENDCHAR
STARTCHAR 1FF7
ENCODING 8183
SWIDTH 720 0
DWIDTH 14 0
BBX 12 19 1 -4
BITMAP
1880
1C80
1780
3300
0000
0000
6060
60E0
C670
C630
C630
C630
CE70
7FE0
39C0
0000
0000
0600
0700
ENDCHAR
STARTCHAR 1FF8
ENCODING 8184
SWIDTH 720 0
DWIDTH 14 0
BBX 13 12 0 0
BITMAP
C7C0
CFF0
DC38
D818
1818
3818
3818
1818
1818
1C38
0FF0
07C0
ENDCHAR
STARTCHAR 1FF9
ENCODING 8185
SWIDTH 720 0
DWIDTH 14 0
BBX 13 12 0 0
BITMAP
C7C0
CFF0
DC70
9838
3818
3818
3818
3818
1838
1C70
0FF0
07C0
ENDCHAR
STARTCHAR 1FFA
ENCODING 8186
SWIDTH 771 0
DWIDTH 15 0
BBX 14 12 0 0
BITMAP
C3E0
CFF0
DC38
D818
1818
181C
1818
1818
1C38
0C30
3E7C
3E7C
ENDCHAR
STARTCHAR 1FFB
ENCODING 8187
SWIDTH 771 0
DWIDTH 15 0
BBX 14 12 0 0
BITMAP
C7C0
CFF0
9C38
9818
1818
3818
1818
1818
1838
0C30
3E7C
3E7C
ENDCHAR
STARTCHAR 1FFC
ENCODING 8188
SWIDTH 925 0
DWIDTH 18 0
BBX 17 12 1 0
BITMAP
1F0000
3FC000
71C000
E0E000
E06300
C06300
C06300
E06300
60C300
318300
F9E380
F9E380
ENDCHAR
STARTCHAR 1FFD
ENCODING 8189
SWIDTH 514 0
DWIDTH 10 0
BBX 3 4 4 11
BITMAP
60
60
40
C0
ENDCHAR
STARTCHAR 1FFE
ENCODING 8190
SWIDTH 514 0
DWIDTH 10 0
BBX 3 4 4 11
BITMAP
E0
80
C0
40
ENDCHAR
STARTCHAR 2007
ENCODING 8199
SWIDTH 514 0
DWIDTH 10 0
BBX 0 0 0 0
BITMAP
ENDCHAR
STARTCHAR 2012
ENCODING 8210
SWIDTH 514 0
DWIDTH 10 0
BBX 8 2 1 4
BITMAP
FF
FF
ENDCHAR
STARTCHAR 2013
ENCODING 8211
SWIDTH 462 0
DWIDTH 9 0
BBX 7 2 1 4
BITMAP
FE
FE
ENDCHAR
STARTCHAR 2014
ENCODING 8212
SWIDTH 771 0
DWIDTH 15 0
BBX 13 2 1 4
BITMAP
FFF8
FFF8
ENDCHAR
STARTCHAR 2015
ENCODING 8213
SWIDTH 771 0
DWIDTH 15 0
BBX 13 2 1 4
BITMAP
FFF8
FFF8
ENDCHAR
STARTCHAR 2016
ENCODING 8214
SWIDTH 411 0
DWIDTH 8 0
BBX 4 19 2 -5
BITMAP
90
90
90
90
90
90
90
90
90
90
90
90
90
90
90
90
90
90
90
ENDCHAR
STARTCHAR 2018
ENCODING 8216
SWIDTH 257 0
DWIDTH 5 0
BBX 3 5 1 8
BITMAP
60
C0
80
E0
E0
ENDCHAR
STARTCHAR 2019
ENCODING 8217
SWIDTH 257 0
DWIDTH 5 0
BBX 3 5 1 8
BITMAP
60
E0
20
60
C0
ENDCHAR
STARTCHAR 201A
ENCODING 8218
SWIDTH 257 0
DWIDTH 5 0
BBX 3 5 1 -2
BITMAP
60
E0
20
60
C0
ENDCHAR
STARTCHAR 201C
ENCODING 8220
SWIDTH 462 0
DWIDTH 9 0
BBX 7 5 1 8
BITMAP
66
CC
88
EE
EE
ENDCHAR
STARTCHAR 201D
ENCODING 8221
SWIDTH 462 0
DWIDTH 9 0
BBX 7 5 1 8
BITMAP
66
EE
22
66
CC
ENDCHAR
STARTCHAR 201E
ENCODING 8222
SWIDTH 462 0
DWIDTH 9 0
BBX 7 5 1 -2
BITMAP
66
EE
22
66
CC
ENDCHAR
STARTCHAR 2020
ENCODING 8224
SWIDTH 462 0
DWIDTH 9 0
BBX 7 15 1 -1
BITMAP
10
10
10
FE
FE
10
10
10
10
10
10
10
10
10
10
ENDCHAR
STARTCHAR 2021
ENCODING 8225
SWIDTH 462 0
DWIDTH 9 0
BBX 7 15 1 -1
BITMAP
10
10
10
FE
FE
10
10
10
10
10
FE
FE
10
10
10
ENDCHAR
STARTCHAR 2022
ENCODING 8226
SWIDTH 308 0
DWIDTH 6 0
BBX 4 5 1 3
BITMAP
60
F0
F0
F0
70
ENDCHAR
STARTCHAR 2026
ENCODING 8230
SWIDTH 925 0
DWIDTH 18 0
BBX 15 3 2 0
BITMAP
C306
C38E
C306
ENDCHAR
STARTCHAR 202F
ENCODING 8239
SWIDTH 102 0
DWIDTH 2 0
BBX 0 0 0 0
BITMAP
ENDCHAR
STARTCHAR 2030
ENCODING 8240
SWIDTH 1182 0
DWIDTH 23 0
BBX 22 12 1 0
BITMAP
706000
F84000
C8C000
888000
8D3870
C97CF8
FA4CC8
76C48C
04C48C
0C4CC8
087CF8
183870
ENDCHAR
STARTCHAR 2032
ENCODING 8242
SWIDTH 257 0
DWIDTH 5 0
BBX 2 5 2 8
BITMAP
C0
C0
C0
80
80
ENDCHAR
STARTCHAR 2033
ENCODING 8243
SWIDTH 462 0
DWIDTH 9 0
BBX 6 5 2 8
BITMAP
CC
CC
CC
88
98
ENDCHAR
STARTCHAR 2035
ENCODING 8245
SWIDTH 257 0
DWIDTH 5 0
BBX 3 5 1 8
BITMAP
C0
C0
40
60
60
ENDCHAR
STARTCHAR 2039
ENCODING 8249
SWIDTH 257 0
DWIDTH 5 0
BBX 3 7 1 1
BITMAP
20
60
C0
80
C0
60
20
ENDCHAR
STARTCHAR 203A
ENCODING 8250
SWIDTH 257 0
DWIDTH 5 0
BBX 3 7 1 1
BITMAP
80
40
60
20
60
40
80
ENDCHAR
STARTCHAR 203C
ENCODING 8252
SWIDTH 565 0
DWIDTH 11 0
BBX 7 13 2 0
BITMAP
C6
C6
C6
C6
C6
C6
C6
C6
C6
00
C6
C6
C6
ENDCHAR
STARTCHAR 203D
ENCODING 8253
SWIDTH 462 0
DWIDTH 9 0
BBX 8 13 0 0
BITMAP
3C
7E
C7
1B
1B
1E
1C
18
18
00
18
18
18
ENDCHAR
STARTCHAR 203E
ENCODING 8254
SWIDTH 514 0
DWIDTH 10 0
BBX 9 2 0 10
BITMAP
FF80
FF80
ENDCHAR
STARTCHAR 203F
ENCODING 8255
SWIDTH 0 0
DWIDTH 0 0
BBX 18 4 -9 -5
BITMAP
400080
F807C0
1FFE00
07F800
ENDCHAR
STARTCHAR 2044
ENCODING 8260
SWIDTH 102 0
DWIDTH 2 0
BBX 8 13 -3 0
BITMAP
03
02
06
04
0C
08
18
10
20
20
40
40
80
ENDCHAR
STARTCHAR 2047
ENCODING 8263
SWIDTH 822 0
DWIDTH 16 0
BBX 14 13 1 0
BITMAP
7878
FCFC
CF8C
0E0C
0C0C
1C18
1830
3030
3020
0010
3070
3070
3070
ENDCHAR
STARTCHAR 2048
ENCODING 8264
SWIDTH 720 0
DWIDTH 14 0
BBX 11 13 1 0
BITMAP
78E0
FC60
CE60
0E60
0C60
1C40
1840
3040
3040
0000
3060
30E0
3060
ENDCHAR
STARTCHAR 2049
ENCODING 8265
SWIDTH 720 0
DWIDTH 14 0
BBX 11 13 2 0
BITMAP
C780
CFC0
C4E0
C060
C0C0
C0C0
C180
C300
C300
0000
C300
C380
C300
ENDCHAR
STARTCHAR 2070
ENCODING 8304
SWIDTH 360 0
DWIDTH 7 0
BBX 6 8 1 7
BITMAP
70
D8
88
88
8C
88
D8
70
ENDCHAR
STARTCHAR 2071
ENCODING 8305
SWIDTH 154 0
DWIDTH 3 0
BBX 2 9 1 7
BITMAP
C0
C0
00
80
80
80
80
80
80
ENDCHAR
STARTCHAR 2074
ENCODING 8308
SWIDTH 360 0
DWIDTH 7 0
BBX 6 7 1 7
BITMAP
38
38
58
D8
FC
18
18
ENDCHAR
STARTCHAR 2075
ENCODING 8309
SWIDTH 360 0
DWIDTH 7 0
BBX 5 7 1 7
BITMAP
78
C0
F0
98
08
98
F0
ENDCHAR
STARTCHAR 2076
ENCODING 8310
SWIDTH 360 0
DWIDTH 7 0
BBX 5 8 1 7
BITMAP
78
C0
C0
B8
C8
88
C8
70
ENDCHAR
STARTCHAR 2077
ENCODING 8311
SWIDTH 360 0
DWIDTH 7 0
BBX 5 7 1 7
BITMAP
F8
10
10
30
20
20
60
ENDCHAR
STARTCHAR 2078
ENCODING 8312
SWIDTH 360 0
DWIDTH 7 0
BBX 5 8 1 7
BITMAP
70
D8
C8
D8
70
98
88
70
ENDCHAR
STARTCHAR 2079
ENCODING 8313
SWIDTH 360 0
DWIDTH 7 0
BBX 5 8 1 7
BITMAP
70
98
88
98
F8
08
18
F0
ENDCHAR
STARTCHAR 207D
ENCODING 8317
SWIDTH 257 0
DWIDTH 5 0
BBX 3 11 1 5
BITMAP
20
60
40
C0
C0
C0
C0
C0
40
60
20
ENDCHAR
STARTCHAR 207E
ENCODING 8318
SWIDTH 257 0
DWIDTH 5 0
BBX 3 11 1 5
BITMAP
80
C0
40
40
60
60
60
40
40
C0
80
ENDCHAR
STARTCHAR 207F
ENCODING 8319
SWIDTH 360 0
DWIDTH 7 0
BBX 5 7 1 7
BITMAP
B8
C8
88
88
88
88
88
ENDCHAR
STARTCHAR 2080
ENCODING 8320
SWIDTH 360 0
DWIDTH 7 0
BBX 6 8 1 -3
BITMAP
70
D8
88
88
8C
88
D8
70
ENDCHAR
STARTCHAR 2081
ENCODING 8321
SWIDTH 360 0
DWIDTH 7 0
BBX 3 7 2 -3
BITMAP
60
E0
60
60
60
60
60
ENDCHAR
STARTCHAR 2082
ENCODING 8322
SWIDTH 360 0
DWIDTH 7 0
BBX 5 8 1 -3
BITMAP
F0
98
18
18
30
70
E0
F8
ENDCHAR
STARTCHAR 2083
ENCODING 8323
SWIDTH 360 0
DWIDTH 7 0
BBX 5 8 1 -3
BITMAP
70
98
18
18
30
38
88
F0
ENDCHAR
STARTCHAR 2084
ENCODING 8324
SWIDTH 360 0
DWIDTH 7 0
BBX 6 7 1 -3
BITMAP
38
38
58
D8
FC
18
18
ENDCHAR
STARTCHAR 2085
ENCODING 8325
SWIDTH 360 0
DWIDTH 7 0
BBX 5 7 1 -3
BITMAP
78
C0
F0
98
08
98
F0
ENDCHAR
STARTCHAR 2086
ENCODING 8326
SWIDTH 360 0
DWIDTH 7 0
BBX 5 8 1 -3
BITMAP
78
C0
C0
B8
C8
88
C8
70
ENDCHAR
STARTCHAR 2087
ENCODING 8327
SWIDTH 360 0
DWIDTH 7 0
BBX 5 7 1 -3
BITMAP
F8
10
10
30
20
20
60
ENDCHAR
STARTCHAR 2088
ENCODING 8328
SWIDTH 360 0
DWIDTH 7 0
BBX 5 8 1 -3
BITMAP
70
D8
C8
D8
70
98
88
70
ENDCHAR
STARTCHAR 2089
ENCODING 8329
SWIDTH 360 0
DWIDTH 7 0
BBX 5 8 1 -3
BITMAP
70
98
88
98
F8
08
18
F0
ENDCHAR
STARTCHAR 208D
ENCODING 8333
SWIDTH 257 0
DWIDTH 5 0
BBX 3 11 1 -5
BITMAP
20
60
40
C0
C0
C0
C0
C0
40
60
20
ENDCHAR
STARTCHAR 208E
ENCODING 8334
SWIDTH 257 0
DWIDTH 5 0
BBX 3 11 1 -5
BITMAP
80
C0
40
40
60
60
60
40
40
C0
80
ENDCHAR
STARTCHAR 2094
ENCODING 8340
SWIDTH 308 0
DWIDTH 6 0
BBX 6 7 0 7
BITMAP
78
0C
0C
FC
CC
4C
38
ENDCHAR
STARTCHAR 20A1
ENCODING 8353
SWIDTH 514 0
DWIDTH 10 0
BBX 8 16 1 -2
BITMAP
0A
0A
1E
3F
6E
EC
CC
D4
D4
D4
F4
75
77
3E
28
28
ENDCHAR
STARTCHAR 20A4
ENCODING 8356
SWIDTH 514 0
DWIDTH 10 0
BBX 8 12 1 0
BITMAP
1E
3F
72
60
FC
FC
FC
FC
30
60
FF
FF
ENDCHAR
STARTCHAR 20A6
ENCODING 8358
SWIDTH 514 0
DWIDTH 10 0
BBX 10 12 0 0
BITMAP
7100
7100
7100
7900
6900
FFC0
FFC0
FFC0
FFC0
6500
6700
6300
ENDCHAR
STARTCHAR 20A7
ENCODING 8359
SWIDTH 514 0
DWIDTH 10 0
BBX 10 12 0 0
BITMAP
7E00
7F00
6300
FFC0
FFC0
6300
7F00
7E00
6000
6000
6000
6000
ENDCHAR
STARTCHAR 20A9
ENCODING 8361
SWIDTH 514 0
DWIDTH 10 0
BBX 10 12 0 0
BITMAP
C0C0
CC80
4C80
6D80
FFC0
FFC0
7780
7780
7380
7300
3300
3300
ENDCHAR
STARTCHAR 20AB
ENCODING 8363
SWIDTH 514 0
DWIDTH 10 0
BBX 9 12 1 0
BITMAP
0600
3F80
0600
3E00
7E00
E600
C600
C600
7E00
3A00
0000
FF00
ENDCHAR
STARTCHAR 20AC
ENCODING 8364
SWIDTH 514 0
DWIDTH 10 0
BBX 10 12 0 0
BITMAP
0F00
1F80
3880
3000
3000
FF00
7000
FF00
3000
3880
1FC0
0F00
ENDCHAR
STARTCHAR 20AE
ENCODING 8366
SWIDTH 514 0
DWIDTH 10 0
BBX 8 12 1 0
BITMAP
FF
FF
18
18
1A
1C
3A
DC
38
D8
18
18
ENDCHAR
STARTCHAR 20B1
ENCODING 8369
SWIDTH 514 0
DWIDTH 10 0
BBX 10 12 0 0
BITMAP
7C00
7F00
6300
FFC0
6300
FFC0
6700
7C00
6000
6000
6000
6000
ENDCHAR
STARTCHAR 20B2
ENCODING 8370
SWIDTH 514 0
DWIDTH 10 0
BBX 8 16 1 -2
BITMAP
08
08
3E
7F
62
C0
C0
C7
C7
C3
C3
63
7F
3E
08
08
ENDCHAR
STARTCHAR 20B4
ENCODING 8372
SWIDTH 514 0
DWIDTH 10 0
BBX 9 12 0 0
BITMAP
1E00
3F00
6300
0300
0700
FF80
1C00
FF80
3000
3100
3F80
1E00
ENDCHAR
STARTCHAR 20B5
ENCODING 8373
SWIDTH 514 0
DWIDTH 10 0
BBX 8 16 1 -2
BITMAP
0C
0C
1E
3F
6E
EC
CC
CC
CC
CC
EC
6D
7F
1E
0C
0C
ENDCHAR
STARTCHAR 20B8
ENCODING 8376
SWIDTH 514 0
DWIDTH 10 0
BBX 8 12 1 0
BITMAP
FF
00
FF
18
18
18
18
18
18
18
18
18
ENDCHAR
STARTCHAR 20B9
ENCODING 8377
SWIDTH 514 0
DWIDTH 10 0
BBX 8 12 1 0
BITMAP
FF
F8
0C
FF
0C
1C
FC
F0
38
18
0C
0E
ENDCHAR
STARTCHAR 20BA
ENCODING 8378
SWIDTH 514 0
DWIDTH 10 0
BBX 9 12 0 0
BITMAP
3000
3200
3600
3A00
7600
B800
7180
B180
3180
3380
3F00
3C00
ENDCHAR
STARTCHAR 20BD
ENCODING 8381
SWIDTH 514 0
DWIDTH 10 0
BBX 8 12 0 0
BITMAP
7E
7F
63
63
63
FE
60
FE
60
60
60
60
ENDCHAR
STARTCHAR 2113
ENCODING 8467
SWIDTH 411 0
DWIDTH 8 0
BBX 8 14 0 0
BITMAP
1E
1F
3B
33
33
32
36
3C
38
70
F0
B9
1F
0E
ENDCHAR
STARTCHAR 2116
ENCODING 8470
SWIDTH 925 0
DWIDTH 18 0
BBX 16 12 1 0
BITMAP
618E
719F
71F3
59B1
79B3
699F
6D8E
6580
679F
679F
E380
C380
ENDCHAR
STARTCHAR 2117
ENCODING 8471
SWIDTH 720 0
DWIDTH 14 0
BBX 12 12 1 0
BITMAP
1F80
3FC0
7F60
CFB0
8890
8890
8F90
8F10
C830
7860
3FC0
0F80
ENDCHAR
STARTCHAR 2120
ENCODING 8480
SWIDTH 668 0
DWIDTH 13 0
BBX 12 6 0 7
BITMAP
7330
7B30
73F0
BAD0
FAD0
7210
ENDCHAR
STARTCHAR 2122
ENCODING 8482
SWIDTH 668 0
DWIDTH 13 0
BBX 12 7 0 6
BITMAP
0300
FB30
2330
22D0
22D0
2210
0010
ENDCHAR
STARTCHAR 2126
ENCODING 8486
SWIDTH 668 0
DWIDTH 13 0
BBX 11 12 1 0
BITMAP
1F00
3FC0
71C0
E0E0
E060
C060
C060
E060
60C0
3180
F9E0
F9E0
ENDCHAR
STARTCHAR 212E
ENCODING 8494
SWIDTH 771 0
DWIDTH 15 0
BBX 13 12 1 0
BITMAP
0F80
3060
4010
C018
C018
FFF8
C000
C000
C000
6000
3070
0F80
ENDCHAR
STARTCHAR 2150
ENCODING 8528
SWIDTH 822 0
DWIDTH 16 0
BBX 14 13 1 0
BITMAP
0040
6080
E080
2100
2300
2200
26FC
2408
0C10
0810
1830
1030
3030
ENDCHAR
STARTCHAR 2151
ENCODING 8529
SWIDTH 822 0
DWIDTH 16 0
BBX 14 13 1 0
BITMAP
0040
60C0
E080
2180
2100
2278
2248
24CC
04CC
087C
080C
1008
3070
ENDCHAR
STARTCHAR 2152
ENCODING 8530
SWIDTH 1080 0
DWIDTH 21 0
BBX 20 13 1 0
BITMAP
004000
60C000
E08000
218000
210000
2231C0
2273E0
243330
243230
083230
083330
1033E0
3031C0
ENDCHAR
STARTCHAR 2153
ENCODING 8531
SWIDTH 822 0
DWIDTH 16 0
BBX 14 13 1 0
BITMAP
0040
6080
E080
2100
2300
2278
26C8
2408
0C18
0838
1838
104C
30F8
ENDCHAR
STARTCHAR 2154
ENCODING 8532
SWIDTH 822 0
DWIDTH 16 0
BBX 14 13 1 0
BITMAP
F020
9840
18C0
1880
3180
7178
E34C
FA0C
060C
0438
0C3C
084C
18F8
ENDCHAR
STARTCHAR 2155
ENCODING 8533
SWIDTH 822 0
DWIDTH 16 0
BBX 14 13 1 0
BITMAP
0040
6080
E080
2100
2300
2200
2678
2440
0C78
084C
180C
104C
30F8
ENDCHAR
STARTCHAR 2156
ENCODING 8534
SWIDTH 822 0
DWIDTH 16 0
BBX 14 13 1 0
BITMAP
F020
9840
18C0
1880
3180
7100
E37C
FA60
0678
044C
0C0C
084C
18F8
ENDCHAR
STARTCHAR 2157
ENCODING 8535
SWIDTH 822 0
DWIDTH 16 0
BBX 14 13 1 0
BITMAP
7060
9840
18C0
1880
3180
3900
8B7C
F260
0678
044C
0C0C
084C
10F8
ENDCHAR
STARTCHAR 2158
ENCODING 8536
SWIDTH 874 0
DWIDTH 17 0
BBX 15 13 1 0
BITMAP
0030
3820
3840
58C0
D880
FD80
193C
1B20
023C
0626
0406
0C64
183C
ENDCHAR
STARTCHAR 2159
ENCODING 8537
SWIDTH 822 0
DWIDTH 16 0
BBX 14 13 1 0
BITMAP
0040
60C0
E080
2180
2100
2238
2240
24C0
04F8
08CC
08CC
1048
3078
ENDCHAR
STARTCHAR 215A
ENCODING 8538
SWIDTH 822 0
DWIDTH 16 0
BBX 14 13 1 0
BITMAP
0060
7840
C0C0
F080
9980
093C
9B60
F240
06F8
04CC
0C4C
084C
1038
ENDCHAR
STARTCHAR 215B
ENCODING 8539
SWIDTH 822 0
DWIDTH 16 0
BBX 14 13 1 0
BITMAP
0040
60C0
E080
2180
2100
2278
2248
244C
0468
0830
084C
10CC
3078
ENDCHAR
STARTCHAR 215C
ENCODING 8540
SWIDTH 822 0
DWIDTH 16 0
BBX 14 13 1 0
BITMAP
7060
9840
18C0
1880
3180
3938
8B6C
F24C
066C
0438
0C4C
084C
1078
ENDCHAR
STARTCHAR 215D
ENCODING 8541
SWIDTH 822 0
DWIDTH 16 0
BBX 14 13 1 0
BITMAP
0060
7840
C0C0
F080
9980
0938
9B6C
F24C
066C
0438
0C4C
084C
1078
ENDCHAR
STARTCHAR 215E
ENCODING 8542
SWIDTH 771 0
DWIDTH 15 0
BBX 14 13 1 0
BITMAP
00C0
F880
1180
3100
2300
6278
6648
64C8
0C68
0830
18CC
10CC
3078
ENDCHAR
STARTCHAR 2189
ENCODING 8585
SWIDTH 822 0
DWIDTH 16 0
BBX 14 13 1 0
BITMAP
7060
D840
88C0
8880
8D80
8978
DB4C
720C
060C
0438
0C3C
084C
10F8
ENDCHAR
STARTCHAR 2190
ENCODING 8592
SWIDTH 617 0
DWIDTH 12 0
BBX 11 10 0 0
BITMAP
0400
0E00
1800
3000
7FE0
FFE0
3000
1800
0C00
0600
ENDCHAR
STARTCHAR 2191
ENCODING 8593
SWIDTH 617 0
DWIDTH 12 0
BBX 10 11 1 -1
BITMAP
0800
1C00
1E00
3F00
6D80
CCC0
8C00
0C00
0C00
0C00
0C00
ENDCHAR
STARTCHAR 2192
ENCODING 8594
SWIDTH 617 0
DWIDTH 12 0
BBX 10 10 1 0
BITMAP
0C00
0600
0300
0180
FFC0
FFC0
0180
0300
0600
0C00
ENDCHAR
STARTCHAR 2193
ENCODING 8595
SWIDTH 617 0
DWIDTH 12 0
BBX 10 11 1 -1
BITMAP
0C00
0C00
0C00
0C00
8C00
CCC0
6D80
3F00
1E00
1C00
0800
ENDCHAR
STARTCHAR 2202
ENCODING 8706
SWIDTH 565 0
DWIDTH 11 0
BBX 9 12 1 0
BITMAP
3E00
7F00
2300
0380
3D80
7F80
E380
C300
C300
C700
FE00
3C00
ENDCHAR
STARTCHAR 2206
ENCODING 8710
SWIDTH 617 0
DWIDTH 12 0
BBX 10 12 1 0
BITMAP
1C00
1E00
1600
3600
3300
3300
6380
6180
C180
C1C0
FFC0
FFC0
ENDCHAR
STARTCHAR 220F
ENCODING 8719
SWIDTH 668 0
DWIDTH 13 0
BBX 10 14 2 -2
BITMAP
FFC0
FFC0
C1C0
C1C0
C1C0
C1C0
C1C0
C1C0
C1C0
C1C0
C1C0
C1C0
C1C0
C1C0
ENDCHAR
STARTCHAR 2211
ENCODING 8721
SWIDTH 514 0
DWIDTH 10 0
BBX 10 14 0 -2
BITMAP
7F80
7F80
3000
3000
1800
0C00
0E00
0E00
0C00
1800
3000
7000
7FC0
FFC0
ENDCHAR
STARTCHAR 2212
ENCODING 8722
SWIDTH 514 0
DWIDTH 10 0
BBX 8 2 1 5
BITMAP
FF
FF
ENDCHAR
STARTCHAR 2215
ENCODING 8725
SWIDTH 102 0
DWIDTH 2 0
BBX 8 13 -3 0
BITMAP
03
02
06
04
0C
08
18
10
20
20
40
40
80
ENDCHAR
STARTCHAR 2219
ENCODING 8729
SWIDTH 514 0
DWIDTH 10 0
BBX 3 3 3 5
BITMAP
60
E0
60
ENDCHAR
STARTCHAR 221A
ENCODING 8730
SWIDTH 565 0
DWIDTH 11 0
BBX 10 17 1 -2
BITMAP
00C0
00C0
0080
0080
0180
0180
0100
0100
E100
A300
3200
3200
1200
1E00
1C00
0C00
0C00
ENDCHAR
STARTCHAR 221E
ENCODING 8734
SWIDTH 771 0
DWIDTH 15 0
BBX 13 8 1 2
BITMAP
78F0
FDF8
CF18
8608
C708
FF98
79F8
00F0
ENDCHAR
STARTCHAR 222B
ENCODING 8747
SWIDTH 360 0
DWIDTH 7 0
BBX 5 18 1 -3
BITMAP
18
38
70
60
60
60
60
60
30
30
30
30
30
30
30
30
F0
E0
ENDCHAR
STARTCHAR 2248
ENCODING 8776
SWIDTH 514 0
DWIDTH 10 0
BBX 8 8 1 2
BITMAP
60
F9
9F
0E
60
F9
9F
0E
ENDCHAR
STARTCHAR 2260
ENCODING 8800
SWIDTH 514 0
DWIDTH 10 0
BBX 8 10 1 1
BITMAP
03
06
FF
FF
08
10
FF
FF
60
C0
ENDCHAR
STARTCHAR 2264
ENCODING 8804
SWIDTH 514 0
DWIDTH 10 0
BBX 8 10 1 0
BITMAP
07
3F
F8
C0
FC
1F
03
00
FF
FF
ENDCHAR
STARTCHAR 2265
ENCODING 8805
SWIDTH 514 0
DWIDTH 10 0
BBX 8 10 1 0
BITMAP
C0
F8
1F
07
3E
F0
80
00
FF
FF
ENDCHAR
STARTCHAR 231C
ENCODING 8988
SWIDTH 308 0
DWIDTH 6 0
BBX 3 14 2 0
BITMAP
E0
E0
80
80
80
80
80
80
80
80
80
80
80
80
ENDCHAR
STARTCHAR 231D
ENCODING 8989
SWIDTH 308 0
DWIDTH 6 0
BBX 3 14 1 0
BITMAP
E0
E0
20
20
20
20
20
20
20
20
20
20
20
20
ENDCHAR
STARTCHAR 231E
ENCODING 8990
SWIDTH 308 0
DWIDTH 6 0
BBX 3 14 2 -1
BITMAP
80
80
80
80
80
80
80
80
80
80
80
80
E0
E0
ENDCHAR
STARTCHAR 231F
ENCODING 8991
SWIDTH 308 0
DWIDTH 6 0
BBX 3 14 1 -1
BITMAP
20
20
20
20
20
20
20
20
20
20
20
20
E0
E0
ENDCHAR
STARTCHAR 25A0
ENCODING 9632
SWIDTH 874 0
DWIDTH 17 0
BBX 15 15 1 -1
BITMAP
FFFE
FFFE
FFFE
FFFE
FFFE
FFFE
FFFE
FFFE
FFFE
FFFE
FFFE
FFFE
FFFE
FFFE
FFFE
ENDCHAR
STARTCHAR 25B2
ENCODING 9650
SWIDTH 874 0
DWIDTH 17 0
BBX 15 16 1 -1
BITMAP
0100
0100
0380
0380
07C0
07C0
0FC0
0FE0
1FE0
1FF0
3FF0
3FF8
3FF8
7FFC
7FFC
FFFE
ENDCHAR
STARTCHAR 25B3
ENCODING 9651
SWIDTH 874 0
DWIDTH 17 0
BBX 15 16 1 -1
BITMAP
0200
0100
0300
0280
0680
04C0
0C40
0860
0820
1030
1010
3018
2008
600C
7FFC
FFFE
ENDCHAR
STARTCHAR 25B6
ENCODING 9654
SWIDTH 874 0
DWIDTH 17 0
BBX 15 15 1 -1
BITMAP
8000
E000
F800
FE00
FF80
FFE0
FFF8
FFFE
FFF8
FFE0
FF80
FE00
F800
E000
8000
ENDCHAR
STARTCHAR 25B7
ENCODING 9655
SWIDTH 874 0
DWIDTH 17 0
BBX 15 15 1 -1
BITMAP
8000
E000
F800
8E00
8380
80E0
8038
800E
8038
80E0
8380
8E00
F800
E000
8000
ENDCHAR
STARTCHAR 25BC
ENCODING 9660
SWIDTH 874 0
DWIDTH 17 0
BBX 15 16 1 -2
BITMAP
FFFE
7FFC
7FFC
3FF8
3FF8
3FF0
1FF0
1FE0
0FE0
0FC0
07C0
07C0
0380
0380
0100
0100
ENDCHAR
STARTCHAR 25BD
ENCODING 9661
SWIDTH 874 0
DWIDTH 17 0
BBX 15 16 1 -2
BITMAP
FFFE
7FFC
600C
2008
3018
1010
1030
0820
0860
0C40
04C0
0680
0280
0300
0100
0200
ENDCHAR
STARTCHAR 25C0
ENCODING 9664
SWIDTH 874 0
DWIDTH 17 0
BBX 16 15 0 -1
BITMAP
0001
0007
001F
007F
01FF
07FF
3FFF
FFFF
3FFF
07FF
01FF
007F
001F
0007
0001
ENDCHAR
STARTCHAR 25C1
ENCODING 9665
SWIDTH 874 0
DWIDTH 17 0
BBX 16 15 0 -1
BITMAP
0001
0007
001F
0073
01C3
0703
3C03
F003
3C03
0703
01C3
0073
001F
0007
0001
ENDCHAR
STARTCHAR 25C6
ENCODING 9670
SWIDTH 874 0
DWIDTH 17 0
BBX 16 16 0 -2
BITMAP
0080
01C0
03E0
07F0
0FF8
1FFC
3FFE
7FFF
FFFF
3FFE
1FFC
0FF8
07F0
03E0
01C0
0080
ENDCHAR
STARTCHAR 25C9
ENCODING 9673
SWIDTH 874 0
DWIDTH 17 0
BBX 15 17 1 -2
BITMAP
07C0
1FF0
3838
600C
C7CC
CFE6
9FF6
9FF2
9FF2
9FF2
9FF6
CFE6
C7CC
600C
3838
1FF0
07C0
ENDCHAR
STARTCHAR 25CA
ENCODING 9674
SWIDTH 514 0
DWIDTH 10 0
BBX 8 12 1 0
BITMAP
18
3C
3C
66
66
C3
C3
66
66
3C
3C
18
ENDCHAR
STARTCHAR 25CC
ENCODING 9676
SWIDTH 565 0
DWIDTH 11 0
BBX 9 10 1 0
BITMAP
0800
2A00
2200
C180
C180
8080
C180
C180
2A00
2A00
ENDCHAR
STARTCHAR 2610
ENCODING 9744
SWIDTH 771 0
DWIDTH 15 0
BBX 13 13 1 0
BITMAP
7FF8
FFF8
8018
8018
8018
8018
8018
8018
8018
8018
8018
FFF8
FFF0
ENDCHAR
STARTCHAR 2611
ENCODING 9745
SWIDTH 771 0
DWIDTH 15 0
BBX 14 16 1 0
BITMAP
0008
000C
001C
7FF8
FFF8
8078
8078
80D8
9898
8998
8D18
8718
8718
8018
FFF8
FFF0
ENDCHAR
STARTCHAR 266A
ENCODING 9834
SWIDTH 514 0
DWIDTH 10 0
BBX 9 14 1 -1
BITMAP
0800
0C00
0E00
0B00
0980
0980
0900
0900
0800
0800
7800
F800
F800
F000
ENDCHAR
STARTCHAR 2713
ENCODING 10003
SWIDTH 617 0
DWIDTH 12 0
BBX 12 13 0 0
BITMAP
0020
0070
00E0
00C0
0180
0100
4300
C600
6600
6400
3C00
3C00
1800
ENDCHAR
STARTCHAR 2752
ENCODING 10066
SWIDTH 874 0
DWIDTH 17 0
BBX 15 16 1 -2
BITMAP
7FFE
FFFE
8006
8006
8006
8006
8006
8006
8006
8006
8006
8006
8006
8006
FFFE
FFFC
ENDCHAR
STARTCHAR 27E6
ENCODING 10214
SWIDTH 411 0
DWIDTH 8 0
BBX 5 17 2 -3
BITMAP
F8
F8
A0
A0
A0
A0
A0
A0
A0
A0
A0
A0
A0
A0
A0
F8
F8
ENDCHAR
STARTCHAR 27E7
ENCODING 10215
SWIDTH 411 0
DWIDTH 8 0
BBX 5 17 1 -3
BITMAP
F8
F8
28
28
28
28
28
28
28
28
28
28
28
28
28
F8
F8
ENDCHAR
STARTCHAR 2E22
ENCODING 11810
SWIDTH 308 0
DWIDTH 6 0
BBX 3 9 2 5
BITMAP
E0
E0
80
80
80
80
80
80
80
ENDCHAR
STARTCHAR 2E23
ENCODING 11811
SWIDTH 308 0
DWIDTH 6 0
BBX 3 9 1 5
BITMAP
E0
E0
20
20
20
20
20
20
20
ENDCHAR
STARTCHAR 2E24
ENCODING 11812
SWIDTH 308 0
DWIDTH 6 0
BBX 3 9 2 -3
BITMAP
80
80
80
80
80
80
80
E0
E0
ENDCHAR
STARTCHAR 2E25
ENCODING 11813
SWIDTH 308 0
DWIDTH 6 0
BBX 3 9 1 -3
BITMAP
20
20
20
20
20
20
20
E0
E0
ENDCHAR
STARTCHAR 2E3A
ENCODING 11834
SWIDTH 1491 0
DWIDTH 29 0
BBX 27 2 1 4
BITMAP
FFFFFFE0
FFFFFFE0
ENDCHAR
STARTCHAR 2E3B
ENCODING 11835
SWIDTH 2160 0
DWIDTH 42 0
BBX 40 2 1 4
BITMAP
FFFFFFFFFF
FFFFFFFFFF
ENDCHAR
STARTCHAR FB00
ENCODING 64256
SWIDTH 617 0
DWIDTH 12 0
BBX 11 14 1 0
BITMAP
3CE0
7DE0
6180
6380
6380
FFE0
FFE0
6380
6380
6380
6380
6380
6380
6380
ENDCHAR
STARTCHAR FB01
ENCODING 64257
SWIDTH 565 0
DWIDTH 11 0
BBX 9 14 1 0
BITMAP
3C00
7980
6380
6000
6000
F980
F980
6180
6180
6180
6180
6180
6180
6180
ENDCHAR
STARTCHAR FB02
ENCODING 64258
SWIDTH 565 0
DWIDTH 11 0
BBX 10 14 1 0
BITMAP
3F80
7B80
6380
6380
6380
FB80
FB80
6380
6380
6380
6380
6380
6180
61C0
ENDCHAR
STARTCHAR FB03
ENCODING 64259
SWIDTH 874 0
DWIDTH 17 0
BBX 15 14 1 0
BITMAP
3CE0
7DEE
618C
6380
6380
FFEC
FFEC
638C
638C
638C
638C
638C
638C
638C
ENDCHAR
STARTCHAR FB04
ENCODING 64260
SWIDTH 874 0
DWIDTH 17 0
BBX 15 14 1 0
BITMAP
3CEC
7DEC
618C
638C
638C
FFEC
FFEC
638C
638C
638C
638C
638C
638E
6386
ENDCHAR
STARTCHAR FEFF
ENCODING 65279
SWIDTH 0 0
DWIDTH 0 0
BBX 0 0 0 0
BITMAP
ENDCHAR
ENDFONT
